<?xml version="1.0" standalone="no"?>
<!DOCTYPE svg PUBLIC "-//W3C//DTD SVG 1.1//EN" "http://www.w3.org/Graphics/SVG/1.1/DTD/svg11.dtd" >
<svg xmlns="http://www.w3.org/2000/svg" xmlns:xlink="http://www.w3.org/1999/xlink" version="1.1">
<metadata>
Created by FontForge 20161003 at Wed May  8 09:51:21 2019
 By www-data
Copyright (c) 2016 by Martin Va'cha. All rights reserved.
</metadata>
<defs>
<font id="MatterSQBold" horiz-adv-x="607" >
  <font-face 
    font-family="MatterSQBold"
    font-weight="700"
    font-stretch="normal"
    units-per-em="1000"
    panose-1="0 0 8 0 0 0 0 0 0 0"
    ascent="810"
    descent="-190"
    x-height="504"
    cap-height="700"
    bbox="-765 -212 1687 1094"
    underline-thickness="50"
    underline-position="-150"
    unicode-range="U+000D-F8FF"
  />
<missing-glyph horiz-adv-x="781" 
d="M391 708q149 0 253.5 -104t104.5 -253q0 -148 -104.5 -253.5t-253.5 -105.5q-148 0 -253 105.5t-105 253.5t105 252.5t253 104.5zM281 306q21 0 36.5 35.5t15.5 84.5t-15.5 84t-36.5 35q-23 0 -39.5 -35t-16.5 -84t16.5 -84.5t39.5 -35.5zM502 306q23 0 39 35t16 85
t-16 84.5t-39 34.5q-21 0 -36.5 -35t-15.5 -84t15.5 -84.5t36.5 -35.5zM391 97q31 0 53 21.5t22 51.5q0 31 -21.5 52.5t-53.5 21.5q-31 0 -52 -21t-21 -53q0 -30 21 -51.5t52 -21.5z" />
    <glyph glyph-name=".notdef" horiz-adv-x="781" 
d="M391 708q149 0 253.5 -104t104.5 -253q0 -148 -104.5 -253.5t-253.5 -105.5q-148 0 -253 105.5t-105 253.5t105 252.5t253 104.5zM281 306q21 0 36.5 35.5t15.5 84.5t-15.5 84t-36.5 35q-23 0 -39.5 -35t-16.5 -84t16.5 -84.5t39.5 -35.5zM502 306q23 0 39 35t16 85
t-16 84.5t-39 34.5q-21 0 -36.5 -35t-15.5 -84t15.5 -84.5t36.5 -35.5zM391 97q31 0 53 21.5t22 51.5q0 31 -21.5 52.5t-53.5 21.5q-31 0 -52 -21t-21 -53q0 -30 21 -51.5t52 -21.5z" />
    <glyph glyph-name=".null" horiz-adv-x="0" 
 />
    <glyph glyph-name="nonmarkingreturn" horiz-adv-x="333" 
 />
    <glyph glyph-name="CR" unicode="&#xd;" horiz-adv-x="239" 
 />
    <glyph glyph-name="space" unicode=" " horiz-adv-x="239" 
 />
    <glyph glyph-name="exclam" unicode="!" horiz-adv-x="303" 
d="M94 238l-31 462h177l-30 -462h-116zM75 146h151v-146h-151v146z" />
    <glyph glyph-name="quotedbl" unicode="&#x22;" horiz-adv-x="452" 
d="M77 439l-33 269h155l-32 -269h-90zM286 439l-33 269h155l-32 -269h-90z" />
    <glyph glyph-name="numbersign" unicode="#" horiz-adv-x="700" 
d="M670 405h-134l-23 -110h116v-106h-139l-41 -189h-110l41 189h-122l-41 -189h-110l41 189h-118v106h141l23 110h-122v106h145l41 189h110l-41 -189h122l41 189h110l-41 -189h111v-106zM403 295l23 110h-122l-23 -110h122z" />
    <glyph glyph-name="dollar" unicode="$" horiz-adv-x="594" 
d="M565 204q0 -80 -54.5 -135.5t-147.5 -71.5v-92l-126 1v92q-86 17 -145 76t-67 141l138 41q7 -58 46.5 -94t92.5 -36q47 0 75.5 20.5t28.5 53.5q0 27 -20 45t-51.5 29.5t-69.5 22t-76.5 26t-70 37t-51.5 60.5t-20 91q0 73 53.5 125t136.5 67v89h126v-91q77 -15 130.5 -61
t68.5 -111l-141 -59q-11 48 -44.5 76t-82.5 28q-41 0 -65 -16.5t-24 -45.5q0 -22 20 -36.5t51.5 -23.5t70 -17.5t77 -24.5t70 -39t51.5 -66t20 -101z" />
    <glyph glyph-name="percent" unicode="%" horiz-adv-x="771" 
d="M185 356q-75 0 -119.5 48t-44.5 128t44.5 128t119.5 48q74 0 118.5 -48t44.5 -128t-44.5 -128t-118.5 -48zM93 0l468 700h116l-468 -700h-116zM185 453q54 0 54 79t-54 79q-56 0 -56 -79t56 -79zM588 -8q-75 0 -119.5 48t-44.5 128t44.5 128t119.5 48q74 0 118.5 -48
t44.5 -128t-44.5 -128t-118.5 -48zM588 89q54 0 54 79t-54 79q-56 0 -56 -79t56 -79z" />
    <glyph glyph-name="ampersand" unicode="&#x26;" horiz-adv-x="691" 
d="M684 0h-184l-42 49q-88 -57 -183 -57q-105 0 -167 58.5t-62 156.5q0 65 33.5 107t91.5 75q-58 75 -58 139q0 83 50.5 131.5t135.5 48.5q84 0 133.5 -48.5t49.5 -131.5q0 -103 -106 -174l85 -98l86 93l108 -100l-94 -107zM245 528q0 -23 47 -78q60 36 60 78q0 24 -15 39
t-38 15q-24 0 -39 -15t-15 -39zM287 126q35 0 78 33l-108 127q-64 -40 -64 -79q0 -37 25.5 -59t68.5 -22z" />
    <glyph glyph-name="quotesingle" unicode="'" horiz-adv-x="243" 
d="M77 439l-33 269h155l-32 -269h-90z" />
    <glyph glyph-name="parenleft" unicode="(" horiz-adv-x="302" 
d="M194 -187q-178 210 -178 496t178 493l99 -74q-140 -191 -140 -419q0 -229 140 -421z" />
    <glyph glyph-name="parenright" unicode=")" horiz-adv-x="302" 
d="M108 -187l-99 75q140 192 140 421q0 228 -140 419l99 74q178 -207 178 -493t-178 -496z" />
    <glyph glyph-name="asterisk" unicode="*" horiz-adv-x="486" 
d="M458 501l-128 -37l82 -107l-87 -64l-82 112l-83 -112l-87 64l82 107l-127 37l31 105l131 -42l-2 136h110l-2 -136l131 42z" />
    <glyph glyph-name="plus" unicode="+" horiz-adv-x="558" 
d="M527 383v-125h-185v-185h-125v186h-186v124h186v186h124v-186h186z" />
    <glyph glyph-name="comma" unicode="," horiz-adv-x="322" 
d="M22 -134l69 280h169l-143 -280h-95z" />
    <glyph glyph-name="hyphen" unicode="-" horiz-adv-x="388" 
d="M26 227v125h336v-125h-336z" />
    <glyph glyph-name="period" unicode="." horiz-adv-x="266" 
d="M57 146h151v-146h-151v146z" />
    <glyph glyph-name="slash" unicode="/" horiz-adv-x="477" 
d="M5 -1l314 701h153l-315 -701h-152z" />
    <glyph glyph-name="zero" unicode="0" horiz-adv-x="649" 
d="M324 -8q-134 0 -212.5 97.5t-78.5 260.5t78.5 260.5t212.5 97.5t213.5 -97.5t79.5 -260.5t-79.5 -260.5t-213.5 -97.5zM324 128q65 0 100 57.5t35 164.5t-35 165t-100 58t-99 -58t-34 -165t34 -164.5t99 -57.5z" />
    <glyph glyph-name="one" unicode="1" horiz-adv-x="395" 
d="M186 0v532q-74 -55 -158 -72v141q95 23 185 99h119v-700h-146z" />
    <glyph glyph-name="two" unicode="2" horiz-adv-x="581" 
d="M28 0v126l242 201q105 86 105 154q0 41 -27 66.5t-70 25.5q-51 0 -78.5 -39t-22.5 -104l-150 10q-11 111 63.5 189.5t187.5 78.5q114 0 184.5 -63t70.5 -164q0 -66 -41 -127.5t-131 -130.5l-112 -87h283v-136h-504z" />
    <glyph glyph-name="three" unicode="3" horiz-adv-x="597" 
d="M292 -8q-110 0 -183.5 57t-83.5 151l143 24q8 -44 42 -70t83 -26q50 0 81.5 28t31.5 74t-30.5 74t-80.5 28q-44 0 -80 -24l-60 104l177 153h-287v135h473v-126l-170 -143q97 2 156.5 -54t59.5 -152q0 -105 -75 -169t-197 -64z" />
    <glyph glyph-name="four" unicode="4" horiz-adv-x="641" 
d="M369 0v134h-345v135l335 431h168v-431h84v-135h-84v-134h-158zM186 269h183v240z" />
    <glyph glyph-name="five" unicode="5" horiz-adv-x="585" 
d="M293 -8q-104 0 -175.5 53t-86.5 142l142 26q10 -39 40 -62t74 -23q49 0 78 29.5t29 78.5t-31 78t-83 29q-74 0 -119 -63l-115 24l60 396h393v-135h-278l-24 -146q51 46 126 46q101 0 165 -63.5t64 -165.5q0 -110 -70.5 -177t-188.5 -67z" />
    <glyph glyph-name="six" unicode="6" horiz-adv-x="625" 
d="M332 473q107 0 176 -67.5t69 -172.5t-76.5 -173t-194.5 -68q-120 0 -196.5 92.5t-76.5 237.5q0 95 28 170.5t75 121.5t106 70t125 24q124 0 211 -75l-70 -112q-61 52 -136 52q-79 0 -131 -47.5t-60 -124.5q52 72 151 72zM310 128q49 0 80.5 32t32.5 82q1 49 -31 80.5
t-82 31.5t-82 -31.5t-32 -80.5q0 -50 32 -82t82 -32z" />
    <glyph glyph-name="seven" unicode="7" horiz-adv-x="565" 
d="M102 0q33 246 277 565h-349v135h512v-135q-264 -364 -281 -565h-159z" />
    <glyph glyph-name="eight" unicode="8" horiz-adv-x="586" 
d="M294 -8q-112 0 -187 58.5t-75 156.5q0 59 33.5 105t88.5 65q-41 20 -66 58t-25 84q0 80 64.5 134.5t166.5 54.5q100 0 164.5 -54.5t64.5 -134.5q0 -46 -25 -84.5t-67 -57.5q56 -18 89.5 -64.5t33.5 -105.5q0 -98 -75 -156.5t-185 -58.5zM294 435q39 0 63 21.5t24 56.5
t-24 56t-63 21q-41 0 -65 -21t-24 -56t24.5 -56.5t64.5 -21.5zM293 119q49 0 78 25t29 66q0 42 -29 67t-78 25t-78.5 -25t-29.5 -67q0 -41 29.5 -66t78.5 -25z" />
    <glyph glyph-name="nine" unicode="9" horiz-adv-x="632" 
d="M300 227q-107 0 -176 67.5t-69 172.5t76.5 173t194.5 68q120 0 196.5 -92.5t76.5 -237.5q0 -95 -28 -170.5t-75 -121.5t-106 -70t-125 -24q-124 0 -211 75l70 112q61 -52 136 -52q79 0 131 47.5t60 124.5q-52 -72 -151 -72zM322 572q-49 0 -80.5 -32t-32.5 -82
q-1 -49 31 -80.5t82 -31.5t82 31.5t32 80.5q0 50 -32 82t-82 32z" />
    <glyph glyph-name="colon" unicode=":" horiz-adv-x="266" 
d="M57 504h151v-146h-151v146zM57 146h151v-146h-151v146z" />
    <glyph glyph-name="semicolon" unicode=";" horiz-adv-x="322" 
d="M99 512h151v-146h-151v146zM14 -134l69 280h169l-143 -280h-95z" />
    <glyph glyph-name="less" unicode="&#x3c;" horiz-adv-x="555" 
d="M524 20l-493 210v121l493 209v-149l-304 -121l304 -120v-150z" />
    <glyph glyph-name="equal" unicode="=" horiz-adv-x="555" 
d="M31 371v125h493v-125h-493zM31 143v125h493v-125h-493z" />
    <glyph glyph-name="greater" unicode="&#x3e;" horiz-adv-x="555" 
d="M31 20v150l304 120l-304 121v149l493 -209v-121z" />
    <glyph glyph-name="question" unicode="?" horiz-adv-x="536" 
d="M170 226q-5 48 12 83.5t45 56.5t57 38.5t49.5 42t20.5 55.5q0 37 -25 59.5t-66 22.5q-50 0 -76.5 -32.5t-19.5 -86.5l-139 12q-7 104 57.5 167.5t177.5 63.5q109 0 175 -56t66 -150q0 -50 -21 -86.5t-50 -57t-58 -38.5t-48.5 -41t-17.5 -53h-139zM166 146h151v-146h-151
v146z" />
    <glyph glyph-name="at" unicode="@" horiz-adv-x="915" 
d="M538 466h112v-242q0 -22 12 -33.5t31 -11.5q32 0 52 37.5t20 102.5q0 119 -81 188t-209 69q-142 0 -231.5 -84.5t-89.5 -218.5q0 -140 88.5 -226.5t230.5 -86.5q124 0 254 71l40 -115q-154 -68 -302 -68q-186 0 -307 120t-121 305q0 179 125 297.5t313 118.5
q175 0 291 -105.5t116 -264.5q0 -116 -54.5 -183t-142.5 -67q-90 0 -124 63q-37 -58 -123 -58q-84 0 -134.5 53.5t-50.5 145.5q0 90 49.5 144.5t130.5 54.5q67 0 105 -41v35zM454 170q41 0 65.5 28.5t24.5 74.5q0 47 -24.5 75.5t-65.5 28.5t-66 -28.5t-25 -75.5
q0 -46 25 -74.5t66 -28.5z" />
    <glyph glyph-name="A" unicode="A" horiz-adv-x="691" 
d="M522 0l-51 144h-250l-51 -144h-164l265 700h149l265 -700h-163zM269 276h154l-77 217z" />
    <glyph glyph-name="B" unicode="B" horiz-adv-x="635" 
d="M63 0v700h281q99 0 161.5 -47.5t62.5 -132.5q0 -46 -24 -83t-58 -55q52 -20 84.5 -64t32.5 -109q0 -98 -69 -153.5t-182 -55.5h-289zM218 435h114q90 0 90 70q0 71 -93 71h-111v-141zM218 136h120q117 0 117 82q0 85 -117 85h-120v-167z" />
    <glyph glyph-name="C" unicode="C" horiz-adv-x="738" 
d="M385 -8q-150 0 -251 94t-101 264q0 169 101.5 263.5t250.5 94.5q131 0 216.5 -65t100.5 -174l-157 -33q-12 63 -56 100t-105 37q-83 0 -137.5 -58.5t-54.5 -164.5t54 -164t138 -58q61 0 103 32.5t54 89.5l159 -36q-25 -104 -108 -163t-207 -59z" />
    <glyph glyph-name="D" unicode="D" horiz-adv-x="697" 
d="M63 0v700h239q74 0 138 -21.5t115 -63t80.5 -110t29.5 -155.5t-29.5 -155.5t-80.5 -110t-115 -63t-138 -21.5h-239zM218 136h67q45 0 82.5 11t70 35t50.5 67t18 101q0 113 -63 164t-158 51h-67v-429z" />
    <glyph glyph-name="E" unicode="E" horiz-adv-x="587" 
d="M63 0v700h481v-135h-323v-128h256v-136h-256v-165h334v-136h-492z" />
    <glyph glyph-name="F" unicode="F" horiz-adv-x="574" 
d="M63 0v700h486v-135h-328v-136h264v-136h-264v-293h-158z" />
    <glyph glyph-name="G" unicode="G" horiz-adv-x="757" 
d="M378 -8q-144 0 -244.5 94t-100.5 264t104 264t253 94q131 0 216.5 -63.5t105.5 -175.5l-156 -32q-12 62 -57.5 99t-110.5 37q-89 0 -143 -59.5t-54 -163.5t54 -163t141 -59q69 0 115 35t53 92h-190v126h336v-381h-144v73q-22 -37 -70.5 -59t-107.5 -22z" />
    <glyph glyph-name="H" unicode="H" horiz-adv-x="721" 
d="M499 700h159v-700h-159v293h-278v-293h-158v700h158v-272h278v272z" />
    <glyph glyph-name="I" unicode="I" horiz-adv-x="284" 
d="M63 0v700h158v-700h-158z" />
    <glyph glyph-name="J" unicode="J" horiz-adv-x="373" 
d="M25 138q25 -5 44 -5q90 0 90 91v476h150v-482q0 -110 -54.5 -166.5t-148.5 -56.5q-47 0 -81 8v135z" />
    <glyph glyph-name="K" unicode="K" horiz-adv-x="694" 
d="M491 0l-202 305l-68 -72v-233h-158v700h158v-256l239 256h207l-268 -281l291 -419h-199z" />
    <glyph glyph-name="L" unicode="L" horiz-adv-x="546" 
d="M63 0v700h158v-564h314v-136h-472z" />
    <glyph glyph-name="M" unicode="M" horiz-adv-x="880" 
d="M63 0v700h174l203 -476l203 476h174v-700h-147v407l-172 -407h-115l-173 407v-407h-147z" />
    <glyph glyph-name="N" unicode="N" horiz-adv-x="702" 
d="M63 0v700h157l272 -450v450h147v-700h-157l-272 450v-450h-147z" />
    <glyph glyph-name="O" unicode="O" horiz-adv-x="783" 
d="M393 -8q-156 0 -258 101.5t-102 256.5t102 256.5t258 101.5q155 0 256.5 -102t101.5 -256t-101.5 -256t-256.5 -102zM392 128q88 0 144.5 63t56.5 159t-57 159.5t-144 63.5q-88 0 -144.5 -63t-56.5 -160q0 -96 56.5 -159t144.5 -63z" />
    <glyph glyph-name="P" unicode="P" horiz-adv-x="609" 
d="M64 0v700h290q109 0 173.5 -59.5t64.5 -159.5t-64.5 -159.5t-173.5 -59.5h-132v-262h-158zM222 397h116q45 0 70.5 22.5t25.5 61.5t-25.5 61.5t-70.5 22.5h-116v-168z" />
    <glyph glyph-name="Q" unicode="Q" horiz-adv-x="785" 
d="M751 350q0 -141 -88 -242l82 -89l-97 -87l-90 97q-76 -37 -165 -37q-156 0 -258 101.5t-102 256.5t102 256.5t258 101.5q155 0 256.5 -102t101.5 -256zM392 128q31 0 64 10l-111 120l99 89l115 -125q34 54 34 128q0 96 -57 159.5t-144 63.5q-88 0 -144.5 -63t-56.5 -160
q0 -96 56.5 -159t144.5 -63z" />
    <glyph glyph-name="R" unicode="R" horiz-adv-x="659" 
d="M648 0h-185l-152 274h-88v-274h-158l-2 700h279q104 0 166 -58t62 -155q0 -57 -26.5 -104.5t-74.5 -75.5zM223 565v-156h92q46 0 71.5 20.5t25.5 57.5t-25.5 57.5t-71.5 20.5h-92z" />
    <glyph glyph-name="S" unicode="S" horiz-adv-x="594" 
d="M296 -8q-105 0 -183 63.5t-88 159.5l138 41q7 -58 46.5 -94t92.5 -36q47 0 75.5 20.5t28.5 53.5q0 27 -20 45t-51.5 29.5t-69.5 22t-76.5 26t-70 37t-51.5 60.5t-20 91q0 85 71.5 141t175.5 56q101 0 175.5 -49.5t92.5 -129.5l-141 -59q-11 48 -44.5 76t-82.5 28
q-41 0 -65 -16.5t-24 -45.5q0 -22 20 -36.5t51.5 -23.5t70 -17.5t77 -24.5t70 -39t51.5 -66t20 -101q0 -95 -74 -153.5t-195 -58.5z" />
    <glyph glyph-name="T" unicode="T" horiz-adv-x="597" 
d="M220 0v565h-206v135h569v-135h-205v-565h-158z" />
    <glyph glyph-name="U" unicode="U" horiz-adv-x="688" 
d="M344 -8q-129 0 -205 68.5t-76 199.5v440h147v-439q0 -66 36.5 -99t97.5 -33t97.5 33t36.5 99v439h147v-440q0 -131 -76 -199.5t-205 -68.5z" />
    <glyph glyph-name="V" unicode="V" horiz-adv-x="664" 
d="M257 0l-251 700h161l165 -510l166 510h161l-251 -700h-151z" />
    <glyph glyph-name="W" unicode="W" horiz-adv-x="1019" 
d="M213 0l-199 700h162l119 -510l122 510h183l123 -509l119 509h163l-197 -700h-168l-130 487l-132 -487h-165z" />
    <glyph glyph-name="X" unicode="X" horiz-adv-x="633" 
d="M626 0h-166l-143 236l-143 -236h-167l226 374l-197 326h167l114 -188l113 188h167l-197 -326z" />
    <glyph glyph-name="Y" unicode="Y" horiz-adv-x="634" 
d="M238 0v289l-237 411h168l148 -263l149 263h167l-237 -411v-289h-158z" />
    <glyph glyph-name="Z" unicode="Z" 
d="M27 0v126l360 439h-344v135h525v-126l-356 -438h359v-136h-544z" />
    <glyph glyph-name="bracketleft" unicode="[" horiz-adv-x="325" 
d="M63 -165v984h239v-119h-109v-747h109v-118h-239z" />
    <glyph glyph-name="backslash" unicode="\" horiz-adv-x="477" 
d="M472 -1h-152l-315 701h153z" />
    <glyph glyph-name="bracketright" unicode="]" horiz-adv-x="325" 
d="M262 -165h-239v118h109v747h-109v119h239v-984z" />
    <glyph glyph-name="asciicircum" unicode="^" horiz-adv-x="600" 
d="M36 408l204 292h121l204 -292h-143l-121 169l-122 -169h-143z" />
    <glyph glyph-name="underscore" unicode="_" horiz-adv-x="500" 
d="M21 -125v125h458v-125h-458z" />
    <glyph glyph-name="a" unicode="a" horiz-adv-x="541" 
d="M254 512q106 0 168 -54.5t62 -158.5v-299h-142v64q-22 -33 -61 -52.5t-81 -19.5q-73 0 -120 43t-47 107q0 146 218 169l91 9v3q0 37 -23.5 58.5t-64.5 21.5q-36 0 -60 -21t-28 -57l-128 24q12 73 73 118t143 45zM236 97q48 0 76.5 33t29.5 79v1v3v4l-94 -11
q-36 -4 -55.5 -20t-19.5 -39q0 -22 16.5 -36t46.5 -14z" />
    <glyph glyph-name="b" unicode="b" 
d="M338 -8q-92 0 -134 58v-50h-147v708h147v-252q46 56 136 56q109 0 172 -70.5t63 -189.5t-63.5 -189.5t-173.5 -70.5zM314 117q53 0 85.5 37t32.5 98t-32.5 98t-85.5 37q-54 0 -86.5 -37t-32.5 -98t32.5 -98t86.5 -37z" />
    <glyph glyph-name="c" unicode="c" horiz-adv-x="567" 
d="M290 -8q-114 0 -186 72.5t-72 187.5t72 187.5t186 72.5q101 0 167 -48t78 -131l-142 -28q-6 38 -32 60t-65 22q-52 0 -82.5 -36.5t-30.5 -98.5q0 -61 31 -98t82 -37q78 0 95 76l143 -29q-14 -80 -79 -126t-165 -46z" />
    <glyph glyph-name="d" unicode="d" 
d="M269 -8q-110 0 -173.5 70.5t-63.5 189.5t63 189.5t172 70.5q90 0 136 -56v252h147v-708h-147v50q-42 -58 -134 -58zM293 117q54 0 86.5 37t32.5 98t-32.5 98t-86.5 37q-53 0 -85.5 -37t-32.5 -98t32.5 -98t85.5 -37z" />
    <glyph glyph-name="e" unicode="e" horiz-adv-x="573" 
d="M541 265q0 -33 -2 -55h-362q22 -96 118 -96q81 0 98 65l138 -37q-22 -71 -86 -110.5t-154 -39.5q-122 0 -190.5 78.5t-68.5 181.5q0 66 25 123t83.5 97t141.5 40q65 0 116.5 -22.5t81.5 -59.5t45.5 -79t15.5 -86zM179 314h205q-4 40 -29.5 64.5t-72.5 24.5
q-82 0 -103 -89z" />
    <glyph glyph-name="f" unicode="f" horiz-adv-x="388" 
d="M98 0v382h-79v122h79v35q0 88 53.5 138t138.5 50q45 0 80 -13l-10 -118q-28 11 -50 11q-30 0 -47.5 -19t-17.5 -52v-32h115v-122h-115v-382h-147z" />
    <glyph glyph-name="g" unicode="g" horiz-adv-x="595" 
d="M392 504h145v-468q0 -101 -71 -163.5t-187 -62.5q-89 0 -154.5 44t-78.5 115l134 21q5 -30 33 -47.5t66 -17.5q51 0 82.5 26.5t31.5 68.5v48q-41 -52 -130 -52q-107 0 -169 67t-62 181t61.5 181t166.5 67q88 0 132 -51v43zM287 141q52 0 82.5 33.5t30.5 89.5t-30.5 89.5
t-82.5 33.5q-51 0 -81.5 -33.5t-30.5 -89.5t30.5 -89.5t81.5 -33.5z" />
    <glyph glyph-name="h" unicode="h" horiz-adv-x="602" 
d="M57 0v708h147v-272q50 76 153 76q86 0 137 -50t51 -134v-328h-146v290q0 42 -24 67t-65 25q-106 0 -106 -162v-220h-147z" />
    <glyph glyph-name="i" unicode="i" horiz-adv-x="261" 
d="M54 708h155v-141h-155v141zM57 0v504h147v-504h-147z" />
    <glyph glyph-name="j" unicode="j" horiz-adv-x="265" 
d="M63 708h155v-141h-155v141zM8 -190l-37 2l-3 126q13 -1 23 -1q75 0 75 91v476h146v-496q0 -91 -55.5 -144.5t-148.5 -53.5z" />
    <glyph glyph-name="k" unicode="k" horiz-adv-x="577" 
d="M397 0l-137 208l-55 -55v-153h-148v708h148v-369l168 165h184l-199 -198l214 -306h-175z" />
    <glyph glyph-name="l" unicode="l" horiz-adv-x="261" 
d="M57 0v708h147v-708h-147z" />
    <glyph glyph-name="m" unicode="m" horiz-adv-x="906" 
d="M57 0v504h147v-68q49 76 142 76q113 0 152 -90q22 39 67 64.5t103 25.5q81 0 131 -48t50 -121v-343h-146v300q0 42 -21.5 65.5t-60.5 23.5q-45 0 -70.5 -35t-25.5 -96v-258h-145v300q0 41 -21.5 65t-59.5 24q-45 0 -70 -35.5t-25 -95.5v-258h-147z" />
    <glyph glyph-name="n" unicode="n" horiz-adv-x="600" 
d="M57 0v504h147v-67q51 75 154 75q83 0 134 -50t51 -133v-329h-146v290q0 41 -23.5 66.5t-63.5 25.5q-106 0 -106 -161v-221h-147z" />
    <glyph glyph-name="o" unicode="o" horiz-adv-x="595" 
d="M298 -8q-117 0 -191.5 73.5t-74.5 186.5t74.5 186.5t191.5 73.5q115 0 190.5 -73.5t75.5 -186.5t-75.5 -186.5t-190.5 -73.5zM298 117q53 0 86 37.5t33 97.5t-33 97.5t-86 37.5q-54 0 -87 -37.5t-33 -97.5t33 -97.5t87 -37.5z" />
    <glyph glyph-name="p" unicode="p" 
d="M57 -182v686h147v-50q46 58 141 58q105 0 168 -71t63 -189t-67 -189t-176 -71q-87 0 -129 47v-221h-147zM314 117q53 0 85.5 37t32.5 98t-32.5 98t-85.5 37t-86 -37t-33 -98t33 -98t86 -37z" />
    <glyph glyph-name="q" unicode="q" 
d="M550 -182h-147v221q-42 -47 -129 -47q-109 0 -176 71t-67 189t63 189t168 71q95 0 141 -58v50h147v-686zM293 117q53 0 86 37t33 98t-33 98t-86 37t-85.5 -37t-32.5 -98t32.5 -98t85.5 -37z" />
    <glyph glyph-name="r" unicode="r" horiz-adv-x="417" 
d="M397 363q-26 12 -64 12q-55 0 -92 -46.5t-37 -146.5v-182h-147v504h147v-87q17 40 60 67.5t88 27.5q32 0 54 -8z" />
    <glyph glyph-name="s" unicode="s" horiz-adv-x="461" 
d="M237 -8q-86 0 -144.5 44t-80.5 107l118 46q9 -37 38 -61.5t69 -24.5q29 0 47 13t18 34t-27.5 34t-67 22.5t-78.5 24t-66.5 49t-27.5 87.5q0 61 49.5 103t130.5 42q77 0 135.5 -34t75.5 -89l-118 -49q-9 32 -34.5 49.5t-53.5 17.5q-25 0 -40.5 -10t-15.5 -26
q0 -18 20 -29.5t50 -17t65.5 -16.5t65.5 -25.5t50 -48t20 -81.5q0 -67 -55.5 -114t-142.5 -47z" />
    <glyph glyph-name="t" unicode="t" horiz-adv-x="395" 
d="M371 5q-39 -13 -82 -13q-86 0 -139 46t-53 134v210h-80v122h80v146h147v-146h122v-122h-122v-191q0 -33 16.5 -52t43.5 -19q34 0 57 12z" />
    <glyph glyph-name="u" unicode="u" horiz-adv-x="600" 
d="M543 504v-504h-147v67q-51 -75 -154 -75q-83 0 -134 50t-51 133v329h146v-290q0 -41 23.5 -66.5t63.5 -25.5q106 0 106 161v221h147z" />
    <glyph glyph-name="v" unicode="v" horiz-adv-x="511" 
d="M189 0l-183 504h147l102 -334l102 334h148l-183 -504h-133z" />
    <glyph glyph-name="w" unicode="w" horiz-adv-x="800" 
d="M177 0l-157 504h147l75 -299l92 299h133l92 -299l75 299h147l-157 -504h-128l-95 302l-96 -302h-128z" />
    <glyph glyph-name="x" unicode="x" horiz-adv-x="528" 
d="M511 0h-160l-87 133l-88 -133h-159l168 253l-166 251h157l88 -132l87 132h157l-165 -251z" />
    <glyph glyph-name="y" unicode="y" horiz-adv-x="542" 
d="M386 504h150l-266 -686h-150l80 207l-194 479h159l108 -292z" />
    <glyph glyph-name="z" unicode="z" horiz-adv-x="498" 
d="M29 0v112l255 270h-237v122h414v-112l-252 -270h260v-122h-440z" />
    <glyph glyph-name="braceleft" unicode="{" horiz-adv-x="348" 
d="M263 -159q-59 0 -97.5 39.5t-38.5 98.5v210q0 43 -21.5 62t-64.5 19v125q43 1 64.5 20t21.5 61v210q0 60 38.5 99t97.5 39h67v-120h-18q-54 0 -54 -57v-203q0 -47 -21.5 -71t-62.5 -40q41 -16 62.5 -40t21.5 -72v-203q0 -56 54 -56h18v-121h-67z" />
    <glyph glyph-name="bar" unicode="|" horiz-adv-x="286" 
d="M64 -50v800h158v-800h-158z" />
    <glyph glyph-name="braceright" unicode="}" horiz-adv-x="348" 
d="M85 -159h-67v121h18q54 0 54 56v203q0 48 21.5 72t62.5 40q-41 16 -62.5 40t-21.5 71v203q0 57 -54 57h-18v120h67q59 0 97.5 -39t38.5 -99v-210q0 -42 21.5 -61t64.5 -20v-125q-43 0 -64.5 -19t-21.5 -62v-210q0 -59 -38.5 -98.5t-97.5 -39.5z" />
    <glyph glyph-name="asciitilde" unicode="~" horiz-adv-x="618" 
d="M405 231q-60 0 -117 37l-12 8t-12 7.5t-9.5 5.5t-10 5.5t-9.5 3.5t-11 2.5t-11 0.5q-46 0 -58 -72l-121 18q4 82 53.5 132.5t125.5 50.5q61 0 118 -37q4 -2 12.5 -8t11.5 -7.5t9.5 -5.5t10 -5.5t9 -3.5t10.5 -2.5t11 -0.5q47 0 58 72l122 -18q-5 -82 -54.5 -132.5
t-125.5 -50.5z" />
    <glyph glyph-name="uni00A0" unicode="&#xa0;" horiz-adv-x="239" 
 />
    <glyph glyph-name="exclamdown" unicode="&#xa1;" horiz-adv-x="303" 
d="M75 350v146h151v-146h-151zM94 258h116l30 -462h-177z" />
    <glyph glyph-name="cent" unicode="&#xa2;" horiz-adv-x="567" 
d="M296 117q78 0 95 76l143 -29q-11 -64 -57 -107.5t-117 -57.5v-102l-126 1v99q-91 17 -146.5 86.5t-55.5 168.5t55.5 168.5t146.5 86.5v99h126v-101q73 -14 119 -59t56 -113l-142 -28q-6 38 -32 60t-65 22q-52 0 -82.5 -36.5t-30.5 -98.5q0 -61 31 -98t82 -37z" />
    <glyph glyph-name="sterling" unicode="&#xa3;" horiz-adv-x="621" 
d="M476 205l131 -72q-67 -133 -179 -133h-356v126q77 61 77 160v6h-117v120h71q-19 43 -19 82q0 98 65 156t175 58q97 0 161 -47t75 -125l-145 -39q-6 36 -30 56t-61 20t-61 -23.5t-24 -63.5q0 -34 20 -74h220v-120h-173v-6q0 -42 -18 -83.5t-46 -66.5h147q26 0 49.5 19
t37.5 50z" />
    <glyph glyph-name="currency" unicode="&#xa4;" horiz-adv-x="653" 
d="M592 252q0 -77 -38 -139l67 -68l-89 -88l-69 69q-60 -34 -137 -34q-76 0 -137 33l-68 -68l-89 88l66 67q-38 63 -38 140q0 79 37 139l-65 67l88 89l69 -69q60 34 137 34q76 0 138 -34l69 69l88 -89l-66 -68q37 -60 37 -138zM326 117q53 0 86 37.5t33 97.5t-33 97.5
t-86 37.5q-54 0 -87 -37.5t-33 -97.5t33 -97.5t87 -37.5z" />
    <glyph glyph-name="yen" unicode="&#xa5;" horiz-adv-x="634" 
d="M633 700l-180 -313h121v-98h-178v-65h178v-98h-178v-126h-158v126h-176v98h176v65h-176v98h119l-180 313h168l148 -263l149 263h167z" />
    <glyph glyph-name="brokenbar" unicode="&#xa6;" horiz-adv-x="286" 
d="M64 401v349h158v-349h-158zM64 -50v349h158v-349h-158z" />
    <glyph glyph-name="section" unicode="&#xa7;" horiz-adv-x="595" 
d="M503 131q49 -46 49 -124q0 -88 -70 -142.5t-181 -54.5q-99 0 -172.5 60.5t-85.5 147.5l123 35q7 -53 44.5 -85.5t90.5 -32.5q51 0 81.5 19.5t30.5 52.5q0 26 -25 43.5t-63 26t-82 23.5t-82 33.5t-63 59t-25 97.5t53 101q-53 48 -53 132q0 80 64.5 132.5t161.5 52.5
q91 0 161 -48t79 -132l-126 -28q-7 38 -38 62t-76 24q-41 0 -67 -17t-26 -44q0 -35 35.5 -55t86.5 -32t102 -29.5t86.5 -60t35.5 -109.5q0 -64 -49 -108zM206 293q0 -19 9 -33t30.5 -24.5t38 -16.5t52.5 -15t52 -14q25 22 25 49q0 17 -9.5 30t-30 22.5t-40 15.5t-52 14.5
t-52.5 15.5q-23 -21 -23 -44z" />
    <glyph glyph-name="copyright" unicode="&#xa9;" horiz-adv-x="782" 
d="M391 -8q-155 0 -256.5 102t-101.5 256t101.5 256t256.5 102t257 -102t102 -256t-102 -256t-257 -102zM391 67q121 0 201 80.5t80 202.5t-80 202.5t-201 80.5t-201 -80.5t-80 -202.5t80 -202.5t201 -80.5zM396 165q-86 0 -138 52t-52 137t52.5 138t137.5 53
q71 0 118.5 -36.5t53.5 -97.5l-92 -19q-4 33 -26 52t-55 19q-44 0 -70 -29.5t-26 -79.5t26 -79.5t70 -29.5q32 0 53 17.5t26 47.5l94 -20q-14 -59 -59.5 -92t-112.5 -33z" />
    <glyph glyph-name="ordfeminine" unicode="&#xaa;" horiz-adv-x="334" 
d="M158 708q66 0 105 -34t39 -100v-190h-89v40q-13 -20 -38 -32.5t-52 -12.5q-45 0 -75 27.5t-30 67.5q0 91 137 106l58 7v1q0 25 -14.5 38.5t-40.5 13.5q-23 0 -38.5 -13.5t-17.5 -37.5l-81 15q7 47 45.5 75.5t91.5 28.5zM146 445q30 0 48 20t19 50v1v3v3l-59 -7
q-23 -3 -36 -13.5t-13 -24.5q0 -13 11 -22.5t30 -9.5z" />
    <glyph glyph-name="guillemotleft" unicode="&#xab;" horiz-adv-x="641" 
d="M327 43l-293 223v84l293 223v-146l-160 -119l160 -119v-146zM603 43l-293 223v84l293 223v-146l-160 -119l160 -119v-146z" />
    <glyph glyph-name="logicalnot" unicode="&#xac;" horiz-adv-x="601" 
d="M405 126v165h-363v125h509v-290h-146z" />
    <glyph glyph-name="uni00AD" unicode="&#xad;" horiz-adv-x="388" 
d="M26 227v125h336v-125h-336z" />
    <glyph glyph-name="registered" unicode="&#xae;" horiz-adv-x="782" 
d="M391 -8q-155 0 -256.5 102t-101.5 256t101.5 256t256.5 102t257 -102t102 -256t-102 -256t-257 -102zM391 67q121 0 201 80.5t80 202.5t-80 202.5t-201 80.5t-201 -80.5t-80 -202.5t80 -202.5t201 -80.5zM562 181h-97l-79 141h-45v-141h-82l-1 362h144q54 0 86.5 -30.5
t32.5 -80.5q0 -62 -52 -92zM341 471v-78h48q49 0 49 39t-49 39h-48z" />
    <glyph glyph-name="degree" unicode="&#xb0;" horiz-adv-x="359" 
d="M179 428q-62 0 -104 41t-42 102t42 102t104 40q63 1 105.5 -40t42.5 -102t-42.5 -102t-105.5 -41zM179 514q24 0 39.5 16t15.5 41t-15.5 41t-39.5 16t-39 -16t-15 -41t15 -41t39 -16z" />
    <glyph glyph-name="plusminus" unicode="&#xb1;" horiz-adv-x="558" 
d="M527 500v-125h-185v-185h-125v186h-186v124h186v186h124v-186h186zM526 0h-493v125h493v-125z" />
    <glyph glyph-name="uni00B2" unicode="&#xb2;" horiz-adv-x="343" 
d="M29 375l-1 79l116 95q67 54 67 87q0 18 -12 29t-32 11q-23 0 -35.5 -19t-9.5 -51l-98 6q-7 62 36.5 107t106.5 45q65 0 106 -36t41 -92q0 -76 -97 -143l-44 -30h141v-88h-285z" />
    <glyph glyph-name="uni00B3" unicode="&#xb3;" horiz-adv-x="351" 
d="M173 371q-62 0 -104 32t-47 84l92 15q6 -19 22.5 -31t37.5 -12q23 0 37 12t14 33q0 20 -14 33t-36 13q-27 0 -45 -14l-39 68l85 68h-143v88h265v-88l-85 -60q52 -1 83 -30.5t31 -80.5q0 -59 -42.5 -94.5t-111.5 -35.5z" />
    <glyph glyph-name="uni00B5" unicode="&#xb5;" horiz-adv-x="588" 
d="M392 504h146v-504h-146v67q-13 -34 -45.5 -54.5t-75.5 -20.5q-37 0 -72 24v-206h-147v694h147v-290q0 -41 23.5 -66.5t62.5 -25.5q52 0 79.5 41.5t27.5 119.5v221z" />
    <glyph glyph-name="paragraph" unicode="&#xb6;" horiz-adv-x="745" 
d="M276 -182v422q-99 0 -168.5 67.5t-69.5 162.5t69.5 162.5t168.5 67.5h427v-126h-65v-756h-128v756h-107v-756h-127z" />
    <glyph glyph-name="periodcentered" unicode="&#xb7;" horiz-adv-x="287" 
d="M57 439h151v-146h-151v146z" />
    <glyph glyph-name="uni00B9" unicode="&#xb9;" horiz-adv-x="238" 
d="M108 375v278q-47 -31 -86 -38v91q48 11 104 54h77v-385h-95z" />
    <glyph glyph-name="ordmasculine" unicode="&#xba;" horiz-adv-x="372" 
d="M186 379q-73 0 -120.5 47t-47.5 118t47.5 117.5t120.5 46.5t120.5 -46.5t47.5 -117.5t-47.5 -118t-120.5 -47zM186 458q34 0 55 23.5t21 62.5q0 38 -21 62t-55 24t-55 -24t-21 -62q0 -39 21 -62.5t55 -23.5z" />
    <glyph glyph-name="guillemotright" unicode="&#xbb;" horiz-adv-x="663" 
d="M38 43v146l160 119l-160 119v146l293 -223v-84zM336 43v146l160 119l-160 119v146l293 -223v-84z" />
    <glyph glyph-name="onequarter" unicode="&#xbc;" horiz-adv-x="777" 
d="M108 315v278q-47 -31 -86 -38v91q48 11 104 54h77v-385h-95zM88 0l468 700h116l-468 -700h-116zM612 0v64h-186v88l182 233h108v-233h41v-88h-41v-64h-104zM530 152h82v106z" />
    <glyph glyph-name="onehalf" unicode="&#xbd;" horiz-adv-x="804" 
d="M108 315v278q-47 -31 -86 -38v91q48 11 104 54h77v-385h-95zM75 0l468 700h116l-468 -700h-116zM490 0l-1 79l116 95q67 54 67 87q0 18 -12 29t-32 11q-23 0 -35.5 -19t-9.5 -51l-98 6q-7 62 36.5 107t106.5 45q65 0 106 -36t41 -92q0 -76 -97 -143l-44 -30h141v-88h-285
z" />
    <glyph glyph-name="threequarters" unicode="&#xbe;" horiz-adv-x="839" 
d="M173 311q-62 0 -104 32t-47 84l92 15q6 -19 22.5 -31t37.5 -12q23 0 37 12t14 33q0 20 -14 33t-36 13q-27 0 -45 -14l-39 68l85 68h-143v88h265v-88l-85 -60q52 -1 83 -30.5t31 -80.5q0 -59 -42.5 -94.5t-111.5 -35.5zM149 0l468 700h116l-468 -700h-116zM674 0v64h-186
v88l182 233h108v-233h41v-88h-41v-64h-104zM592 152h82v106z" />
    <glyph glyph-name="questiondown" unicode="&#xbf;" horiz-adv-x="471" 
d="M321 350h-151v146h151v-146zM317 270q5 -48 -12 -83.5t-45 -56.5t-57 -38.5t-49.5 -42t-20.5 -55.5q0 -37 25 -59.5t66 -22.5q50 0 76.5 32.5t19.5 86.5l139 -12q7 -104 -57.5 -167.5t-177.5 -63.5q-109 0 -175 56t-66 150q0 50 21 86.5t50 57t58 38.5t48.5 41t17.5 53
h139z" />
    <glyph glyph-name="Agrave" unicode="&#xc0;" horiz-adv-x="691" 
d="M401 756h-103l-122 148h167zM522 0l-51 144h-250l-51 -144h-164l265 700h149l265 -700h-163zM269 276h154l-77 217z" />
    <glyph glyph-name="Aacute" unicode="&#xc1;" horiz-adv-x="691" 
d="M502 904l-122 -148h-103l58 148h167zM522 0l-51 144h-250l-51 -144h-164l265 700h149l265 -700h-163zM269 276h154l-77 217z" />
    <glyph glyph-name="Acircumflex" unicode="&#xc2;" horiz-adv-x="691" 
d="M345 827l-72 -71h-104l112 148h127l113 -148h-104zM522 0l-51 144h-250l-51 -144h-164l265 700h149l265 -700h-163zM269 276h154l-77 217z" />
    <glyph glyph-name="Atilde" unicode="&#xc3;" horiz-adv-x="691" 
d="M275 810q-30 0 -37 -52l-99 15q2 62 40 101t96 39q46 0 89 -27q4 -3 14 -9.5t13.5 -8t10 -3.5t13.5 -2q30 0 36 52l100 -14q-2 -64 -39.5 -102.5t-96.5 -38.5q-47 0 -88 27q-35 23 -52 23zM522 0l-51 144h-250l-51 -144h-164l265 700h149l265 -700h-163zM269 276h154
l-77 217z" />
    <glyph glyph-name="Adieresis" unicode="&#xc4;" horiz-adv-x="691" 
d="M306 904v-138h-134v138h134zM520 904v-138h-135v138h135zM522 0l-51 144h-250l-51 -144h-164l265 700h149l265 -700h-163zM269 276h154l-77 217z" />
    <glyph glyph-name="Aring" unicode="&#xc5;" horiz-adv-x="691" 
d="M346 735q-52 0 -86 32.5t-34 81.5t34 81t86 32t86 -32t34 -81t-34 -81.5t-86 -32.5zM346 892q-20 0 -32.5 -12t-12.5 -31t12.5 -31t32.5 -12t32.5 12t12.5 31t-12.5 31t-32.5 12zM522 0l-51 144h-250l-51 -144h-164l265 700h149l265 -700h-163zM269 276h154l-77 217z" />
    <glyph glyph-name="AE" unicode="&#xc6;" horiz-adv-x="995" 
d="M629 136h334v-136h-492v150h-216l-76 -150h-174l363 700h584v-135h-323v-128h256v-136h-256v-165zM323 286h148v293z" />
    <glyph glyph-name="Ccedilla" unicode="&#xc7;" horiz-adv-x="738" 
d="M384 128q61 0 103 32.5t54 89.5l159 -36q-23 -94 -92.5 -151.5t-173.5 -67.5l-58 -143h-167l119 144q-130 17 -212.5 109t-82.5 245q0 169 101.5 263.5t250.5 94.5q131 0 216.5 -65t100.5 -174l-157 -33q-12 63 -56 100t-105 37q-83 0 -137.5 -58.5t-54.5 -164.5t54 -164
t138 -58z" />
    <glyph glyph-name="Egrave" unicode="&#xc8;" horiz-adv-x="587" 
d="M364 756h-103l-122 148h167zM63 0v700h481v-135h-323v-128h256v-136h-256v-165h334v-136h-492z" />
    <glyph glyph-name="Eacute" unicode="&#xc9;" horiz-adv-x="587" 
d="M240 756l58 148h167l-122 -148h-103zM63 0v700h481v-135h-323v-128h256v-136h-256v-165h334v-136h-492z" />
    <glyph glyph-name="Ecircumflex" unicode="&#xca;" horiz-adv-x="587" 
d="M244 904h127l113 -148h-104l-72 71l-72 -71h-104zM63 0v700h481v-135h-323v-128h256v-136h-256v-165h334v-136h-492z" />
    <glyph glyph-name="Edieresis" unicode="&#xcb;" horiz-adv-x="587" 
d="M135 904h134v-138h-134v138zM348 904h135v-138h-135v138zM63 0v700h481v-135h-323v-128h256v-136h-256v-165h334v-136h-492z" />
    <glyph glyph-name="Igrave" unicode="&#xcc;" horiz-adv-x="284" 
d="M197 756h-103l-122 148h167zM63 0v700h158v-700h-158z" />
    <glyph glyph-name="Iacute" unicode="&#xcd;" horiz-adv-x="284" 
d="M73 756l58 148h167l-122 -148h-103zM63 0v700h158v-700h-158z" />
    <glyph glyph-name="Icircumflex" unicode="&#xce;" horiz-adv-x="284" 
d="M77 904h127l113 -148h-104l-72 71l-72 -71h-104zM63 0v700h158v-700h-158z" />
    <glyph glyph-name="Idieresis" unicode="&#xcf;" horiz-adv-x="284" 
d="M-32 904h134v-138h-134v138zM181 904h135v-138h-135v138zM63 0v700h158v-700h-158z" />
    <glyph glyph-name="Eth" unicode="&#xd0;" horiz-adv-x="697" 
d="M302 700q74 0 138 -21.5t115 -63t80.5 -110t29.5 -155.5t-29.5 -155.5t-80.5 -110t-115 -63t-138 -21.5h-239v301h-64v98h64v301h239zM285 136q45 0 82.5 11t70 35t50.5 67t18 101q0 113 -63 164t-158 51h-67v-166h111v-98h-111v-165h67z" />
    <glyph glyph-name="Ntilde" unicode="&#xd1;" horiz-adv-x="702" 
d="M243 758l-99 15q2 62 40 101t96 39q46 0 89 -27q4 -3 14 -9.5t13.5 -8t10 -3.5t13.5 -2q30 0 36 52l100 -14q-2 -64 -39.5 -102.5t-96.5 -38.5q-47 0 -88 27q-35 23 -52 23q-30 0 -37 -52zM63 0v700h157l272 -450v450h147v-700h-157l-272 450v-450h-147z" />
    <glyph glyph-name="Ograve" unicode="&#xd2;" horiz-adv-x="783" 
d="M448 756h-103l-122 148h167zM393 -8q-156 0 -258 101.5t-102 256.5t102 256.5t258 101.5q155 0 256.5 -102t101.5 -256t-101.5 -256t-256.5 -102zM392 128q88 0 144.5 63t56.5 159t-57 159.5t-144 63.5q-88 0 -144.5 -63t-56.5 -160q0 -96 56.5 -159t144.5 -63z" />
    <glyph glyph-name="Oacute" unicode="&#xd3;" horiz-adv-x="783" 
d="M324 756l58 148h167l-122 -148h-103zM393 -8q-156 0 -258 101.5t-102 256.5t102 256.5t258 101.5q155 0 256.5 -102t101.5 -256t-101.5 -256t-256.5 -102zM392 128q88 0 144.5 63t56.5 159t-57 159.5t-144 63.5q-88 0 -144.5 -63t-56.5 -160q0 -96 56.5 -159t144.5 -63z
" />
    <glyph glyph-name="Ocircumflex" unicode="&#xd4;" horiz-adv-x="783" 
d="M328 904h127l113 -148h-104l-72 71l-72 -71h-104zM393 -8q-156 0 -258 101.5t-102 256.5t102 256.5t258 101.5q155 0 256.5 -102t101.5 -256t-101.5 -256t-256.5 -102zM392 128q88 0 144.5 63t56.5 159t-57 159.5t-144 63.5q-88 0 -144.5 -63t-56.5 -160q0 -96 56.5 -159
t144.5 -63z" />
    <glyph glyph-name="Otilde" unicode="&#xd5;" horiz-adv-x="783" 
d="M285 758l-99 15q2 62 40 101t96 39q46 0 89 -27q4 -3 14 -9.5t13.5 -8t10 -3.5t13.5 -2q30 0 36 52l100 -14q-2 -64 -39.5 -102.5t-96.5 -38.5q-47 0 -88 27q-35 23 -52 23q-30 0 -37 -52zM393 -8q-156 0 -258 101.5t-102 256.5t102 256.5t258 101.5q155 0 256.5 -102
t101.5 -256t-101.5 -256t-256.5 -102zM392 128q88 0 144.5 63t56.5 159t-57 159.5t-144 63.5q-88 0 -144.5 -63t-56.5 -160q0 -96 56.5 -159t144.5 -63z" />
    <glyph glyph-name="Odieresis" unicode="&#xd6;" horiz-adv-x="783" 
d="M219 904h134v-138h-134v138zM432 904h135v-138h-135v138zM393 -8q-156 0 -258 101.5t-102 256.5t102 256.5t258 101.5q155 0 256.5 -102t101.5 -256t-101.5 -256t-256.5 -102zM392 128q88 0 144.5 63t56.5 159t-57 159.5t-144 63.5q-88 0 -144.5 -63t-56.5 -160
q0 -96 56.5 -159t144.5 -63z" />
    <glyph glyph-name="multiply" unicode="&#xd7;" horiz-adv-x="585" 
d="M544 471l-150 -149l150 -150l-102 -101l-150 149l-150 -149l-101 101l150 150l-150 149l101 101l150 -149l150 149z" />
    <glyph glyph-name="Oslash" unicode="&#xd8;" horiz-adv-x="783" 
d="M393 708q155 0 256.5 -102t101.5 -256t-101.5 -256t-256.5 -102q-156 0 -258 101.5t-102 256.5t102 256.5t258 101.5zM392 573q-88 0 -144.5 -63t-56.5 -160q0 -60 23 -109l263 313q-40 19 -85 19zM392 128q88 0 144.5 63t56.5 159q0 64 -27 116l-265 -316q41 -22 91 -22
z" />
    <glyph glyph-name="Ugrave" unicode="&#xd9;" horiz-adv-x="688" 
d="M399 756h-103l-122 148h167zM344 -8q-129 0 -205 68.5t-76 199.5v440h147v-439q0 -66 36.5 -99t97.5 -33t97.5 33t36.5 99v439h147v-440q0 -131 -76 -199.5t-205 -68.5z" />
    <glyph glyph-name="Uacute" unicode="&#xda;" horiz-adv-x="688" 
d="M275 756l58 148h167l-122 -148h-103zM344 -8q-129 0 -205 68.5t-76 199.5v440h147v-439q0 -66 36.5 -99t97.5 -33t97.5 33t36.5 99v439h147v-440q0 -131 -76 -199.5t-205 -68.5z" />
    <glyph glyph-name="Ucircumflex" unicode="&#xdb;" horiz-adv-x="688" 
d="M279 904h127l113 -148h-104l-72 71l-72 -71h-104zM344 -8q-129 0 -205 68.5t-76 199.5v440h147v-439q0 -66 36.5 -99t97.5 -33t97.5 33t36.5 99v439h147v-440q0 -131 -76 -199.5t-205 -68.5z" />
    <glyph glyph-name="Udieresis" unicode="&#xdc;" horiz-adv-x="688" 
d="M170 904h134v-138h-134v138zM383 904h135v-138h-135v138zM344 -8q-129 0 -205 68.5t-76 199.5v440h147v-439q0 -66 36.5 -99t97.5 -33t97.5 33t36.5 99v439h147v-440q0 -131 -76 -199.5t-205 -68.5z" />
    <glyph glyph-name="Yacute" unicode="&#xdd;" horiz-adv-x="634" 
d="M248 756l58 148h167l-122 -148h-103zM238 0v289l-237 411h168l148 -263l149 263h167l-237 -411v-289h-158z" />
    <glyph glyph-name="Thorn" unicode="&#xde;" horiz-adv-x="609" 
d="M64 0v700h158v-137h132q112 0 175 -57.5t63 -155.5t-63 -155.5t-175 -57.5h-132v-137h-158zM222 268h123q95 0 95 82t-95 82h-123v-164z" />
    <glyph glyph-name="germandbls" unicode="&#xdf;" horiz-adv-x="636" 
d="M368 -8q-48 0 -88 8v136q40 -9 74 -9q43 1 68.5 24.5t25.5 61.5q0 92 -137 92h-31v138h28q45 0 71 20.5t26 58.5q0 31 -22.5 51.5t-60.5 20.5t-61.5 -24.5t-23.5 -69.5v-500h-159v305h-55v138h55v55q0 99 71.5 154.5t172.5 55.5q105 0 168 -49.5t63 -126.5q0 -49 -24 -86
t-60 -48q137 -46 137 -190q0 -107 -64 -161.5t-174 -54.5z" />
    <glyph glyph-name="agrave" unicode="&#xe0;" horiz-adv-x="541" 
d="M316 560h-103l-122 148h167zM254 512q106 0 168 -54.5t62 -158.5v-299h-142v64q-22 -33 -61 -52.5t-81 -19.5q-73 0 -120 43t-47 107q0 146 218 169l91 9v3q0 37 -23.5 58.5t-64.5 21.5q-36 0 -60 -21t-28 -57l-128 24q12 73 73 118t143 45zM236 97q48 0 76.5 33t29.5 79
v1v3v4l-94 -11q-36 -4 -55.5 -20t-19.5 -39q0 -22 16.5 -36t46.5 -14z" />
    <glyph glyph-name="aacute" unicode="&#xe1;" horiz-adv-x="541" 
d="M417 708l-122 -148h-103l58 148h167zM254 512q106 0 168 -54.5t62 -158.5v-299h-142v64q-22 -33 -61 -52.5t-81 -19.5q-73 0 -120 43t-47 107q0 146 218 169l91 9v3q0 37 -23.5 58.5t-64.5 21.5q-36 0 -60 -21t-28 -57l-128 24q12 73 73 118t143 45zM236 97q48 0 76.5 33
t29.5 79v1v3v4l-94 -11q-36 -4 -55.5 -20t-19.5 -39q0 -22 16.5 -36t46.5 -14z" />
    <glyph glyph-name="acircumflex" unicode="&#xe2;" horiz-adv-x="541" 
d="M260 631l-72 -71h-104l112 148h127l113 -148h-104zM254 512q106 0 168 -54.5t62 -158.5v-299h-142v64q-22 -33 -61 -52.5t-81 -19.5q-73 0 -120 43t-47 107q0 146 218 169l91 9v3q0 37 -23.5 58.5t-64.5 21.5q-36 0 -60 -21t-28 -57l-128 24q12 73 73 118t143 45zM236 97
q48 0 76.5 33t29.5 79v1v3v4l-94 -11q-36 -4 -55.5 -20t-19.5 -39q0 -22 16.5 -36t46.5 -14z" />
    <glyph glyph-name="atilde" unicode="&#xe3;" horiz-adv-x="541" 
d="M190 614q-30 0 -37 -52l-99 15q2 62 40 101t96 39q46 0 89 -27q4 -3 14 -9.5t13.5 -8t10 -3.5t13.5 -2q30 0 36 52l100 -14q-2 -64 -39.5 -102.5t-96.5 -38.5q-47 0 -88 27q-35 23 -52 23zM254 512q106 0 168 -54.5t62 -158.5v-299h-142v64q-22 -33 -61 -52.5t-81 -19.5
q-73 0 -120 43t-47 107q0 146 218 169l91 9v3q0 37 -23.5 58.5t-64.5 21.5q-36 0 -60 -21t-28 -57l-128 24q12 73 73 118t143 45zM236 97q48 0 76.5 33t29.5 79v1v3v4l-94 -11q-36 -4 -55.5 -20t-19.5 -39q0 -22 16.5 -36t46.5 -14z" />
    <glyph glyph-name="adieresis" unicode="&#xe4;" horiz-adv-x="541" 
d="M221 708v-138h-134v138h134zM435 708v-138h-135v138h135zM254 512q106 0 168 -54.5t62 -158.5v-299h-142v64q-22 -33 -61 -52.5t-81 -19.5q-73 0 -120 43t-47 107q0 146 218 169l91 9v3q0 37 -23.5 58.5t-64.5 21.5q-36 0 -60 -21t-28 -57l-128 24q12 73 73 118t143 45z
M236 97q48 0 76.5 33t29.5 79v1v3v4l-94 -11q-36 -4 -55.5 -20t-19.5 -39q0 -22 16.5 -36t46.5 -14z" />
    <glyph glyph-name="aring" unicode="&#xe5;" horiz-adv-x="541" 
d="M261 539q-52 0 -86 32.5t-34 81.5t34 81t86 32t86 -32t34 -81t-34 -81.5t-86 -32.5zM261 696q-20 0 -32.5 -12t-12.5 -31t12.5 -31t32.5 -12t32.5 12t12.5 31t-12.5 31t-32.5 12zM254 512q106 0 168 -54.5t62 -158.5v-299h-142v64q-22 -33 -61 -52.5t-81 -19.5
q-73 0 -120 43t-47 107q0 146 218 169l91 9v3q0 37 -23.5 58.5t-64.5 21.5q-36 0 -60 -21t-28 -57l-128 24q12 73 73 118t143 45zM236 97q48 0 76.5 33t29.5 79v1v3v4l-94 -11q-36 -4 -55.5 -20t-19.5 -39q0 -22 16.5 -36t46.5 -14z" />
    <glyph glyph-name="ae" unicode="&#xe6;" horiz-adv-x="898" 
d="M867 265q0 -33 -2 -55h-362q22 -96 118 -96q81 0 98 65l138 -37q-22 -71 -86 -110.5t-154 -39.5q-124 0 -196 84q-67 -84 -192 -84q-91 0 -143.5 42.5t-52.5 107.5q0 77 58 122t168 45h94v14q0 37 -26.5 60t-69.5 23q-37 0 -63 -22.5t-28 -56.5l-123 25q13 72 72 116
t142 44q117 0 181 -62q65 62 170 62q65 0 116.5 -22.5t81.5 -59.5t45.5 -79t15.5 -86zM505 314h205q-4 40 -29.5 64.5t-72.5 24.5q-82 0 -103 -89zM243 93q50 0 80 34t30 82h-101q-38 0 -58.5 -17.5t-20.5 -44.5q0 -23 20 -38.5t50 -15.5z" />
    <glyph glyph-name="ccedilla" unicode="&#xe7;" horiz-adv-x="567" 
d="M296 117q78 0 95 76l143 -29q-11 -66 -58.5 -109t-121.5 -57l-59 -146h-167l118 143q-97 14 -155.5 84t-58.5 173q0 115 72 187.5t186 72.5q101 0 167 -48t78 -131l-142 -28q-6 38 -32 60t-65 22q-52 0 -82.5 -36.5t-30.5 -98.5q0 -61 31 -98t82 -37z" />
    <glyph glyph-name="egrave" unicode="&#xe8;" horiz-adv-x="573" 
d="M332 560h-103l-122 148h167zM541 265q0 -33 -2 -55h-362q22 -96 118 -96q81 0 98 65l138 -37q-22 -71 -86 -110.5t-154 -39.5q-122 0 -190.5 78.5t-68.5 181.5q0 66 25 123t83.5 97t141.5 40q65 0 116.5 -22.5t81.5 -59.5t45.5 -79t15.5 -86zM179 314h205
q-4 40 -29.5 64.5t-72.5 24.5q-82 0 -103 -89z" />
    <glyph glyph-name="eacute" unicode="&#xe9;" horiz-adv-x="573" 
d="M433 708l-122 -148h-103l58 148h167zM541 265q0 -33 -2 -55h-362q22 -96 118 -96q81 0 98 65l138 -37q-22 -71 -86 -110.5t-154 -39.5q-122 0 -190.5 78.5t-68.5 181.5q0 66 25 123t83.5 97t141.5 40q65 0 116.5 -22.5t81.5 -59.5t45.5 -79t15.5 -86zM179 314h205
q-4 40 -29.5 64.5t-72.5 24.5q-82 0 -103 -89z" />
    <glyph glyph-name="ecircumflex" unicode="&#xea;" horiz-adv-x="573" 
d="M276 631l-72 -71h-104l112 148h127l113 -148h-104zM541 265q0 -33 -2 -55h-362q22 -96 118 -96q81 0 98 65l138 -37q-22 -71 -86 -110.5t-154 -39.5q-122 0 -190.5 78.5t-68.5 181.5q0 66 25 123t83.5 97t141.5 40q65 0 116.5 -22.5t81.5 -59.5t45.5 -79t15.5 -86z
M179 314h205q-4 40 -29.5 64.5t-72.5 24.5q-82 0 -103 -89z" />
    <glyph glyph-name="edieresis" unicode="&#xeb;" horiz-adv-x="573" 
d="M237 708v-138h-134v138h134zM451 708v-138h-135v138h135zM541 265q0 -33 -2 -55h-362q22 -96 118 -96q81 0 98 65l138 -37q-22 -71 -86 -110.5t-154 -39.5q-122 0 -190.5 78.5t-68.5 181.5q0 66 25 123t83.5 97t141.5 40q65 0 116.5 -22.5t81.5 -59.5t45.5 -79t15.5 -86z
M179 314h205q-4 40 -29.5 64.5t-72.5 24.5q-82 0 -103 -89z" />
    <glyph glyph-name="igrave" unicode="&#xec;" horiz-adv-x="261" 
d="M185 560h-103l-122 148h167zM57 0v504h147v-504h-147z" />
    <glyph glyph-name="iacute" unicode="&#xed;" horiz-adv-x="261" 
d="M61 560l58 148h167l-122 -148h-103zM57 0v504h147v-504h-147z" />
    <glyph glyph-name="icircumflex" unicode="&#xee;" horiz-adv-x="261" 
d="M65 708h127l113 -148h-104l-72 71l-72 -71h-104zM57 0v504h147v-504h-147z" />
    <glyph glyph-name="idieresis" unicode="&#xef;" horiz-adv-x="261" 
d="M-44 708h134v-138h-134v138zM169 708h135v-138h-135v138zM57 0v504h147v-504h-147z" />
    <glyph glyph-name="eth" unicode="&#xf0;" horiz-adv-x="605" 
d="M624 658v-98h-74v-291q0 -130 -68 -203.5t-189 -73.5q-118 0 -189.5 71.5t-71.5 188.5q0 119 63 189.5t172 70.5q90 0 136 -56v104h-109v98h109v50h147v-50h74zM293 117q54 0 86.5 37t32.5 98t-32.5 98t-86.5 37q-53 0 -85.5 -37t-32.5 -98t32.5 -98t85.5 -37z" />
    <glyph glyph-name="ntilde" unicode="&#xf1;" horiz-adv-x="600" 
d="M190 562l-99 15q2 62 40 101t96 39q46 0 89 -27q4 -3 14 -9.5t13.5 -8t10 -3.5t13.5 -2q30 0 36 52l100 -14q-2 -64 -39.5 -102.5t-96.5 -38.5q-47 0 -88 27q-35 23 -52 23q-30 0 -37 -52zM57 0v504h147v-67q51 75 154 75q83 0 134 -50t51 -133v-329h-146v290
q0 41 -23.5 66.5t-63.5 25.5q-106 0 -106 -161v-221h-147z" />
    <glyph glyph-name="ograve" unicode="&#xf2;" horiz-adv-x="595" 
d="M353 560h-103l-122 148h167zM298 -8q-117 0 -191.5 73.5t-74.5 186.5t74.5 186.5t191.5 73.5q115 0 190.5 -73.5t75.5 -186.5t-75.5 -186.5t-190.5 -73.5zM298 117q53 0 86 37.5t33 97.5t-33 97.5t-86 37.5q-54 0 -87 -37.5t-33 -97.5t33 -97.5t87 -37.5z" />
    <glyph glyph-name="oacute" unicode="&#xf3;" horiz-adv-x="595" 
d="M229 560l58 148h167l-122 -148h-103zM298 -8q-117 0 -191.5 73.5t-74.5 186.5t74.5 186.5t191.5 73.5q115 0 190.5 -73.5t75.5 -186.5t-75.5 -186.5t-190.5 -73.5zM298 117q53 0 86 37.5t33 97.5t-33 97.5t-86 37.5q-54 0 -87 -37.5t-33 -97.5t33 -97.5t87 -37.5z" />
    <glyph glyph-name="ocircumflex" unicode="&#xf4;" horiz-adv-x="595" 
d="M233 708h127l113 -148h-104l-72 71l-72 -71h-104zM298 -8q-117 0 -191.5 73.5t-74.5 186.5t74.5 186.5t191.5 73.5q115 0 190.5 -73.5t75.5 -186.5t-75.5 -186.5t-190.5 -73.5zM298 117q53 0 86 37.5t33 97.5t-33 97.5t-86 37.5q-54 0 -87 -37.5t-33 -97.5t33 -97.5
t87 -37.5z" />
    <glyph glyph-name="otilde" unicode="&#xf5;" horiz-adv-x="595" 
d="M190 562l-99 15q2 62 40 101t96 39q46 0 89 -27q4 -3 14 -9.5t13.5 -8t10 -3.5t13.5 -2q30 0 36 52l100 -14q-2 -64 -39.5 -102.5t-96.5 -38.5q-47 0 -88 27q-35 23 -52 23q-30 0 -37 -52zM298 -8q-117 0 -191.5 73.5t-74.5 186.5t74.5 186.5t191.5 73.5
q115 0 190.5 -73.5t75.5 -186.5t-75.5 -186.5t-190.5 -73.5zM298 117q53 0 86 37.5t33 97.5t-33 97.5t-86 37.5q-54 0 -87 -37.5t-33 -97.5t33 -97.5t87 -37.5z" />
    <glyph glyph-name="odieresis" unicode="&#xf6;" horiz-adv-x="595" 
d="M124 708h134v-138h-134v138zM337 708h135v-138h-135v138zM298 -8q-117 0 -191.5 73.5t-74.5 186.5t74.5 186.5t191.5 73.5q115 0 190.5 -73.5t75.5 -186.5t-75.5 -186.5t-190.5 -73.5zM298 117q53 0 86 37.5t33 97.5t-33 97.5t-86 37.5q-54 0 -87 -37.5t-33 -97.5
t33 -97.5t87 -37.5z" />
    <glyph glyph-name="divide" unicode="&#xf7;" horiz-adv-x="555" 
d="M202 612h151v-146h-151v146zM31 258v125h493v-125h-493zM202 167h151v-146h-151v146z" />
    <glyph glyph-name="oslash" unicode="&#xf8;" horiz-adv-x="595" 
d="M298 512q115 0 190.5 -73.5t75.5 -186.5t-75.5 -186.5t-190.5 -73.5q-117 0 -191.5 73.5t-74.5 186.5t74.5 186.5t191.5 73.5zM298 387q-54 0 -87 -37.5t-33 -97.5q0 -31 10 -59l156 185q-21 9 -46 9zM298 117q53 0 86 37.5t33 97.5q0 36 -13 67l-161 -190q24 -12 55 -12
z" />
    <glyph glyph-name="ugrave" unicode="&#xf9;" horiz-adv-x="600" 
d="M350 560h-103l-122 148h167zM543 504v-504h-147v67q-51 -75 -154 -75q-83 0 -134 50t-51 133v329h146v-290q0 -41 23.5 -66.5t63.5 -25.5q106 0 106 161v221h147z" />
    <glyph glyph-name="uacute" unicode="&#xfa;" horiz-adv-x="600" 
d="M226 560l58 148h167l-122 -148h-103zM543 504v-504h-147v67q-51 -75 -154 -75q-83 0 -134 50t-51 133v329h146v-290q0 -41 23.5 -66.5t63.5 -25.5q106 0 106 161v221h147z" />
    <glyph glyph-name="ucircumflex" unicode="&#xfb;" horiz-adv-x="600" 
d="M230 708h127l113 -148h-104l-72 71l-72 -71h-104zM543 504v-504h-147v67q-51 -75 -154 -75q-83 0 -134 50t-51 133v329h146v-290q0 -41 23.5 -66.5t63.5 -25.5q106 0 106 161v221h147z" />
    <glyph glyph-name="udieresis" unicode="&#xfc;" horiz-adv-x="600" 
d="M121 708h134v-138h-134v138zM334 708h135v-138h-135v138zM543 504v-504h-147v67q-51 -75 -154 -75q-83 0 -134 50t-51 133v329h146v-290q0 -41 23.5 -66.5t63.5 -25.5q106 0 106 161v221h147z" />
    <glyph glyph-name="yacute" unicode="&#xfd;" horiz-adv-x="542" 
d="M427 708l-122 -148h-103l58 148h167zM386 504h150l-266 -686h-150l80 207l-194 479h159l108 -292z" />
    <glyph glyph-name="thorn" unicode="&#xfe;" 
d="M57 -204v905h147v-245q53 56 141 56q105 0 168 -71t63 -189t-67 -189t-176 -71q-90 0 -129 45v-241h-147zM313 117q55 0 87 35t32 100t-32.5 100t-86.5 35t-86 -35t-32 -100t31.5 -100t86.5 -35z" />
    <glyph glyph-name="ydieresis" unicode="&#xff;" horiz-adv-x="542" 
d="M231 708v-138h-134v138h134zM445 708v-138h-135v138h135zM386 504h150l-266 -686h-150l80 207l-194 479h159l108 -292z" />
    <glyph glyph-name="Amacron" unicode="&#x100;" horiz-adv-x="691" 
d="M487 887v-110h-283v110h283zM522 0l-51 144h-250l-51 -144h-164l265 700h149l265 -700h-163zM269 276h154l-77 217z" />
    <glyph glyph-name="amacron" unicode="&#x101;" horiz-adv-x="541" 
d="M402 691v-110h-283v110h283zM254 512q106 0 168 -54.5t62 -158.5v-299h-142v64q-22 -33 -61 -52.5t-81 -19.5q-73 0 -120 43t-47 107q0 146 218 169l91 9v3q0 37 -23.5 58.5t-64.5 21.5q-36 0 -60 -21t-28 -57l-128 24q12 73 73 118t143 45zM236 97q48 0 76.5 33t29.5 79
v1v3v4l-94 -11q-36 -4 -55.5 -20t-19.5 -39q0 -22 16.5 -36t46.5 -14z" />
    <glyph glyph-name="Abreve" unicode="&#x102;" horiz-adv-x="691" 
d="M346 753q-62 0 -102.5 39.5t-40.5 99.5h105q0 -47 38 -47q19 0 29.5 12.5t10.5 34.5h105q0 -60 -41 -99.5t-104 -39.5zM522 0l-51 144h-250l-51 -144h-164l265 700h149l265 -700h-163zM269 276h154l-77 217z" />
    <glyph glyph-name="abreve" unicode="&#x103;" horiz-adv-x="541" 
d="M261 557q-62 0 -102.5 39.5t-40.5 99.5h105q0 -47 38 -47q19 0 29.5 12.5t10.5 34.5h105q0 -60 -41 -99.5t-104 -39.5zM254 512q106 0 168 -54.5t62 -158.5v-299h-142v64q-22 -33 -61 -52.5t-81 -19.5q-73 0 -120 43t-47 107q0 146 218 169l91 9v3q0 37 -23.5 58.5
t-64.5 21.5q-36 0 -60 -21t-28 -57l-128 24q12 73 73 118t143 45zM236 97q48 0 76.5 33t29.5 79v1v3v4l-94 -11q-36 -4 -55.5 -20t-19.5 -39q0 -22 16.5 -36t46.5 -14z" />
    <glyph glyph-name="Aogonek" unicode="&#x104;" horiz-adv-x="691" 
d="M628 -90q14 0 23 3l13 -96q-19 -7 -59 -7q-56 0 -90 28.5t-34 74.5q0 49 39 91l-49 140h-250l-51 -144h-164l265 700h149l265 -700h-62q-30 -32 -30 -58q0 -32 35 -32zM269 276h154l-77 217z" />
    <glyph glyph-name="aogonek" unicode="&#x105;" horiz-adv-x="541" 
d="M512 -87l13 -96q-19 -7 -59 -7q-56 0 -90 28.5t-34 74.5q0 45 35 87h-35v64q-22 -33 -61 -52.5t-81 -19.5q-73 0 -120 43t-47 107q0 146 218 169l91 9v3q0 37 -23.5 58.5t-64.5 21.5q-36 0 -60 -21t-28 -57l-128 24q12 73 73 118t143 45q106 0 168 -54.5t62 -158.5v-299
q-30 -32 -30 -58q0 -32 35 -32q14 0 23 3zM236 97q48 0 76.5 33t29.5 79v1v3v4l-94 -11q-36 -4 -55.5 -20t-19.5 -39q0 -22 16.5 -36t46.5 -14z" />
    <glyph glyph-name="Cacute" unicode="&#x106;" horiz-adv-x="738" 
d="M309 756l58 148h167l-122 -148h-103zM385 -8q-150 0 -251 94t-101 264q0 169 101.5 263.5t250.5 94.5q131 0 216.5 -65t100.5 -174l-157 -33q-12 63 -56 100t-105 37q-83 0 -137.5 -58.5t-54.5 -164.5t54 -164t138 -58q61 0 103 32.5t54 89.5l159 -36q-25 -104 -108 -163
t-207 -59z" />
    <glyph glyph-name="cacute" unicode="&#x107;" horiz-adv-x="567" 
d="M220 560l58 148h167l-122 -148h-103zM290 -8q-114 0 -186 72.5t-72 187.5t72 187.5t186 72.5q101 0 167 -48t78 -131l-142 -28q-6 38 -32 60t-65 22q-52 0 -82.5 -36.5t-30.5 -98.5q0 -61 31 -98t82 -37q78 0 95 76l143 -29q-14 -80 -79 -126t-165 -46z" />
    <glyph glyph-name="Ccircumflex" unicode="&#x108;" horiz-adv-x="738" 
d="M313 904h127l113 -148h-104l-72 71l-72 -71h-104zM385 -8q-150 0 -251 94t-101 264q0 169 101.5 263.5t250.5 94.5q131 0 216.5 -65t100.5 -174l-157 -33q-12 63 -56 100t-105 37q-83 0 -137.5 -58.5t-54.5 -164.5t54 -164t138 -58q61 0 103 32.5t54 89.5l159 -36
q-25 -104 -108 -163t-207 -59z" />
    <glyph glyph-name="ccircumflex" unicode="&#x109;" horiz-adv-x="567" 
d="M224 708h127l113 -148h-104l-72 71l-72 -71h-104zM290 -8q-114 0 -186 72.5t-72 187.5t72 187.5t186 72.5q101 0 167 -48t78 -131l-142 -28q-6 38 -32 60t-65 22q-52 0 -82.5 -36.5t-30.5 -98.5q0 -61 31 -98t82 -37q78 0 95 76l143 -29q-14 -80 -79 -126t-165 -46z" />
    <glyph glyph-name="Cdotaccent" unicode="&#x10a;" horiz-adv-x="738" 
d="M302 904h155v-141h-155v141zM385 -8q-150 0 -251 94t-101 264q0 169 101.5 263.5t250.5 94.5q131 0 216.5 -65t100.5 -174l-157 -33q-12 63 -56 100t-105 37q-83 0 -137.5 -58.5t-54.5 -164.5t54 -164t138 -58q61 0 103 32.5t54 89.5l159 -36q-25 -104 -108 -163
t-207 -59z" />
    <glyph glyph-name="cdotaccent" unicode="&#x10b;" horiz-adv-x="567" 
d="M213 708h155v-141h-155v141zM290 -8q-114 0 -186 72.5t-72 187.5t72 187.5t186 72.5q101 0 167 -48t78 -131l-142 -28q-6 38 -32 60t-65 22q-52 0 -82.5 -36.5t-30.5 -98.5q0 -61 31 -98t82 -37q78 0 95 76l143 -29q-14 -80 -79 -126t-165 -46z" />
    <glyph glyph-name="Ccaron" unicode="&#x10c;" horiz-adv-x="738" 
d="M314 756l-112 148h104l72 -71l72 71h104l-113 -148h-127zM385 -8q-150 0 -251 94t-101 264q0 169 101.5 263.5t250.5 94.5q131 0 216.5 -65t100.5 -174l-157 -33q-12 63 -56 100t-105 37q-83 0 -137.5 -58.5t-54.5 -164.5t54 -164t138 -58q61 0 103 32.5t54 89.5l159 -36
q-25 -104 -108 -163t-207 -59z" />
    <glyph glyph-name="ccaron" unicode="&#x10d;" horiz-adv-x="567" 
d="M225 560l-112 148h104l72 -71l72 71h104l-113 -148h-127zM290 -8q-114 0 -186 72.5t-72 187.5t72 187.5t186 72.5q101 0 167 -48t78 -131l-142 -28q-6 38 -32 60t-65 22q-52 0 -82.5 -36.5t-30.5 -98.5q0 -61 31 -98t82 -37q78 0 95 76l143 -29q-14 -80 -79 -126
t-165 -46z" />
    <glyph glyph-name="Dcaron" unicode="&#x10e;" horiz-adv-x="697" 
d="M247 756l-112 148h104l72 -71l72 71h104l-113 -148h-127zM63 0v700h239q74 0 138 -21.5t115 -63t80.5 -110t29.5 -155.5t-29.5 -155.5t-80.5 -110t-115 -63t-138 -21.5h-239zM218 136h67q45 0 82.5 11t70 35t50.5 67t18 101q0 113 -63 164t-158 51h-67v-429z" />
    <glyph glyph-name="dcaron" unicode="&#x10f;" horiz-adv-x="748" 
d="M591 560l31 192h137l-85 -192h-83zM269 -8q-110 0 -173.5 70.5t-63.5 189.5t63 189.5t172 70.5q90 0 136 -56v252h147v-708h-147v50q-42 -58 -134 -58zM293 117q54 0 86.5 37t32.5 98t-32.5 98t-86.5 37q-53 0 -85.5 -37t-32.5 -98t32.5 -98t85.5 -37z" />
    <glyph glyph-name="Dcroat" unicode="&#x110;" horiz-adv-x="697" 
d="M302 700q74 0 138 -21.5t115 -63t80.5 -110t29.5 -155.5t-29.5 -155.5t-80.5 -110t-115 -63t-138 -21.5h-239v301h-64v98h64v301h239zM285 136q45 0 82.5 11t70 35t50.5 67t18 101q0 113 -63 164t-158 51h-67v-166h111v-98h-111v-165h67z" />
    <glyph glyph-name="dcroat" unicode="&#x111;" 
d="M623 658v-98h-73v-560h-147v50q-42 -58 -134 -58q-110 0 -173.5 70.5t-63.5 189.5t63 189.5t172 70.5q90 0 136 -56v104h-110v98h110v50h147v-50h73zM293 117q54 0 86.5 37t32.5 98t-32.5 98t-86.5 37q-53 0 -85.5 -37t-32.5 -98t32.5 -98t85.5 -37z" />
    <glyph glyph-name="Emacron" unicode="&#x112;" horiz-adv-x="587" 
d="M167 777v110h283v-110h-283zM63 0v700h481v-135h-323v-128h256v-136h-256v-165h334v-136h-492z" />
    <glyph glyph-name="emacron" unicode="&#x113;" horiz-adv-x="573" 
d="M418 691v-110h-283v110h283zM541 265q0 -33 -2 -55h-362q22 -96 118 -96q81 0 98 65l138 -37q-22 -71 -86 -110.5t-154 -39.5q-122 0 -190.5 78.5t-68.5 181.5q0 66 25 123t83.5 97t141.5 40q65 0 116.5 -22.5t81.5 -59.5t45.5 -79t15.5 -86zM179 314h205
q-4 40 -29.5 64.5t-72.5 24.5q-82 0 -103 -89z" />
    <glyph glyph-name="Ebreve" unicode="&#x114;" horiz-adv-x="587" 
d="M309 753q-62 0 -102.5 39.5t-40.5 99.5h105q0 -47 38 -47q19 0 29.5 12.5t10.5 34.5h105q0 -60 -41 -99.5t-104 -39.5zM63 0v700h481v-135h-323v-128h256v-136h-256v-165h334v-136h-492z" />
    <glyph glyph-name="ebreve" unicode="&#x115;" horiz-adv-x="573" 
d="M277 557q-62 0 -102.5 39.5t-40.5 99.5h105q0 -47 38 -47q19 0 29.5 12.5t10.5 34.5h105q0 -60 -41 -99.5t-104 -39.5zM541 265q0 -33 -2 -55h-362q22 -96 118 -96q81 0 98 65l138 -37q-22 -71 -86 -110.5t-154 -39.5q-122 0 -190.5 78.5t-68.5 181.5q0 66 25 123
t83.5 97t141.5 40q65 0 116.5 -22.5t81.5 -59.5t45.5 -79t15.5 -86zM179 314h205q-4 40 -29.5 64.5t-72.5 24.5q-82 0 -103 -89z" />
    <glyph glyph-name="Edotaccent" unicode="&#x116;" horiz-adv-x="587" 
d="M233 904h155v-141h-155v141zM63 0v700h481v-135h-323v-128h256v-136h-256v-165h334v-136h-492z" />
    <glyph glyph-name="edotaccent" unicode="&#x117;" horiz-adv-x="573" 
d="M356 708v-141h-155v141h155zM541 265q0 -33 -2 -55h-362q22 -96 118 -96q81 0 98 65l138 -37q-22 -71 -86 -110.5t-154 -39.5q-122 0 -190.5 78.5t-68.5 181.5q0 66 25 123t83.5 97t141.5 40q65 0 116.5 -22.5t81.5 -59.5t45.5 -79t15.5 -86zM179 314h205
q-4 40 -29.5 64.5t-72.5 24.5q-82 0 -103 -89z" />
    <glyph glyph-name="Eogonek" unicode="&#x118;" horiz-adv-x="587" 
d="M583 -87l13 -96q-19 -7 -59 -7q-56 0 -90 28.5t-34 74.5q0 45 35 87h-385v700h481v-135h-323v-128h256v-136h-256v-165h334v-136q-30 -32 -30 -58q0 -32 35 -32q14 0 23 3z" />
    <glyph glyph-name="eogonek" unicode="&#x119;" horiz-adv-x="573" 
d="M541 265q0 -33 -2 -55h-362q22 -96 118 -96q81 0 98 65l138 -37q-37 -116 -171 -143q-29 -34 -29 -57q0 -32 35 -32q14 0 23 3l13 -96q-19 -7 -59 -7q-56 0 -90 28.5t-34 74.5q0 41 31 82q-103 13 -160.5 88.5t-57.5 168.5q0 66 25 123t83.5 97t141.5 40
q65 0 116.5 -22.5t81.5 -59.5t45.5 -79t15.5 -86zM179 314h205q-4 40 -29.5 64.5t-72.5 24.5q-82 0 -103 -89z" />
    <glyph glyph-name="Ecaron" unicode="&#x11a;" horiz-adv-x="587" 
d="M245 756l-112 148h104l72 -71l72 71h104l-113 -148h-127zM63 0v700h481v-135h-323v-128h256v-136h-256v-165h334v-136h-492z" />
    <glyph glyph-name="ecaron" unicode="&#x11b;" horiz-adv-x="573" 
d="M340 560h-127l-112 148h104l72 -71l72 71h104zM541 265q0 -33 -2 -55h-362q22 -96 118 -96q81 0 98 65l138 -37q-22 -71 -86 -110.5t-154 -39.5q-122 0 -190.5 78.5t-68.5 181.5q0 66 25 123t83.5 97t141.5 40q65 0 116.5 -22.5t81.5 -59.5t45.5 -79t15.5 -86zM179 314
h205q-4 40 -29.5 64.5t-72.5 24.5q-82 0 -103 -89z" />
    <glyph glyph-name="Gcircumflex" unicode="&#x11c;" horiz-adv-x="757" 
d="M315 904h127l113 -148h-104l-72 71l-72 -71h-104zM378 -8q-144 0 -244.5 94t-100.5 264t104 264t253 94q131 0 216.5 -63.5t105.5 -175.5l-156 -32q-12 62 -57.5 99t-110.5 37q-89 0 -143 -59.5t-54 -163.5t54 -163t141 -59q69 0 115 35t53 92h-190v126h336v-381h-144v73
q-22 -37 -70.5 -59t-107.5 -22z" />
    <glyph glyph-name="gcircumflex" unicode="&#x11d;" horiz-adv-x="595" 
d="M285 631l-72 -71h-104l112 148h127l113 -148h-104zM392 504h145v-468q0 -101 -71 -163.5t-187 -62.5q-89 0 -154.5 44t-78.5 115l134 21q5 -30 33 -47.5t66 -17.5q51 0 82.5 26.5t31.5 68.5v48q-41 -52 -130 -52q-107 0 -169 67t-62 181t61.5 181t166.5 67q88 0 132 -51
v43zM287 141q52 0 82.5 33.5t30.5 89.5t-30.5 89.5t-82.5 33.5q-51 0 -81.5 -33.5t-30.5 -89.5t30.5 -89.5t81.5 -33.5z" />
    <glyph glyph-name="Gbreve" unicode="&#x11e;" horiz-adv-x="757" 
d="M380 753q-62 0 -102.5 39.5t-40.5 99.5h105q0 -47 38 -47q19 0 29.5 12.5t10.5 34.5h105q0 -60 -41 -99.5t-104 -39.5zM378 -8q-144 0 -244.5 94t-100.5 264t104 264t253 94q131 0 216.5 -63.5t105.5 -175.5l-156 -32q-12 62 -57.5 99t-110.5 37q-89 0 -143 -59.5
t-54 -163.5t54 -163t141 -59q69 0 115 35t53 92h-190v126h336v-381h-144v73q-22 -37 -70.5 -59t-107.5 -22z" />
    <glyph glyph-name="gbreve" unicode="&#x11f;" horiz-adv-x="595" 
d="M286 557q-62 0 -102.5 39.5t-40.5 99.5h105q0 -47 38 -47q19 0 29.5 12.5t10.5 34.5h105q0 -60 -41 -99.5t-104 -39.5zM392 504h145v-468q0 -101 -71 -163.5t-187 -62.5q-89 0 -154.5 44t-78.5 115l134 21q5 -30 33 -47.5t66 -17.5q51 0 82.5 26.5t31.5 68.5v48
q-41 -52 -130 -52q-107 0 -169 67t-62 181t61.5 181t166.5 67q88 0 132 -51v43zM287 141q52 0 82.5 33.5t30.5 89.5t-30.5 89.5t-82.5 33.5q-51 0 -81.5 -33.5t-30.5 -89.5t30.5 -89.5t81.5 -33.5z" />
    <glyph glyph-name="Gdotaccent" unicode="&#x120;" horiz-adv-x="757" 
d="M304 904h155v-141h-155v141zM378 -8q-144 0 -244.5 94t-100.5 264t104 264t253 94q131 0 216.5 -63.5t105.5 -175.5l-156 -32q-12 62 -57.5 99t-110.5 37q-89 0 -143 -59.5t-54 -163.5t54 -163t141 -59q69 0 115 35t53 92h-190v126h336v-381h-144v73q-22 -37 -70.5 -59
t-107.5 -22z" />
    <glyph glyph-name="gdotaccent" unicode="&#x121;" horiz-adv-x="595" 
d="M365 708v-141h-155v141h155zM392 504h145v-468q0 -101 -71 -163.5t-187 -62.5q-89 0 -154.5 44t-78.5 115l134 21q5 -30 33 -47.5t66 -17.5q51 0 82.5 26.5t31.5 68.5v48q-41 -52 -130 -52q-107 0 -169 67t-62 181t61.5 181t166.5 67q88 0 132 -51v43zM287 141
q52 0 82.5 33.5t30.5 89.5t-30.5 89.5t-82.5 33.5q-51 0 -81.5 -33.5t-30.5 -89.5t30.5 -89.5t81.5 -33.5z" />
    <glyph glyph-name="Gcommaaccent" unicode="&#x122;" horiz-adv-x="757" 
d="M378 -8q-144 0 -244.5 94t-100.5 264t104 264t253 94q131 0 216.5 -63.5t105.5 -175.5l-156 -32q-12 62 -57.5 99t-110.5 37q-89 0 -143 -59.5t-54 -163.5t54 -163t141 -59q69 0 115 35t53 92h-190v126h336v-381h-144v73q-22 -37 -70.5 -59t-107.5 -22zM264 -190l36 148
h157l-90 -148h-103z" />
    <glyph glyph-name="gcommaaccent" unicode="&#x123;" horiz-adv-x="595" 
d="M406 708l-25 -148h-152l64 148h113zM392 504h145v-468q0 -101 -71 -163.5t-187 -62.5q-89 0 -154.5 44t-78.5 115l134 21q5 -30 33 -47.5t66 -17.5q51 0 82.5 26.5t31.5 68.5v48q-41 -52 -130 -52q-107 0 -169 67t-62 181t61.5 181t166.5 67q88 0 132 -51v43zM287 141
q52 0 82.5 33.5t30.5 89.5t-30.5 89.5t-82.5 33.5q-51 0 -81.5 -33.5t-30.5 -89.5t30.5 -89.5t81.5 -33.5z" />
    <glyph glyph-name="Hcircumflex" unicode="&#x124;" horiz-adv-x="721" 
d="M359 827l-72 -71h-104l112 148h127l113 -148h-104zM499 700h159v-700h-159v293h-278v-293h-158v700h158v-272h278v272z" />
    <glyph glyph-name="hcircumflex" unicode="&#x125;" horiz-adv-x="602" 
d="M66 904h127l113 -148h-104l-72 71l-72 -71h-104zM57 0v708h147v-272q50 76 153 76q86 0 137 -50t51 -134v-328h-146v290q0 42 -24 67t-65 25q-106 0 -106 -162v-220h-147z" />
    <glyph glyph-name="Hbar" unicode="&#x126;" horiz-adv-x="721" 
d="M717 623v-115h-59v-508h-159v293h-278v-293h-158v508h-61v115h61v77h158v-77h278v77h159v-77h59zM499 428v80h-278v-80h278z" />
    <glyph glyph-name="hbar" unicode="&#x127;" horiz-adv-x="602" 
d="M357 512q86 0 137 -50t51 -134v-328h-146v290q0 42 -24 67t-65 25q-106 0 -106 -162v-220h-147v560h-68v98h68v50h147v-50h115v-98h-115v-124q50 76 153 76z" />
    <glyph glyph-name="Itilde" unicode="&#x128;" horiz-adv-x="284" 
d="M34 758l-99 15q2 62 40 101t96 39q46 0 89 -27q4 -3 14 -9.5t13.5 -8t10 -3.5t13.5 -2q30 0 36 52l100 -14q-2 -64 -39.5 -102.5t-96.5 -38.5q-47 0 -88 27q-35 23 -52 23q-30 0 -37 -52zM63 0v700h158v-700h-158z" />
    <glyph glyph-name="itilde" unicode="&#x129;" horiz-adv-x="261" 
d="M22 562l-99 15q2 62 40 101t96 39q46 0 89 -27q4 -3 14 -9.5t13.5 -8t10 -3.5t13.5 -2q30 0 36 52l100 -14q-2 -64 -39.5 -102.5t-96.5 -38.5q-47 0 -88 27q-35 23 -52 23q-30 0 -37 -52zM57 0v504h147v-504h-147z" />
    <glyph glyph-name="Imacron" unicode="&#x12a;" horiz-adv-x="284" 
d="M0 777v110h283v-110h-283zM63 0v700h158v-700h-158z" />
    <glyph glyph-name="imacron" unicode="&#x12b;" horiz-adv-x="261" 
d="M-12 581v110h283v-110h-283zM57 0v504h147v-504h-147z" />
    <glyph glyph-name="Ibreve" unicode="&#x12c;" horiz-adv-x="284" 
d="M142 753q-62 0 -102.5 39.5t-40.5 99.5h105q0 -47 38 -47q19 0 29.5 12.5t10.5 34.5h105q0 -60 -41 -99.5t-104 -39.5zM63 0v700h158v-700h-158z" />
    <glyph glyph-name="ibreve" unicode="&#x12d;" horiz-adv-x="261" 
d="M130 557q-62 0 -102.5 39.5t-40.5 99.5h105q0 -47 38 -47q19 0 29.5 12.5t10.5 34.5h105q0 -60 -41 -99.5t-104 -39.5zM57 0v504h147v-504h-147z" />
    <glyph glyph-name="Iogonek" unicode="&#x12e;" horiz-adv-x="284" 
d="M249 -87l13 -96q-19 -7 -59 -7q-56 0 -90 28.5t-34 74.5q0 45 35 87h-51v700h158v-700q-30 -32 -30 -58q0 -32 35 -32q14 0 23 3z" />
    <glyph glyph-name="iogonek" unicode="&#x12f;" horiz-adv-x="261" 
d="M209 708v-141h-155v141h155zM232 -87l13 -96q-19 -7 -59 -7q-56 0 -90 28.5t-34 74.5q0 45 35 87h-40v504h147v-504q-30 -32 -30 -58q0 -32 35 -32q14 0 23 3z" />
    <glyph glyph-name="Idotaccent" unicode="&#x130;" horiz-adv-x="284" 
d="M66 904h155v-141h-155v141zM63 0v700h158v-700h-158z" />
    <glyph glyph-name="dotlessi" unicode="&#x131;" horiz-adv-x="261" 
d="M57 0v504h147v-504h-147z" />
    <glyph glyph-name="IJ" unicode="&#x132;" horiz-adv-x="657" 
d="M63 0v700h158v-700h-158zM309 138q25 -5 44 -5q90 0 90 91v476h150v-482q0 -110 -54.5 -166.5t-148.5 -56.5q-47 0 -81 8v135z" />
    <glyph glyph-name="Jcircumflex" unicode="&#x134;" horiz-adv-x="373" 
d="M168 904h127l113 -148h-104l-72 71l-72 -71h-104zM25 138q25 -5 44 -5q90 0 90 91v476h150v-482q0 -110 -54.5 -166.5t-148.5 -56.5q-47 0 -81 8v135z" />
    <glyph glyph-name="jcircumflex" unicode="&#x135;" horiz-adv-x="265" 
d="M74 708h127l113 -148h-104l-72 71l-72 -71h-104zM8 -190l-37 2l-3 126q13 -1 23 -1q75 0 75 91v476h146v-496q0 -91 -55.5 -144.5t-148.5 -53.5z" />
    <glyph glyph-name="Kcommaaccent" unicode="&#x136;" horiz-adv-x="694" 
d="M399 419l291 -419h-199l-202 305l-68 -72v-233h-158v700h158v-256l239 256h207zM223 -190l36 148h157l-90 -148h-103z" />
    <glyph glyph-name="kcommaaccent" unicode="&#x137;" horiz-adv-x="577" 
d="M358 306l214 -306h-175l-137 208l-55 -55v-153h-148v708h148v-369l168 165h184zM163 -190l36 148h157l-90 -148h-103z" />
    <glyph glyph-name="kgreenlandic" unicode="&#x138;" horiz-adv-x="577" 
d="M397 0l-137 209l-55 -55v-154h-148v504h148v-166l168 166h183l-198 -198l214 -306h-175z" />
    <glyph glyph-name="Lacute" unicode="&#x139;" horiz-adv-x="546" 
d="M73 756l58 148h167l-122 -148h-103zM63 0v700h158v-564h314v-136h-472z" />
    <glyph glyph-name="lacute" unicode="&#x13a;" horiz-adv-x="261" 
d="M61 756l58 148h167l-122 -148h-103zM57 0v708h147v-708h-147z" />
    <glyph glyph-name="Lcommaaccent" unicode="&#x13b;" horiz-adv-x="546" 
d="M63 0v700h158v-564h314v-136h-472zM166 -190l36 148h157l-90 -148h-103z" />
    <glyph glyph-name="lcommaaccent" unicode="&#x13c;" horiz-adv-x="261" 
d="M57 0v708h147v-708h-147zM19 -190l36 148h157l-90 -148h-103z" />
    <glyph glyph-name="Lcaron" unicode="&#x13d;" horiz-adv-x="546" 
d="M272 560l31 192h137l-85 -192h-83zM63 0v700h158v-564h314v-136h-472z" />
    <glyph glyph-name="lcaron" unicode="&#x13e;" horiz-adv-x="402" 
d="M245 560l31 192h137l-85 -192h-83zM57 0v708h147v-708h-147z" />
    <glyph glyph-name="Ldot" unicode="&#x13f;" horiz-adv-x="546" 
d="M63 0v700h158v-564h314v-136h-472zM337 442h151v-146h-151v146z" />
    <glyph glyph-name="ldot" unicode="&#x140;" horiz-adv-x="457" 
d="M57 0v708h147v-708h-147zM248 420h151v-146h-151v146z" />
    <glyph glyph-name="Lslash" unicode="&#x141;" horiz-adv-x="575" 
d="M249 136h314v-136h-472v244l-83 -39v122l83 39v334h158v-261l143 67v-121l-143 -67v-182z" />
    <glyph glyph-name="lslash" unicode="&#x142;" horiz-adv-x="323" 
d="M321 503v-122l-86 -40v-341h-147v272l-85 -40v122l85 40v314h147v-245z" />
    <glyph glyph-name="Nacute" unicode="&#x143;" horiz-adv-x="702" 
d="M282 756l58 148h167l-122 -148h-103zM63 0v700h157l272 -450v450h147v-700h-157l-272 450v-450h-147z" />
    <glyph glyph-name="nacute" unicode="&#x144;" horiz-adv-x="600" 
d="M229 560l58 148h167l-122 -148h-103zM57 0v504h147v-67q51 75 154 75q83 0 134 -50t51 -133v-329h-146v290q0 41 -23.5 66.5t-63.5 25.5q-106 0 -106 -161v-221h-147z" />
    <glyph glyph-name="Ncommaaccent" unicode="&#x145;" horiz-adv-x="702" 
d="M63 0v700h157l272 -450v450h147v-700h-157l-272 450v-450h-147zM240 -190l36 148h157l-90 -148h-103z" />
    <glyph glyph-name="ncommaaccent" unicode="&#x146;" horiz-adv-x="600" 
d="M57 0v504h147v-67q51 75 154 75q83 0 134 -50t51 -133v-329h-146v290q0 41 -23.5 66.5t-63.5 25.5q-106 0 -106 -161v-221h-147zM187 -190l36 148h157l-90 -148h-103z" />
    <glyph glyph-name="Ncaron" unicode="&#x147;" horiz-adv-x="702" 
d="M287 756l-112 148h104l72 -71l72 71h104l-113 -148h-127zM63 0v700h157l272 -450v450h147v-700h-157l-272 450v-450h-147z" />
    <glyph glyph-name="ncaron" unicode="&#x148;" horiz-adv-x="600" 
d="M234 560l-112 148h104l72 -71l72 71h104l-113 -148h-127zM57 0v504h147v-67q51 75 154 75q83 0 134 -50t51 -133v-329h-146v290q0 41 -23.5 66.5t-63.5 25.5q-106 0 -106 -161v-221h-147z" />
    <glyph glyph-name="napostrophe" unicode="&#x149;" horiz-adv-x="600" 
d="M74 560l31 192h137l-85 -192h-83zM57 0v504h147v-67q51 75 154 75q83 0 134 -50t51 -133v-329h-146v290q0 41 -23.5 66.5t-63.5 25.5q-106 0 -106 -161v-221h-147z" />
    <glyph glyph-name="Eng" unicode="&#x14a;" horiz-adv-x="702" 
d="M492 700h147v-712q0 -92 -67 -147t-177 -48v126q47 -4 70 14t27 64l-282 453v-450h-147v700h157l272 -450v450z" />
    <glyph glyph-name="eng" unicode="&#x14b;" horiz-adv-x="600" 
d="M358 512q83 0 134 -50t51 -133v-337q0 -82 -61 -132t-160 -50q-15 0 -23 1l-2 126q6 -1 20 -1q42 1 61 23.5t19 75.5v255q0 41 -23.5 66.5t-63.5 25.5q-106 0 -106 -161v-221h-147v504h147v-67q51 75 154 75z" />
    <glyph glyph-name="Omacron" unicode="&#x14c;" horiz-adv-x="783" 
d="M251 777v110h283v-110h-283zM393 -8q-156 0 -258 101.5t-102 256.5t102 256.5t258 101.5q155 0 256.5 -102t101.5 -256t-101.5 -256t-256.5 -102zM392 128q88 0 144.5 63t56.5 159t-57 159.5t-144 63.5q-88 0 -144.5 -63t-56.5 -160q0 -96 56.5 -159t144.5 -63z" />
    <glyph glyph-name="omacron" unicode="&#x14d;" horiz-adv-x="595" 
d="M156 581v110h283v-110h-283zM298 -8q-117 0 -191.5 73.5t-74.5 186.5t74.5 186.5t191.5 73.5q115 0 190.5 -73.5t75.5 -186.5t-75.5 -186.5t-190.5 -73.5zM298 117q53 0 86 37.5t33 97.5t-33 97.5t-86 37.5q-54 0 -87 -37.5t-33 -97.5t33 -97.5t87 -37.5z" />
    <glyph glyph-name="Obreve" unicode="&#x14e;" horiz-adv-x="783" 
d="M393 753q-62 0 -102.5 39.5t-40.5 99.5h105q0 -47 38 -47q19 0 29.5 12.5t10.5 34.5h105q0 -60 -41 -99.5t-104 -39.5zM393 -8q-156 0 -258 101.5t-102 256.5t102 256.5t258 101.5q155 0 256.5 -102t101.5 -256t-101.5 -256t-256.5 -102zM392 128q88 0 144.5 63t56.5 159
t-57 159.5t-144 63.5q-88 0 -144.5 -63t-56.5 -160q0 -96 56.5 -159t144.5 -63z" />
    <glyph glyph-name="obreve" unicode="&#x14f;" horiz-adv-x="595" 
d="M298 557q-62 0 -102.5 39.5t-40.5 99.5h105q0 -47 38 -47q19 0 29.5 12.5t10.5 34.5h105q0 -60 -41 -99.5t-104 -39.5zM298 -8q-117 0 -191.5 73.5t-74.5 186.5t74.5 186.5t191.5 73.5q115 0 190.5 -73.5t75.5 -186.5t-75.5 -186.5t-190.5 -73.5zM298 117q53 0 86 37.5
t33 97.5t-33 97.5t-86 37.5q-54 0 -87 -37.5t-33 -97.5t33 -97.5t87 -37.5z" />
    <glyph glyph-name="Ohungarumlaut" unicode="&#x150;" horiz-adv-x="783" 
d="M235 756l58 148h122l-67 -148h-113zM413 756l58 148h130l-76 -148h-112zM393 -8q-156 0 -258 101.5t-102 256.5t102 256.5t258 101.5q155 0 256.5 -102t101.5 -256t-101.5 -256t-256.5 -102zM392 128q88 0 144.5 63t56.5 159t-57 159.5t-144 63.5q-88 0 -144.5 -63
t-56.5 -160q0 -96 56.5 -159t144.5 -63z" />
    <glyph glyph-name="ohungarumlaut" unicode="&#x151;" horiz-adv-x="595" 
d="M140 560l58 148h122l-67 -148h-113zM318 560l58 148h130l-76 -148h-112zM298 -8q-117 0 -191.5 73.5t-74.5 186.5t74.5 186.5t191.5 73.5q115 0 190.5 -73.5t75.5 -186.5t-75.5 -186.5t-190.5 -73.5zM298 117q53 0 86 37.5t33 97.5t-33 97.5t-86 37.5q-54 0 -87 -37.5
t-33 -97.5t33 -97.5t87 -37.5z" />
    <glyph glyph-name="OE" unicode="&#x152;" horiz-adv-x="1119" 
d="M753 136h334v-136h-492v50q-89 -58 -202 -58q-156 0 -258 101.5t-102 256.5t102 256.5t258 101.5q113 0 202 -58v50h481v-135h-323v-128h256v-136h-256v-165zM392 128q88 0 144.5 63t56.5 159t-57 159.5t-144 63.5q-88 0 -144.5 -63t-56.5 -160q0 -96 56.5 -159
t144.5 -63z" />
    <glyph glyph-name="oe" unicode="&#x153;" horiz-adv-x="960" 
d="M929 265q0 -33 -2 -55h-362q22 -96 118 -96q81 0 98 65l138 -37q-22 -71 -86 -110.5t-154 -39.5q-117 0 -188 76q-76 -76 -193 -76t-191.5 73.5t-74.5 186.5t74.5 186.5t191.5 73.5q115 0 190 -73q68 73 182 73q65 0 116.5 -22.5t81.5 -59.5t45.5 -79t15.5 -86zM567 314
h205q-4 40 -29.5 64.5t-72.5 24.5q-82 0 -103 -89zM298 117q53 0 86 37.5t33 97.5t-33 97.5t-86 37.5q-54 0 -87 -37.5t-33 -97.5t33 -97.5t87 -37.5z" />
    <glyph glyph-name="Racute" unicode="&#x154;" horiz-adv-x="659" 
d="M451 904l-122 -148h-103l58 148h167zM648 0h-185l-152 274h-88v-274h-158l-2 700h279q104 0 166 -58t62 -155q0 -57 -26.5 -104.5t-74.5 -75.5zM223 565v-156h92q46 0 71.5 20.5t25.5 57.5t-25.5 57.5t-71.5 20.5h-92z" />
    <glyph glyph-name="racute" unicode="&#x155;" horiz-adv-x="417" 
d="M161 560l58 148h167l-122 -148h-103zM397 363q-26 12 -64 12q-55 0 -92 -46.5t-37 -146.5v-182h-147v504h147v-87q17 40 60 67.5t88 27.5q32 0 54 -8z" />
    <glyph glyph-name="Rcommaaccent" unicode="&#x156;" horiz-adv-x="659" 
d="M469 307l179 -307h-185l-152 274h-88v-274h-158l-2 700h279q104 0 166 -58t62 -155q0 -57 -26.5 -104.5t-74.5 -75.5zM223 565v-156h92q46 0 71.5 20.5t25.5 57.5t-25.5 57.5t-71.5 20.5h-92zM207 -190l36 148h157l-90 -148h-103z" />
    <glyph glyph-name="rcommaaccent" unicode="&#x157;" horiz-adv-x="417" 
d="M397 363q-26 12 -64 12q-55 0 -92 -46.5t-37 -146.5v-182h-147v504h147v-87q17 40 60 67.5t88 27.5q32 0 54 -8zM13 -190l36 148h157l-90 -148h-103z" />
    <glyph glyph-name="Rcaron" unicode="&#x158;" horiz-adv-x="659" 
d="M358 756h-127l-112 148h104l72 -71l72 71h104zM648 0h-185l-152 274h-88v-274h-158l-2 700h279q104 0 166 -58t62 -155q0 -57 -26.5 -104.5t-74.5 -75.5zM223 565v-156h92q46 0 71.5 20.5t25.5 57.5t-25.5 57.5t-71.5 20.5h-92z" />
    <glyph glyph-name="rcaron" unicode="&#x159;" horiz-adv-x="417" 
d="M166 560l-112 148h104l72 -71l72 71h104l-113 -148h-127zM397 363q-26 12 -64 12q-55 0 -92 -46.5t-37 -146.5v-182h-147v504h147v-87q17 40 60 67.5t88 27.5q32 0 54 -8z" />
    <glyph glyph-name="Sacute" unicode="&#x15a;" horiz-adv-x="594" 
d="M224 756l58 148h167l-122 -148h-103zM296 -8q-105 0 -183 63.5t-88 159.5l138 41q7 -58 46.5 -94t92.5 -36q47 0 75.5 20.5t28.5 53.5q0 27 -20 45t-51.5 29.5t-69.5 22t-76.5 26t-70 37t-51.5 60.5t-20 91q0 85 71.5 141t175.5 56q101 0 175.5 -49.5t92.5 -129.5
l-141 -59q-11 48 -44.5 76t-82.5 28q-41 0 -65 -16.5t-24 -45.5q0 -22 20 -36.5t51.5 -23.5t70 -17.5t77 -24.5t70 -39t51.5 -66t20 -101q0 -95 -74 -153.5t-195 -58.5z" />
    <glyph glyph-name="sacute" unicode="&#x15b;" horiz-adv-x="461" 
d="M158 560l58 148h167l-122 -148h-103zM237 -8q-86 0 -144.5 44t-80.5 107l118 46q9 -37 38 -61.5t69 -24.5q29 0 47 13t18 34t-27.5 34t-67 22.5t-78.5 24t-66.5 49t-27.5 87.5q0 61 49.5 103t130.5 42q77 0 135.5 -34t75.5 -89l-118 -49q-9 32 -34.5 49.5t-53.5 17.5
q-25 0 -40.5 -10t-15.5 -26q0 -18 20 -29.5t50 -17t65.5 -16.5t65.5 -25.5t50 -48t20 -81.5q0 -67 -55.5 -114t-142.5 -47z" />
    <glyph glyph-name="Scircumflex" unicode="&#x15c;" horiz-adv-x="594" 
d="M228 904h127l113 -148h-104l-72 71l-72 -71h-104zM296 -8q-105 0 -183 63.5t-88 159.5l138 41q7 -58 46.5 -94t92.5 -36q47 0 75.5 20.5t28.5 53.5q0 27 -20 45t-51.5 29.5t-69.5 22t-76.5 26t-70 37t-51.5 60.5t-20 91q0 85 71.5 141t175.5 56q101 0 175.5 -49.5
t92.5 -129.5l-141 -59q-11 48 -44.5 76t-82.5 28q-41 0 -65 -16.5t-24 -45.5q0 -22 20 -36.5t51.5 -23.5t70 -17.5t77 -24.5t70 -39t51.5 -66t20 -101q0 -95 -74 -153.5t-195 -58.5z" />
    <glyph glyph-name="scircumflex" unicode="&#x15d;" horiz-adv-x="461" 
d="M162 708h127l113 -148h-104l-72 71l-72 -71h-104zM237 -8q-86 0 -144.5 44t-80.5 107l118 46q9 -37 38 -61.5t69 -24.5q29 0 47 13t18 34t-27.5 34t-67 22.5t-78.5 24t-66.5 49t-27.5 87.5q0 61 49.5 103t130.5 42q77 0 135.5 -34t75.5 -89l-118 -49q-9 32 -34.5 49.5
t-53.5 17.5q-25 0 -40.5 -10t-15.5 -26q0 -18 20 -29.5t50 -17t65.5 -16.5t65.5 -25.5t50 -48t20 -81.5q0 -67 -55.5 -114t-142.5 -47z" />
    <glyph glyph-name="Scedilla" unicode="&#x15e;" horiz-adv-x="594" 
d="M565 204q0 -80 -54.5 -135.5t-147.5 -71.5l-59 -145h-167l118 143q-92 12 -156.5 73t-73.5 147l138 41q7 -58 46.5 -94t92.5 -36q47 0 75.5 20.5t28.5 53.5q0 27 -20 45t-51.5 29.5t-69.5 22t-76.5 26t-70 37t-51.5 60.5t-20 91q0 85 71.5 141t175.5 56
q101 0 175.5 -49.5t92.5 -129.5l-141 -59q-11 48 -44.5 76t-82.5 28q-41 0 -65 -16.5t-24 -45.5q0 -22 20 -36.5t51.5 -23.5t70 -17.5t77 -24.5t70 -39t51.5 -66t20 -101z" />
    <glyph glyph-name="scedilla" unicode="&#x15f;" horiz-adv-x="461" 
d="M435 153q0 -55 -39 -98t-104 -57l-59 -146h-167l119 145q-65 12 -110 52.5t-63 93.5l118 46q9 -37 38 -61.5t69 -24.5q29 0 47 13t18 34t-27.5 34t-67 22.5t-78.5 24t-66.5 49t-27.5 87.5q0 61 49.5 103t130.5 42q77 0 135.5 -34t75.5 -89l-118 -49q-9 32 -34.5 49.5
t-53.5 17.5q-25 0 -40.5 -10t-15.5 -26q0 -18 20 -29.5t50 -17t65.5 -16.5t65.5 -25.5t50 -48t20 -81.5z" />
    <glyph glyph-name="Scaron" unicode="&#x160;" horiz-adv-x="594" 
d="M229 756l-112 148h104l72 -71l72 71h104l-113 -148h-127zM296 -8q-105 0 -183 63.5t-88 159.5l138 41q7 -58 46.5 -94t92.5 -36q47 0 75.5 20.5t28.5 53.5q0 27 -20 45t-51.5 29.5t-69.5 22t-76.5 26t-70 37t-51.5 60.5t-20 91q0 85 71.5 141t175.5 56q101 0 175.5 -49.5
t92.5 -129.5l-141 -59q-11 48 -44.5 76t-82.5 28q-41 0 -65 -16.5t-24 -45.5q0 -22 20 -36.5t51.5 -23.5t70 -17.5t77 -24.5t70 -39t51.5 -66t20 -101q0 -95 -74 -153.5t-195 -58.5z" />
    <glyph glyph-name="scaron" unicode="&#x161;" horiz-adv-x="461" 
d="M163 560l-112 148h104l72 -71l72 71h104l-113 -148h-127zM237 -8q-86 0 -144.5 44t-80.5 107l118 46q9 -37 38 -61.5t69 -24.5q29 0 47 13t18 34t-27.5 34t-67 22.5t-78.5 24t-66.5 49t-27.5 87.5q0 61 49.5 103t130.5 42q77 0 135.5 -34t75.5 -89l-118 -49
q-9 32 -34.5 49.5t-53.5 17.5q-25 0 -40.5 -10t-15.5 -26q0 -18 20 -29.5t50 -17t65.5 -16.5t65.5 -25.5t50 -48t20 -81.5q0 -67 -55.5 -114t-142.5 -47z" />
    <glyph glyph-name="uni0162" unicode="&#x162;" horiz-adv-x="597" 
d="M14 700h569v-135h-205v-565l-60 -148h-167l122 148h-53v565h-206v135z" />
    <glyph glyph-name="uni0163" unicode="&#x163;" horiz-adv-x="395" 
d="M371 5q-36 -12 -73 -13l-57 -140h-167l128 155q-105 40 -105 165v210h-80v122h80v146h147v-146h122v-122h-122v-191q0 -33 16.5 -52t43.5 -19q34 0 57 12z" />
    <glyph glyph-name="Tcaron" unicode="&#x164;" horiz-adv-x="597" 
d="M235 756l-112 148h104l72 -71l72 71h104l-113 -148h-127zM220 0v565h-206v135h569v-135h-205v-565h-158z" />
    <glyph glyph-name="tcaron" unicode="&#x165;" horiz-adv-x="395" 
d="M301 560l31 192h137l-85 -192h-83zM371 5q-39 -13 -82 -13q-86 0 -139 46t-53 134v210h-80v122h80v146h147v-146h122v-122h-122v-191q0 -33 16.5 -52t43.5 -19q34 0 57 12z" />
    <glyph glyph-name="Tbar" unicode="&#x166;" horiz-adv-x="583" 
d="M583 565h-205v-128h159v-119h-159v-318h-158v318h-172v119h172v128h-206v135h569v-135z" />
    <glyph glyph-name="tbar" unicode="&#x167;" horiz-adv-x="395" 
d="M361 132l10 -127q-39 -13 -82 -13q-86 0 -139 46t-53 134v32h-77v98h77v80h-80v122h80v146h147v-146h122v-122h-122v-80h106v-98h-106v-13q0 -33 16.5 -52t43.5 -19q34 0 57 12z" />
    <glyph glyph-name="Utilde" unicode="&#x168;" horiz-adv-x="688" 
d="M236 758l-99 15q2 62 40 101t96 39q46 0 89 -27q4 -3 14 -9.5t13.5 -8t10 -3.5t13.5 -2q30 0 36 52l100 -14q-2 -64 -39.5 -102.5t-96.5 -38.5q-47 0 -88 27q-35 23 -52 23q-30 0 -37 -52zM344 -8q-129 0 -205 68.5t-76 199.5v440h147v-439q0 -66 36.5 -99t97.5 -33
t97.5 33t36.5 99v439h147v-440q0 -131 -76 -199.5t-205 -68.5z" />
    <glyph glyph-name="utilde" unicode="&#x169;" horiz-adv-x="600" 
d="M187 562l-99 15q2 62 40 101t96 39q46 0 89 -27q4 -3 14 -9.5t13.5 -8t10 -3.5t13.5 -2q30 0 36 52l100 -14q-2 -64 -39.5 -102.5t-96.5 -38.5q-47 0 -88 27q-35 23 -52 23q-30 0 -37 -52zM543 504v-504h-147v67q-51 -75 -154 -75q-83 0 -134 50t-51 133v329h146v-290
q0 -41 23.5 -66.5t63.5 -25.5q106 0 106 161v221h147z" />
    <glyph glyph-name="Umacron" unicode="&#x16a;" horiz-adv-x="688" 
d="M202 777v110h283v-110h-283zM344 -8q-129 0 -205 68.5t-76 199.5v440h147v-439q0 -66 36.5 -99t97.5 -33t97.5 33t36.5 99v439h147v-440q0 -131 -76 -199.5t-205 -68.5z" />
    <glyph glyph-name="umacron" unicode="&#x16b;" horiz-adv-x="600" 
d="M153 581v110h283v-110h-283zM543 504v-504h-147v67q-51 -75 -154 -75q-83 0 -134 50t-51 133v329h146v-290q0 -41 23.5 -66.5t63.5 -25.5q106 0 106 161v221h147z" />
    <glyph glyph-name="Ubreve" unicode="&#x16c;" horiz-adv-x="688" 
d="M344 753q-62 0 -102.5 39.5t-40.5 99.5h105q0 -47 38 -47q19 0 29.5 12.5t10.5 34.5h105q0 -60 -41 -99.5t-104 -39.5zM344 -8q-129 0 -205 68.5t-76 199.5v440h147v-439q0 -66 36.5 -99t97.5 -33t97.5 33t36.5 99v439h147v-440q0 -131 -76 -199.5t-205 -68.5z" />
    <glyph glyph-name="ubreve" unicode="&#x16d;" horiz-adv-x="600" 
d="M295 557q-62 0 -102.5 39.5t-40.5 99.5h105q0 -47 38 -47q19 0 29.5 12.5t10.5 34.5h105q0 -60 -41 -99.5t-104 -39.5zM543 504v-504h-147v67q-51 -75 -154 -75q-83 0 -134 50t-51 133v329h146v-290q0 -41 23.5 -66.5t63.5 -25.5q106 0 106 161v221h147z" />
    <glyph glyph-name="Uring" unicode="&#x16e;" horiz-adv-x="688" 
d="M344 735q-52 0 -86 32.5t-34 81.5t34 81t86 32t86 -32t34 -81t-34 -81.5t-86 -32.5zM344 806q20 0 32.5 12t12.5 31t-12.5 31t-32.5 12t-32.5 -12t-12.5 -31t12.5 -31t32.5 -12zM344 -8q-129 0 -205 68.5t-76 199.5v440h147v-439q0 -66 36.5 -99t97.5 -33t97.5 33
t36.5 99v439h147v-440q0 -131 -76 -199.5t-205 -68.5z" />
    <glyph glyph-name="uring" unicode="&#x16f;" horiz-adv-x="600" 
d="M295 539q-52 0 -86 32.5t-34 81.5t34 81t86 32t86 -32t34 -81t-34 -81.5t-86 -32.5zM295 610q20 0 32.5 12t12.5 31t-12.5 31t-32.5 12t-32.5 -12t-12.5 -31t12.5 -31t32.5 -12zM543 504v-504h-147v67q-51 -75 -154 -75q-83 0 -134 50t-51 133v329h146v-290
q0 -41 23.5 -66.5t63.5 -25.5q106 0 106 161v221h147z" />
    <glyph glyph-name="Uhungarumlaut" unicode="&#x170;" horiz-adv-x="688" 
d="M186 756l58 148h122l-67 -148h-113zM364 756l58 148h130l-76 -148h-112zM344 -8q-129 0 -205 68.5t-76 199.5v440h147v-439q0 -66 36.5 -99t97.5 -33t97.5 33t36.5 99v439h147v-440q0 -131 -76 -199.5t-205 -68.5z" />
    <glyph glyph-name="uhungarumlaut" unicode="&#x171;" horiz-adv-x="600" 
d="M137 560l58 148h122l-67 -148h-113zM315 560l58 148h130l-76 -148h-112zM543 504v-504h-147v67q-51 -75 -154 -75q-83 0 -134 50t-51 133v329h146v-290q0 -41 23.5 -66.5t63.5 -25.5q106 0 106 161v221h147z" />
    <glyph glyph-name="Uogonek" unicode="&#x172;" horiz-adv-x="688" 
d="M478 700h147v-440q0 -123 -68 -191.5t-185 -75.5q-24 -31 -24 -51q0 -32 35 -32q14 0 23 3l13 -96q-19 -7 -59 -7q-56 0 -90 28.5t-34 74.5t34 86q-97 18 -152 84.5t-55 176.5v440h147v-439q0 -66 36.5 -99t97.5 -33t97.5 33t36.5 99v439z" />
    <glyph glyph-name="uogonek" unicode="&#x173;" horiz-adv-x="600" 
d="M566 -87l13 -96q-19 -7 -59 -7q-56 0 -90 28.5t-34 74.5q0 45 35 87h-35v67q-51 -75 -154 -75q-83 0 -134 50t-51 133v329h146v-290q0 -41 23.5 -66.5t63.5 -25.5q106 0 106 161v221h147v-504h-5q-30 -32 -30 -58q0 -32 35 -32q14 0 23 3z" />
    <glyph glyph-name="Wcircumflex" unicode="&#x174;" horiz-adv-x="1019" 
d="M445 904h127l113 -148h-104l-72 71l-72 -71h-104zM213 0l-199 700h162l119 -510l122 510h183l123 -509l119 509h163l-197 -700h-168l-130 487l-132 -487h-165z" />
    <glyph glyph-name="wcircumflex" unicode="&#x175;" horiz-adv-x="800" 
d="M336 708h127l113 -148h-104l-72 71l-72 -71h-104zM177 0l-157 504h147l75 -299l92 299h133l92 -299l75 299h147l-157 -504h-128l-95 302l-96 -302h-128z" />
    <glyph glyph-name="Ycircumflex" unicode="&#x176;" horiz-adv-x="634" 
d="M252 904h127l113 -148h-104l-72 71l-72 -71h-104zM238 0v289l-237 411h168l148 -263l149 263h167l-237 -411v-289h-158z" />
    <glyph glyph-name="ycircumflex" unicode="&#x177;" horiz-adv-x="542" 
d="M270 631l-72 -71h-104l112 148h127l113 -148h-104zM386 504h150l-266 -686h-150l80 207l-194 479h159l108 -292z" />
    <glyph glyph-name="Ydieresis" unicode="&#x178;" horiz-adv-x="634" 
d="M143 904h134v-138h-134v138zM356 904h135v-138h-135v138zM238 0v289l-237 411h168l148 -263l149 263h167l-237 -411v-289h-158z" />
    <glyph glyph-name="Zacute" unicode="&#x179;" 
d="M239 756l58 148h167l-122 -148h-103zM27 0v126l360 439h-344v135h525v-126l-356 -438h359v-136h-544z" />
    <glyph glyph-name="zacute" unicode="&#x17a;" horiz-adv-x="498" 
d="M197 560l58 148h167l-122 -148h-103zM29 0v112l255 270h-237v122h414v-112l-252 -270h260v-122h-440z" />
    <glyph glyph-name="Zdotaccent" unicode="&#x17b;" 
d="M232 904h155v-141h-155v141zM27 0v126l360 439h-344v135h525v-126l-356 -438h359v-136h-544z" />
    <glyph glyph-name="zdotaccent" unicode="&#x17c;" horiz-adv-x="498" 
d="M190 708h155v-141h-155v141zM29 0v112l255 270h-237v122h414v-112l-252 -270h260v-122h-440z" />
    <glyph glyph-name="Zcaron" unicode="&#x17d;" 
d="M244 756l-112 148h104l72 -71l72 71h104l-113 -148h-127zM27 0v126l360 439h-344v135h525v-126l-356 -438h359v-136h-544z" />
    <glyph glyph-name="zcaron" unicode="&#x17e;" horiz-adv-x="498" 
d="M202 560l-112 148h104l72 -71l72 71h104l-113 -148h-127zM29 0v112l255 270h-237v122h414v-112l-252 -270h260v-122h-440z" />
    <glyph glyph-name="longs" unicode="&#x17f;" horiz-adv-x="385" 
d="M100 0v390h-79v114h79v35q0 88 53.5 138t138.5 50q44 0 79 -13l-10 -118q-27 11 -49 11q-31 0 -50 -19.5t-19 -54.5v-533h-143z" />
    <glyph glyph-name="florin" unicode="&#x192;" horiz-adv-x="488" 
d="M341 533l-4 -29h123v-114h-140l-30 -210q-28 -188 -192 -188q-44 0 -80 13l11 118q27 -11 49 -11q57 0 69 75l29 203h-89v114h106l5 35q28 188 192 188q44 0 80 -13l-11 -118q-27 11 -49 11q-57 0 -69 -74z" />
    <glyph glyph-name="Aringacute" unicode="&#x1fa;" horiz-adv-x="691" 
d="M346 735q-52 0 -86 32.5t-34 81.5q0 37 21 66t56 40l54 139h167l-119 -145q61 -30 61 -100q0 -49 -34 -81.5t-86 -32.5zM346 806q20 0 32.5 12t12.5 31t-12.5 31t-32.5 12t-32.5 -12t-12.5 -31t12.5 -31t32.5 -12zM522 0l-51 144h-250l-51 -144h-164l265 700h149
l265 -700h-163zM269 276h154l-77 217z" />
    <glyph glyph-name="aringacute" unicode="&#x1fb;" horiz-adv-x="541" 
d="M261 539q-52 0 -86 32.5t-34 81.5q0 37 21 66t56 40l54 139h167l-119 -145q61 -30 61 -100q0 -49 -34 -81.5t-86 -32.5zM261 610q20 0 32.5 12t12.5 31t-12.5 31t-32.5 12t-32.5 -12t-12.5 -31t12.5 -31t32.5 -12zM254 512q106 0 168 -54.5t62 -158.5v-299h-142v64
q-22 -33 -61 -52.5t-81 -19.5q-73 0 -120 43t-47 107q0 146 218 169l91 9v3q0 37 -23.5 58.5t-64.5 21.5q-36 0 -60 -21t-28 -57l-128 24q12 73 73 118t143 45zM236 97q48 0 76.5 33t29.5 79v1v3v4l-94 -11q-36 -4 -55.5 -20t-19.5 -39q0 -22 16.5 -36t46.5 -14z" />
    <glyph glyph-name="AEacute" unicode="&#x1fc;" horiz-adv-x="995" 
d="M683 904l-122 -148h-103l58 148h167zM629 136h334v-136h-492v150h-216l-76 -150h-174l363 700h584v-135h-323v-128h256v-136h-256v-165zM323 286h148v293z" />
    <glyph glyph-name="aeacute" unicode="&#x1fd;" horiz-adv-x="898" 
d="M633 708l-122 -148h-103l58 148h167zM867 265q0 -33 -2 -55h-362q22 -96 118 -96q81 0 98 65l138 -37q-22 -71 -86 -110.5t-154 -39.5q-124 0 -196 84q-67 -84 -192 -84q-91 0 -143.5 42.5t-52.5 107.5q0 77 58 122t168 45h94v14q0 37 -26.5 60t-69.5 23q-37 0 -63 -22.5
t-28 -56.5l-123 25q13 72 72 116t142 44q117 0 181 -62q65 62 170 62q65 0 116.5 -22.5t81.5 -59.5t45.5 -79t15.5 -86zM505 314h205q-4 40 -29.5 64.5t-72.5 24.5q-82 0 -103 -89zM243 93q50 0 80 34t30 82h-101q-38 0 -58.5 -17.5t-20.5 -44.5q0 -23 20 -38.5t50 -15.5z
" />
    <glyph glyph-name="Scommaaccent" unicode="&#x218;" horiz-adv-x="594" 
d="M296 -8q-105 0 -183 63.5t-88 159.5l138 41q7 -58 46.5 -94t92.5 -36q47 0 75.5 20.5t28.5 53.5q0 27 -20 45t-51.5 29.5t-69.5 22t-76.5 26t-70 37t-51.5 60.5t-20 91q0 85 71.5 141t175.5 56q101 0 175.5 -49.5t92.5 -129.5l-141 -59q-11 48 -44.5 76t-82.5 28
q-41 0 -65 -16.5t-24 -45.5q0 -22 20 -36.5t51.5 -23.5t70 -17.5t77 -24.5t70 -39t51.5 -66t20 -101q0 -95 -74 -153.5t-195 -58.5zM174 -190l36 148h157l-90 -148h-103z" />
    <glyph glyph-name="scommaaccent" unicode="&#x219;" horiz-adv-x="461" 
d="M237 -8q-86 0 -144.5 44t-80.5 107l118 46q9 -37 38 -61.5t69 -24.5q29 0 47 13t18 34t-27.5 34t-67 22.5t-78.5 24t-66.5 49t-27.5 87.5q0 61 49.5 103t130.5 42q77 0 135.5 -34t75.5 -89l-118 -49q-9 32 -34.5 49.5t-53.5 17.5q-25 0 -40.5 -10t-15.5 -26
q0 -18 20 -29.5t50 -17t65.5 -16.5t65.5 -25.5t50 -48t20 -81.5q0 -67 -55.5 -114t-142.5 -47zM103 -190l36 148h157l-90 -148h-103z" />
    <glyph glyph-name="uni021A" unicode="&#x21a;" horiz-adv-x="597" 
d="M220 0v565h-206v135h569v-135h-205v-565h-158zM188 -190l36 148h157l-90 -148h-103z" />
    <glyph glyph-name="uni021B" unicode="&#x21b;" horiz-adv-x="395" 
d="M371 5q-39 -13 -82 -13q-86 0 -139 46t-53 134v210h-80v122h80v146h147v-146h122v-122h-122v-191q0 -33 16.5 -52t43.5 -19q34 0 57 12zM111 -190l36 148h157l-90 -148h-103z" />
    <glyph glyph-name="uni0237" unicode="&#x237;" horiz-adv-x="265" 
d="M8 -190l-37 2l-3 126q13 -1 23 -1q75 0 75 91v476h146v-496q0 -91 -55.5 -144.5t-148.5 -53.5z" />
    <glyph glyph-name="gravecomb" unicode="&#x300;" horiz-adv-x="0" 
d="M-55 560h-103l-122 148h167z" />
    <glyph glyph-name="acutecomb" unicode="&#x301;" horiz-adv-x="0" 
d="M-275 560l58 148h167l-122 -148h-103z" />
    <glyph glyph-name="uni0302" unicode="&#x302;" horiz-adv-x="0" 
d="M-290 708h127l113 -148h-104l-72 71l-72 -71h-104z" />
    <glyph glyph-name="tildecomb" unicode="&#x303;" horiz-adv-x="0" 
d="M-363 562l-99 15q2 62 40 101t96 39q46 0 89 -27q4 -3 14 -9.5t13.5 -8t10 -3.5t13.5 -2q30 0 36 52l100 -14q-2 -64 -39.5 -102.5t-96.5 -38.5q-47 0 -88 27q-35 23 -52 23q-30 0 -37 -52z" />
    <glyph glyph-name="uni0304" unicode="&#x304;" horiz-adv-x="0" 
d="M-333 581v110h283v-110h-283z" />
    <glyph glyph-name="uni0306" unicode="&#x306;" horiz-adv-x="0" 
d="M-195 557q-62 0 -102.5 39.5t-40.5 99.5h105q0 -47 38 -47q19 0 29.5 12.5t10.5 34.5h105q0 -60 -41 -99.5t-104 -39.5z" />
    <glyph glyph-name="uni0307" unicode="&#x307;" horiz-adv-x="0" 
d="M-216 708h155v-141h-155v141z" />
    <glyph glyph-name="uni0308" unicode="&#x308;" horiz-adv-x="0" 
d="M-402 708h134v-138h-134v138zM-189 708h135v-138h-135v138z" />
    <glyph glyph-name="uni030A" unicode="&#x30a;" horiz-adv-x="0" 
d="M-170 539q-52 0 -86 32.5t-34 81.5t34 81t86 32t86 -32t34 -81t-34 -81.5t-86 -32.5zM-170 610q20 0 32.5 12t12.5 31t-12.5 31t-32.5 12t-32.5 -12t-12.5 -31t12.5 -31t32.5 -12z" />
    <glyph glyph-name="uni030B" unicode="&#x30b;" horiz-adv-x="0" 
d="M-416 560l58 148h122l-67 -148h-113zM-238 560l58 148h130l-76 -148h-112z" />
    <glyph glyph-name="uni030C" unicode="&#x30c;" horiz-adv-x="0" 
d="M-290 560l-112 148h104l72 -71l72 71h104l-113 -148h-127z" />
    <glyph glyph-name="uni0312" unicode="&#x312;" horiz-adv-x="0" 
d="M-50 708l-25 -148h-152l64 148h113z" />
    <glyph glyph-name="uni0326" unicode="&#x326;" horiz-adv-x="0" 
d="M-243 -190l36 148h157l-90 -148h-103z" />
    <glyph glyph-name="uni0327" unicode="&#x327;" horiz-adv-x="0" 
d="M-50 0l-60 -148h-167l150 182z" />
    <glyph glyph-name="uni0328" unicode="&#x328;" horiz-adv-x="0" 
d="M-109 -190q-56 0 -90 28.5t-34 74.5q0 55 45 97l97 -10q-30 -32 -30 -58q0 -32 35 -32q14 0 23 3l13 -96q-19 -7 -59 -7z" />
    <glyph glyph-name="uni0335" unicode="&#x335;" horiz-adv-x="0" 
d="M-380 557v98h330v-98h-330z" />
    <glyph glyph-name="uni0336" unicode="&#x336;" horiz-adv-x="0" 
d="M-765 519v115h715v-115h-715z" />
    <glyph glyph-name="uni0337" unicode="&#x337;" horiz-adv-x="0" 
d="M-50 406l-384 -180v122l384 179v-121z" />
    <glyph glyph-name="uni0338" unicode="&#x338;" horiz-adv-x="0" 
d="M-345 143l-94 83l295 351l94 -83z" />
    <glyph glyph-name="pi" unicode="&#x3c0;" horiz-adv-x="645" 
d="M600 119q10 0 23 1l-3 -126q-27 -2 -38 -2q-92 0 -147.5 53.5t-55.5 144.5v195h-108v-385h-142v385h-93v119h572v-119h-83v-175q0 -91 75 -91z" />
    <glyph glyph-name="Wgrave" unicode="&#x1e80;" horiz-adv-x="1019" 
d="M565 756h-103l-122 148h167zM213 0l-199 700h162l119 -510l122 510h183l123 -509l119 509h163l-197 -700h-168l-130 487l-132 -487h-165z" />
    <glyph glyph-name="wgrave" unicode="&#x1e81;" horiz-adv-x="800" 
d="M456 560h-103l-122 148h167zM177 0l-157 504h147l75 -299l92 299h133l92 -299l75 299h147l-157 -504h-128l-95 302l-96 -302h-128z" />
    <glyph glyph-name="Wacute" unicode="&#x1e82;" horiz-adv-x="1019" 
d="M441 756l58 148h167l-122 -148h-103zM213 0l-199 700h162l119 -510l122 510h183l123 -509l119 509h163l-197 -700h-168l-130 487l-132 -487h-165z" />
    <glyph glyph-name="wacute" unicode="&#x1e83;" horiz-adv-x="800" 
d="M332 560l58 148h167l-122 -148h-103zM177 0l-157 504h147l75 -299l92 299h133l92 -299l75 299h147l-157 -504h-128l-95 302l-96 -302h-128z" />
    <glyph glyph-name="Wdieresis" unicode="&#x1e84;" horiz-adv-x="1019" 
d="M336 904h134v-138h-134v138zM549 904h135v-138h-135v138zM213 0l-199 700h162l119 -510l122 510h183l123 -509l119 509h163l-197 -700h-168l-130 487l-132 -487h-165z" />
    <glyph glyph-name="wdieresis" unicode="&#x1e85;" horiz-adv-x="800" 
d="M227 708h134v-138h-134v138zM440 708h135v-138h-135v138zM177 0l-157 504h147l75 -299l92 299h133l92 -299l75 299h147l-157 -504h-128l-95 302l-96 -302h-128z" />
    <glyph glyph-name="uni1E9E" unicode="&#x1e9e;" horiz-adv-x="651" 
d="M332 708q103 0 172.5 -56t76.5 -142l-110 -111q63 -19 105.5 -69t42.5 -112q0 -96 -63.5 -157t-164.5 -61h-110v136h99q42 0 67 23t25 61t-26 59.5t-71 21.5h-73l-11 83l135 139q-9 23 -35 37t-59 14q-48 0 -79.5 -41t-31.5 -105v-428h-158v428q0 126 76 203t193 77z" />
    <glyph glyph-name="Ygrave" unicode="&#x1ef2;" horiz-adv-x="634" 
d="M372 756h-103l-122 148h167zM238 0v289l-237 411h168l148 -263l149 263h167l-237 -411v-289h-158z" />
    <glyph glyph-name="ygrave" unicode="&#x1ef3;" horiz-adv-x="542" 
d="M326 560h-103l-122 148h167zM386 504h150l-266 -686h-150l80 207l-194 479h159l108 -292z" />
    <glyph glyph-name="endash" unicode="&#x2013;" horiz-adv-x="500" 
d="M21 227v125h458v-125h-458z" />
    <glyph glyph-name="emdash" unicode="&#x2014;" horiz-adv-x="1000" 
d="M21 227v125h958v-125h-958z" />
    <glyph glyph-name="quoteleft" unicode="&#x2018;" horiz-adv-x="281" 
d="M261 707l-65 -268h-164l136 268h93z" />
    <glyph glyph-name="quoteright" unicode="&#x2019;" horiz-adv-x="281" 
d="M20 440l65 268h164l-136 -268h-93z" />
    <glyph glyph-name="quotesinglbase" unicode="&#x201a;" horiz-adv-x="281" 
d="M20 -122l65 268h164l-136 -268h-93z" />
    <glyph glyph-name="quotedblleft" unicode="&#x201c;" horiz-adv-x="490" 
d="M261 708l-65 -268h-164l136 268h93zM470 708l-65 -268h-164l136 268h93z" />
    <glyph glyph-name="quotedblright" unicode="&#x201d;" horiz-adv-x="490" 
d="M20 440l65 268h164l-136 -268h-93zM229 440l65 268h164l-136 -268h-93z" />
    <glyph glyph-name="quotedblbase" unicode="&#x201e;" horiz-adv-x="490" 
d="M20 -122l65 268h164l-136 -268h-93zM229 -122l65 268h164l-136 -268h-93z" />
    <glyph glyph-name="dagger" unicode="&#x2020;" horiz-adv-x="388" 
d="M128 186v273h-121v104h121v137h133v-137h120v-104h-120v-273h-133z" />
    <glyph glyph-name="daggerdbl" unicode="&#x2021;" horiz-adv-x="388" 
d="M381 459h-120v-218h120v-104h-120v-137h-133v137h-121v104h121v218h-121v104h121v137h133v-137h120v-104z" />
    <glyph glyph-name="bullet" unicode="&#x2022;" horiz-adv-x="465" 
d="M235 72q-85 0 -143.5 58.5t-58.5 141.5t59 141.5t143 58.5q82 0 140 -58.5t58 -141.5t-58 -141.5t-140 -58.5z" />
    <glyph glyph-name="ellipsis" unicode="&#x2026;" horiz-adv-x="798" 
d="M57 146h151v-146h-151v146zM323 146h151v-146h-151v146zM589 146h151v-146h-151v146z" />
    <glyph glyph-name="perthousand" unicode="&#x2030;" horiz-adv-x="990" 
d="M348 532q0 -80 -44.5 -128t-118.5 -48q-75 0 -119.5 48t-44.5 128t44.5 128t119.5 48q74 0 118.5 -48t44.5 -128zM561 700h116l-468 -700h-116zM129 532q0 -79 56 -79q54 0 54 79t-54 79q-56 0 -56 -79zM807 344q74 0 118.5 -48t44.5 -128t-44.5 -128t-118.5 -48
q-66 0 -110 39q-44 -39 -109 -39q-75 0 -119.5 48t-44.5 128t44.5 128t119.5 48q65 0 109 -39q44 39 110 39zM588 89q54 0 54 79t-54 79q-56 0 -56 -79t56 -79zM807 89q54 0 54 79t-54 79q-56 0 -56 -79t56 -79z" />
    <glyph glyph-name="guilsinglleft" unicode="&#x2039;" horiz-adv-x="365" 
d="M327 43l-293 223v84l293 223v-146l-160 -119l160 -119v-146z" />
    <glyph glyph-name="guilsinglright" unicode="&#x203a;" horiz-adv-x="365" 
d="M38 43v146l160 119l-160 119v146l293 -223v-84z" />
    <glyph glyph-name="fraction" unicode="&#x2044;" horiz-adv-x="284" 
d="M-150 0l468 700h116l-468 -700h-116z" />
    <glyph glyph-name="Euro" unicode="&#x20ac;" horiz-adv-x="798" 
d="M454 128q61 0 103 33t53 89l160 -36q-25 -104 -108.5 -163t-207.5 -59q-116 0 -206.5 59.5t-125.5 170.5h-91v96h74q-1 10 -1 32q0 24 1 35h-74v96h93q36 109 126 168t204 59q131 0 217 -65t101 -174l-157 -33q-12 63 -56 100t-105 37q-114 0 -162 -92h247l-29 -96h-245
q-2 -22 -2 -35q0 -22 1 -32h222l-27 -96h-169q48 -94 164 -94z" />
    <glyph glyph-name="uni2116" unicode="&#x2116;" horiz-adv-x="1247" 
d="M948 190q-117 0 -191.5 73.5t-74.5 186.5t74.5 186.5t191.5 73.5q115 0 190.5 -73.5t75.5 -186.5t-75.5 -186.5t-190.5 -73.5zM63 0v700h157l272 -450v450h147v-700h-157l-272 450v-450h-147zM948 315q53 0 86 37.5t33 97.5t-33 97.5t-86 37.5q-54 0 -87 -37.5t-33 -97.5
t33 -97.5t87 -37.5zM720 8v125h458v-125h-458z" />
    <glyph glyph-name="uni2117" unicode="&#x2117;" horiz-adv-x="782" 
d="M391 -8q-155 0 -256.5 102t-101.5 256t101.5 256t256.5 102t257 -102t102 -256t-102 -256t-257 -102zM391 67q121 0 201 80.5t80 202.5t-80 202.5t-201 80.5t-201 -80.5t-80 -202.5t80 -202.5t201 -80.5zM418 313h-57v-132h-82l-1 362h140q54 0 88.5 -32.5t34.5 -83.5
t-34.5 -82.5t-88.5 -31.5zM361 471v-86h48q23 0 36 11t13 31q0 44 -49 44h-48z" />
    <glyph glyph-name="trademark" unicode="&#x2122;" horiz-adv-x="751" 
d="M104 350v271h-99v79h292v-79h-99v-271h-94zM330 350v350h101l94 -219l95 219h100v-350h-84v177l-78 -177h-65l-78 177v-177h-85z" />
    <glyph glyph-name="uni2126" unicode="&#x2126;" horiz-adv-x="735" 
d="M702 383q0 -158 -130 -247h125v-136h-260v181q48 32 77 85.5t29 108.5q0 90 -48 144.5t-127 54.5q-80 0 -128 -54.5t-48 -144.5q0 -55 29.5 -108.5t76.5 -85.5v-45h1v-136h-261v136h126q-131 90 -131 247q0 140 95.5 232.5t240.5 92.5q144 0 238.5 -92.5t94.5 -232.5z
" />
    <glyph glyph-name="oneeighth" unicode="&#x215b;" horiz-adv-x="811" 
d="M108 315v278q-47 -31 -86 -38v91q48 11 104 54h77v-385h-95zM94 0l468 700h116l-468 -700h-116zM637 -4q-61 0 -104 32.5t-43 87.5q0 31 18 56t48 35q-22 11 -35 31.5t-13 45.5q0 43 36.5 74t92.5 31t92.5 -31t36.5 -74q0 -55 -48 -77q30 -10 47.5 -34.5t17.5 -56.5
q0 -55 -42.5 -87.5t-103.5 -32.5zM637 246q18 0 28.5 9t10.5 24q0 16 -11 25.5t-28 9.5q-38 0 -38 -35q0 -33 38 -33zM637 77q21 0 34 11.5t13 29.5t-13 29.5t-34 11.5t-34 -11.5t-13 -29.5t13 -29.5t34 -11.5z" />
    <glyph glyph-name="threeeighths" unicode="&#x215c;" horiz-adv-x="881" 
d="M173 311q-62 0 -104 32t-47 84l92 15q6 -19 22.5 -31t37.5 -12q23 0 37 12t14 33q0 20 -14 33t-36 13q-27 0 -45 -14l-39 68l85 68h-143v88h265v-88l-85 -60q52 -1 83 -30.5t31 -80.5q0 -59 -42.5 -94.5t-111.5 -35.5zM147 0l468 700h116l-468 -700h-116zM707 -4
q-61 0 -104 32.5t-43 87.5q0 31 18 56t48 35q-22 11 -35 31.5t-13 45.5q0 43 36.5 74t92.5 31t92.5 -31t36.5 -74q0 -55 -48 -77q30 -10 47.5 -34.5t17.5 -56.5q0 -55 -42.5 -87.5t-103.5 -32.5zM707 246q18 0 28.5 9t10.5 24q0 16 -11 25.5t-28 9.5q-38 0 -38 -35
q0 -33 38 -33zM707 77q21 0 34 11.5t13 29.5t-13 29.5t-34 11.5t-34 -11.5t-13 -29.5t13 -29.5t34 -11.5z" />
    <glyph glyph-name="fiveeighths" unicode="&#x215d;" horiz-adv-x="881" 
d="M172 311q-58 0 -98 29.5t-48 78.5l92 16q11 -36 51 -36q21 0 34.5 13t13.5 34t-14.5 33.5t-37.5 12.5q-34 0 -57 -29l-74 15l33 222h221v-88h-148l-12 -66q25 24 68 24q54 0 88.5 -34.5t34.5 -89.5q0 -61 -40 -98t-107 -37zM149 0l468 700h116l-468 -700h-116zM707 -4
q-61 0 -104 32.5t-43 87.5q0 31 18 56t48 35q-22 11 -35 31.5t-13 45.5q0 43 36.5 74t92.5 31t92.5 -31t36.5 -74q0 -55 -48 -77q30 -10 47.5 -34.5t17.5 -56.5q0 -55 -42.5 -87.5t-103.5 -32.5zM707 246q18 0 28.5 9t10.5 24q0 16 -11 25.5t-28 9.5q-38 0 -38 -35
q0 -33 38 -33zM707 77q21 0 34 11.5t13 29.5t-13 29.5t-34 11.5t-34 -11.5t-13 -29.5t13 -29.5t34 -11.5z" />
    <glyph glyph-name="seveneighths" unicode="&#x215e;" horiz-adv-x="801" 
d="M57 315q52 171 147 297h-187v88h288v-88q-111 -157 -149 -297h-99zM67 0l468 700h116l-468 -700h-116zM627 -4q-61 0 -104 32.5t-43 87.5q0 31 18 56t48 35q-22 11 -35 31.5t-13 45.5q0 43 36.5 74t92.5 31t92.5 -31t36.5 -74q0 -55 -48 -77q30 -10 47.5 -34.5
t17.5 -56.5q0 -55 -42.5 -87.5t-103.5 -32.5zM627 246q18 0 28.5 9t10.5 24q0 16 -11 25.5t-28 9.5q-38 0 -38 -35q0 -33 38 -33zM627 77q21 0 34 11.5t13 29.5t-13 29.5t-34 11.5t-34 -11.5t-13 -29.5t13 -29.5t34 -11.5z" />
    <glyph glyph-name="uni2160" unicode="&#x2160;" horiz-adv-x="499" 
d="M437 565h-109v-429h109v-136h-374v136h107v429h-107v135h374v-135z" />
    <glyph glyph-name="uni2161" unicode="&#x2161;" horiz-adv-x="791" 
d="M728 565h-108v-429h108v-136h-665v136h107v429h-107v135h665v-135zM462 136v429h-134v-429h134z" />
    <glyph glyph-name="uni2162" unicode="&#x2162;" horiz-adv-x="1083" 
d="M1020 565h-108v-429h108v-136h-957v136h107v429h-107v135h957v-135zM328 136h134v429h-134v-429zM754 136v429h-134v-429h134z" />
    <glyph glyph-name="uni2163" unicode="&#x2163;" horiz-adv-x="1166" 
d="M1104 565h-101l-154 -429h255v-136h-1041v136h108v429h-108v135h1041v-135zM329 136h271l-154 429h-117v-429zM724 190l122 375h-243z" />
    <glyph glyph-name="uni2164" unicode="&#x2164;" horiz-adv-x="900" 
d="M838 565h-107l-154 -429h236v-136h-725v136h240l-154 429h-111v135h775v-135zM452 190l122 375h-243z" />
    <glyph glyph-name="uni2165" unicode="&#x2165;" horiz-adv-x="1166" 
d="M1104 565h-108v-429h108v-136h-1041v136h268l-154 429h-114v135h1041v-135zM577 565h-243l121 -375zM838 136v429h-104l-154 -429h258z" />
    <glyph glyph-name="uni2166" unicode="&#x2166;" horiz-adv-x="1458" 
d="M1395 565h-108v-429h108v-136h-1332v136h268l-154 429h-114v135h1332v-135zM577 565h-243l121 -375zM580 136h257v429h-103zM995 136h134v429h-134v-429z" />
    <glyph glyph-name="uni2167" unicode="&#x2167;" horiz-adv-x="1750" 
d="M1579 700v-700h-1516v136h268l-154 429h-114v135h1516zM1580 700h107v-135h-107v135zM577 565h-243l121 -375zM580 136h257v429h-103zM995 136h134v429h-134v-429zM1287 136h134v429h-134v-429zM1580 0v136h107v-136h-107z" />
    <glyph glyph-name="uni2168" unicode="&#x2168;" horiz-adv-x="1148" 
d="M985 565l-173 -215l172 -214h101v-136h-1022v136h107v429h-107v135h1022v-135h-100zM450 136l172 214l-173 215h-121v-429h122zM717 468l78 97h-156zM794 136l-77 96l-77 -96h154z" />
    <glyph glyph-name="uni2169" unicode="&#x2169;" horiz-adv-x="862" 
d="M699 565l-173 -215l172 -214h101v-136h-736v136h101l172 214l-173 215h-100v135h736v-135h-100zM353 565l78 -97l78 97h-156zM508 136l-77 96l-77 -96h154z" />
    <glyph glyph-name="uni216A" unicode="&#x216a;" horiz-adv-x="1131" 
d="M1068 565h-107v-429h107v-136h-1005v136h101l172 214l-173 215h-100v135h1005v-135zM353 565l78 -97l78 97h-156zM803 136v429h-104l-173 -215l172 -214h105zM431 232l-77 -96h154z" />
    <glyph glyph-name="uni216B" unicode="&#x216b;" horiz-adv-x="1417" 
d="M1354 565h-107v-429h107v-136h-1291v136h101l172 214l-173 215h-100v135h1291v-135zM353 565l78 -97l78 97h-156zM803 136v429h-104l-173 -215l172 -214h105zM1089 136v429h-128v-429h128zM431 232l-77 -96h154z" />
    <glyph glyph-name="uni216C" unicode="&#x216c;" horiz-adv-x="655" 
d="M644 126h-1v-126h-580v136h108v429h-108v135h374v-135h-108v-429h179v107h135z" />
    <glyph glyph-name="uni216D" unicode="&#x216d;" horiz-adv-x="738" 
d="M384 573q-83 0 -137.5 -58.5t-54.5 -164.5t54 -164t138 -58q61 0 103 32.5t54 89.5l159 -36l1 -214h-136v57q-76 -65 -180 -65q-150 0 -251 94t-101 264q0 169 101.5 263.5t250.5 94.5q108 0 182 -71v63h135v-231l-157 -33q-12 63 -56 100t-105 37z" />
    <glyph glyph-name="uni216E" unicode="&#x216e;" horiz-adv-x="804" 
d="M409 700q74 0 138 -21.5t115 -63t80.5 -110t29.5 -155.5t-29.5 -155.5t-80.5 -110t-115 -63t-138 -21.5h-346v136h107v429h-107v135h346zM392 136q45 0 82.5 11t70 35t50.5 67t18 101q0 113 -63 164t-158 51h-67v-429h67z" />
    <glyph glyph-name="uni216F" unicode="&#x216f;" horiz-adv-x="1094" 
d="M1031 565h-107v-429h107v-136h-254v407l-172 -407h-115l-173 407v-407h-254v136h107v429h-107v135h281l203 -476l203 476h281v-135z" />
    <glyph glyph-name="arrowleft" unicode="&#x2190;" horiz-adv-x="726" 
d="M694 330v-125h-446l157 -158l-76 -77l-297 298l298 297l76 -76l-159 -159h447z" />
    <glyph glyph-name="arrowup" unicode="&#x2191;" horiz-adv-x="659" 
d="M627 352l-77 -76l-158 157v-446h-125v447l-159 -159l-76 76l297 298z" />
    <glyph glyph-name="arrowright" unicode="&#x2192;" horiz-adv-x="726" 
d="M396 565l298 -297l-297 -298l-76 77l157 158h-446v125h447l-159 159z" />
    <glyph glyph-name="arrowdown" unicode="&#x2193;" horiz-adv-x="659" 
d="M551 367l76 -76l-297 -298l-298 297l77 76l158 -157v446h125v-447z" />
    <glyph glyph-name="arrowboth" unicode="&#x2194;" horiz-adv-x="1066" 
d="M736 565l298 -297l-297 -298l-76 77l157 158h-570l157 -158l-76 -77l-297 298l298 297l76 -76l-159 -159h572l-159 159z" />
    <glyph glyph-name="arrowupdn" unicode="&#x2195;" horiz-adv-x="659" 
d="M392 30l159 159l76 -76l-297 -298l-298 297l77 76l158 -157v570l-158 -157l-77 76l298 297l297 -298l-76 -76l-159 159v-572z" />
    <glyph glyph-name="uni2196" unicode="&#x2196;" horiz-adv-x="602" 
d="M571 71l-89 -88l-315 315l-1 -223h-108l1 420h420v-108h-224z" />
    <glyph glyph-name="uni2197" unicode="&#x2197;" horiz-adv-x="601" 
d="M543 75h-108l-1 223l-315 -315l-89 88l316 316h-224v108h420z" />
    <glyph glyph-name="uni2198" unicode="&#x2198;" horiz-adv-x="601" 
d="M436 415h108v-420l-420 -1v108l223 1l-315 315l88 89l316 -316v224z" />
    <glyph glyph-name="uni2199" unicode="&#x2199;" horiz-adv-x="601" 
d="M569 418l-315 -315l223 -1v-108l-420 1v420h108v-224l316 316z" />
    <glyph glyph-name="partialdiff" unicode="&#x2202;" horiz-adv-x="646" 
d="M228 706q22 2 33 2q66 0 125 -24t106.5 -70t75.5 -121.5t28 -170.5q0 -145 -76.5 -237.5t-196.5 -92.5q-119 0 -195.5 68t-76.5 173t69 172.5t176 67.5q102 0 151 -73q-8 77 -59.5 125t-130.5 48q-23 0 -44 -6zM318 128q50 0 82 32t32 82q0 49 -32 80.5t-82 31.5
t-82 -31.5t-31 -80.5q1 -50 32.5 -82t80.5 -32z" />
    <glyph glyph-name="uni2206" unicode="&#x2206;" horiz-adv-x="691" 
d="M420 700l265 -700h-679l265 700h149zM216 132h260l-130 361z" />
    <glyph glyph-name="product" unicode="&#x220f;" horiz-adv-x="693" 
d="M64 0v700h565v-700h-162v565h-241v-565h-162z" />
    <glyph glyph-name="summation" unicode="&#x2211;" horiz-adv-x="554" 
d="M37 0v127l206 223l-206 223v127h475v-135h-281l155 -156v-118l-155 -155h281v-136h-475z" />
    <glyph glyph-name="minus" unicode="&#x2212;" horiz-adv-x="555" 
d="M31 258v125h493v-125h-493z" />
    <glyph glyph-name="radical" unicode="&#x221a;" horiz-adv-x="601" 
d="M229 0l-93 264h-114v136h208l68 -202l153 502h145l-228 -700h-139z" />
    <glyph glyph-name="infinity" unicode="&#x221e;" horiz-adv-x="958" 
d="M685 591q106 0 174 -65t68 -167t-68 -167t-174 -65q-116 0 -206 104q-90 -104 -205 -104q-106 0 -174 65t-68 167t68 167t174 65q116 0 205 -104q89 104 206 104zM274 269q73 0 127 90q-54 90 -127 90q-98 0 -98 -90t98 -90zM685 269q48 0 73 23.5t25 66.5t-25 66.5
t-73 23.5q-71 0 -127 -90q56 -90 127 -90z" />
    <glyph glyph-name="integral" unicode="&#x222b;" horiz-adv-x="335" 
d="M27 -190q-21 0 -37 2l-3 126q6 -1 23 -1q75 0 75 91v482q0 91 55.5 144.5t147.5 53.5l38 -2l3 -126q-11 1 -23 1q-75 0 -75 -91v-482q0 -91 -55.5 -144.5t-148.5 -53.5z" />
    <glyph glyph-name="approxequal" unicode="&#x2248;" horiz-adv-x="623" 
d="M405 353q-60 0 -117 37l-12 8t-12 7.5t-9.5 5.5t-10 5.5t-9.5 3.5t-11 2.5t-11 0.5q-46 0 -58 -72l-121 18q4 82 53.5 132.5t125.5 50.5q61 0 118 -37q4 -2 12.5 -8t11.5 -7.5t9.5 -5.5t10 -5.5t9 -3.5t10.5 -2.5t11 -0.5q47 0 58 72l122 -18q-5 -82 -54.5 -132.5
t-125.5 -50.5zM405 116q-60 0 -117 37l-12 8t-12 7.5t-9.5 5.5t-10 5.5t-9.5 3.5t-11 2.5t-11 0.5q-46 0 -58 -72l-121 18q4 82 53.5 132.5t125.5 50.5q61 0 118 -37q4 -2 12.5 -8t11.5 -7.5t9.5 -5.5t10 -5.5t9 -3.5t10.5 -2.5t11 -0.5q47 0 58 72l122 -18
q-5 -82 -54.5 -132.5t-125.5 -50.5z" />
    <glyph glyph-name="notequal" unicode="&#x2260;" horiz-adv-x="555" 
d="M524 371h-150l-56 -103h206v-125h-274l-80 -146l-98 50l52 96h-93v125h162l56 103h-218v125h286l68 124l98 -49l-41 -75h82v-125z" />
    <glyph glyph-name="lessequal" unicode="&#x2264;" horiz-adv-x="571" 
d="M524 660v-149l-304 -121l304 -120v-270h-493v125h481l-481 205v121z" />
    <glyph glyph-name="greaterequal" unicode="&#x2265;" horiz-adv-x="571" 
d="M540 451v-121l-481 -205h481v-125h-493v270l304 120l-304 121v149z" />
    <glyph glyph-name="uni2460" unicode="&#x2460;" horiz-adv-x="782" 
d="M391 -8q-155 0 -256.5 102t-101.5 256t101.5 256t256.5 102t257 -102t102 -256t-102 -256t-257 -102zM391 67q121 0 201 80.5t80 202.5t-80 202.5t-201 80.5t-201 -80.5t-80 -202.5t80 -202.5t201 -80.5zM364 167v278q-47 -31 -86 -38v91q48 11 104 54h77v-385h-95z" />
    <glyph glyph-name="uni2461" unicode="&#x2461;" horiz-adv-x="782" 
d="M391 -8q-155 0 -256.5 102t-101.5 256t101.5 256t256.5 102t257 -102t102 -256t-102 -256t-257 -102zM391 67q121 0 201 80.5t80 202.5t-80 202.5t-201 80.5t-201 -80.5t-80 -202.5t80 -202.5t201 -80.5zM254 167l-1 79l116 95q67 54 67 87q0 18 -12 29t-32 11
q-23 0 -35.5 -19t-9.5 -51l-98 6q-7 62 36.5 107t106.5 45q65 0 106 -36t41 -92q0 -76 -97 -143l-44 -30h141v-88h-285z" />
    <glyph glyph-name="uni2462" unicode="&#x2462;" horiz-adv-x="782" 
d="M391 -8q-155 0 -256.5 102t-101.5 256t101.5 256t256.5 102t257 -102t102 -256t-102 -256t-257 -102zM391 67q121 0 201 80.5t80 202.5t-80 202.5t-201 80.5t-201 -80.5t-80 -202.5t80 -202.5t201 -80.5zM392 163q-62 0 -104 32t-47 84l92 15q6 -19 22.5 -31t37.5 -12
q23 0 37 12t14 33q0 20 -14 33t-36 13q-27 0 -45 -14l-39 68l85 68h-143v88h265v-88l-85 -60q52 -1 83 -30.5t31 -80.5q0 -59 -42.5 -94.5t-111.5 -35.5z" />
    <glyph glyph-name="uni2463" unicode="&#x2463;" horiz-adv-x="782" 
d="M391 -8q-155 0 -256.5 102t-101.5 256t101.5 256t256.5 102t257 -102t102 -256t-102 -256t-257 -102zM391 67q121 0 201 80.5t80 202.5t-80 202.5t-201 80.5t-201 -80.5t-80 -202.5t80 -202.5t201 -80.5zM388 167v64h-186v88l182 233h108v-233h41v-88h-41v-64h-104z
M306 319h82v106z" />
    <glyph glyph-name="uni2464" unicode="&#x2464;" horiz-adv-x="782" 
d="M391 -8q-155 0 -256.5 102t-101.5 256t101.5 256t256.5 102t257 -102t102 -256t-102 -256t-257 -102zM391 67q121 0 201 80.5t80 202.5t-80 202.5t-201 80.5t-201 -80.5t-80 -202.5t80 -202.5t201 -80.5zM393 163q-58 0 -98 29.5t-48 78.5l92 16q11 -36 51 -36
q21 0 34.5 13t13.5 34t-14.5 33.5t-37.5 12.5q-34 0 -57 -29l-74 15l33 222h221v-88h-148l-12 -66q25 24 68 24q54 0 88.5 -34.5t34.5 -89.5q0 -61 -40 -98t-107 -37z" />
    <glyph glyph-name="uni2465" unicode="&#x2465;" horiz-adv-x="782" 
d="M391 -8q-155 0 -256.5 102t-101.5 256t101.5 256t256.5 102t257 -102t102 -256t-102 -256t-257 -102zM391 67q121 0 201 80.5t80 202.5t-80 202.5t-201 80.5t-201 -80.5t-80 -202.5t80 -202.5t201 -80.5zM403 420q58 0 95.5 -37t37.5 -94q0 -58 -43 -95.5t-111 -37.5
q-66 0 -109.5 52t-43.5 132q0 101 56 155t131 54q71 0 120 -43l-44 -65q-24 21 -72 21q-38 0 -62.5 -19.5t-30.5 -52.5q26 30 76 30zM386 244q22 0 36 14t15 37q1 22 -13.5 36t-37.5 14q-22 0 -36.5 -14t-14.5 -36t14.5 -36.5t36.5 -14.5z" />
    <glyph glyph-name="uni2466" unicode="&#x2466;" horiz-adv-x="782" 
d="M391 -8q-155 0 -256.5 102t-101.5 256t101.5 256t256.5 102t257 -102t102 -256t-102 -256t-257 -102zM391 67q121 0 201 80.5t80 202.5t-80 202.5t-201 80.5t-201 -80.5t-80 -202.5t80 -202.5t201 -80.5zM287 167q52 171 147 297h-187v88h288v-88q-111 -157 -149 -297
h-99z" />
    <glyph glyph-name="uni2467" unicode="&#x2467;" horiz-adv-x="782" 
d="M391 -8q-155 0 -256.5 102t-101.5 256t101.5 256t256.5 102t257 -102t102 -256t-102 -256t-257 -102zM391 67q121 0 201 80.5t80 202.5t-80 202.5t-201 80.5t-201 -80.5t-80 -202.5t80 -202.5t201 -80.5zM392 163q-61 0 -104 32.5t-43 87.5q0 31 18 56t48 35
q-22 11 -35 31.5t-13 45.5q0 43 36.5 74t92.5 31t92.5 -31t36.5 -74q0 -55 -48 -77q30 -10 47.5 -34.5t17.5 -56.5q0 -55 -42.5 -87.5t-103.5 -32.5zM392 413q18 0 28.5 9t10.5 24q0 16 -11 25.5t-28 9.5q-38 0 -38 -35q0 -33 38 -33zM392 244q21 0 34 11.5t13 29.5
t-13 29.5t-34 11.5t-34 -11.5t-13 -29.5t13 -29.5t34 -11.5z" />
    <glyph glyph-name="uni2468" unicode="&#x2468;" horiz-adv-x="782" 
d="M391 -8q-155 0 -256.5 102t-101.5 256t101.5 256t256.5 102t257 -102t102 -256t-102 -256t-257 -102zM391 67q121 0 201 80.5t80 202.5t-80 202.5t-201 80.5t-201 -80.5t-80 -202.5t80 -202.5t201 -80.5zM379 285q-58 0 -96 37t-38 94q0 58 43.5 95.5t109.5 37.5
q67 0 110 -52t43 -132q0 -102 -55.5 -155.5t-130.5 -53.5q-70 0 -121 43l45 65q27 -21 73 -21q38 0 62.5 19.5t30.5 52.5q-27 -30 -76 -30zM396 461q-22 0 -36 -14t-14 -37q-1 -22 13.5 -36t36.5 -14t36 14t14 36t-14 36.5t-36 14.5z" />
    <glyph glyph-name="lozenge" unicode="&#x25ca;" horiz-adv-x="600" 
d="M235 0l-192 350l192 350h130l192 -350l-192 -350h-130zM299 124l120 226l-120 226l-119 -226z" />
    <glyph glyph-name="circle" unicode="&#x25cb;" horiz-adv-x="782" 
d="M391 -8q-155 0 -256.5 102t-101.5 256t101.5 256t256.5 102t257 -102t102 -256t-102 -256t-257 -102zM391 67q121 0 201 80.5t80 202.5t-80 202.5t-201 80.5t-201 -80.5t-80 -202.5t80 -202.5t201 -80.5z" />
    <glyph glyph-name="uni25CF" unicode="&#x25cf;" horiz-adv-x="782" 
d="M393 -8q-155 0 -257.5 102t-102.5 256t102.5 256t257.5 102q154 0 255.5 -102t101.5 -256t-101.5 -256t-255.5 -102z" />
    <glyph glyph-name="uniF8FF" unicode="&#xf8ff;" horiz-adv-x="782" 
d="M612 266q56 0 96.5 -41t40.5 -97t-40.5 -96t-96.5 -40q-57 0 -97.5 40t-40.5 96v85h-167v-85q0 -56 -40.5 -96t-97.5 -40q-56 0 -96 40t-40 96q0 57 40 97.5t96 40.5h85v167h-85q-56 0 -96 40.5t-40 97.5q0 56 40 96.5t96 40.5t97 -40.5t41 -96.5v-85h167v85
q0 56 41 96.5t97 40.5t96.5 -40.5t40.5 -96.5t-40.5 -97t-96.5 -41h-85v-167h85zM169 486h85v85q0 35 -25 59.5t-60 24.5q-34 0 -58.5 -24.5t-24.5 -59.5t24.5 -60t58.5 -25zM527 571v-85h85q35 0 59.5 25t24.5 60t-25 59.5t-59 24.5q-35 0 -60 -24.5t-25 -59.5zM307 266
h167v167h-167v-167zM254 128v85h-85q-34 0 -58.5 -25t-24.5 -60q0 -34 24 -58.5t59 -24.5t60 24.5t25 58.5zM612 45q35 0 59.5 24.5t24.5 58.5q0 35 -24.5 60t-59.5 25h-85v-85q0 -34 25 -58.5t60 -24.5z" />
    <glyph glyph-name="G.ss03" horiz-adv-x="763" 
d="M391 -8q-157 0 -257.5 100t-100.5 258t100.5 258t257.5 100q128 0 220 -67t110 -172l-158 -32q-13 62 -60.5 99t-111.5 37q-89 0 -144.5 -61t-55.5 -162q0 -98 55.5 -160t144.5 -62q71 0 117.5 35t51.5 92h-208v126h378v-65q0 -145 -94 -234.5t-245 -89.5z" />
    <glyph glyph-name="Gbreve.ss03" horiz-adv-x="763" 
d="M389 753q-62 0 -102.5 39.5t-40.5 99.5h105q0 -47 38 -47q19 0 29.5 12.5t10.5 34.5h105q0 -60 -41 -99.5t-104 -39.5zM391 -8q-157 0 -257.5 100t-100.5 258t100.5 258t257.5 100q128 0 220 -67t110 -172l-158 -32q-13 62 -60.5 99t-111.5 37q-89 0 -144.5 -61
t-55.5 -162q0 -98 55.5 -160t144.5 -62q71 0 117.5 35t51.5 92h-208v126h378v-65q0 -145 -94 -234.5t-245 -89.5z" />
    <glyph glyph-name="Gcircumflex.ss03" horiz-adv-x="763" 
d="M324 904h127l113 -148h-104l-72 71l-72 -71h-104zM391 -8q-157 0 -257.5 100t-100.5 258t100.5 258t257.5 100q128 0 220 -67t110 -172l-158 -32q-13 62 -60.5 99t-111.5 37q-89 0 -144.5 -61t-55.5 -162q0 -98 55.5 -160t144.5 -62q71 0 117.5 35t51.5 92h-208v126h378
v-65q0 -145 -94 -234.5t-245 -89.5z" />
    <glyph glyph-name="Gcommaaccent.ss03" horiz-adv-x="763" 
d="M391 -8q-157 0 -257.5 100t-100.5 258t100.5 258t257.5 100q128 0 220 -67t110 -172l-158 -32q-13 62 -60.5 99t-111.5 37q-89 0 -144.5 -61t-55.5 -162q0 -98 55.5 -160t144.5 -62q71 0 117.5 35t51.5 92h-208v126h378v-65q0 -145 -94 -234.5t-245 -89.5zM273 -190
l36 148h157l-90 -148h-103z" />
    <glyph glyph-name="Gdotaccent.ss03" horiz-adv-x="763" 
d="M313 904h155v-141h-155v141zM391 -8q-157 0 -257.5 100t-100.5 258t100.5 258t257.5 100q128 0 220 -67t110 -172l-158 -32q-13 62 -60.5 99t-111.5 37q-89 0 -144.5 -61t-55.5 -162q0 -98 55.5 -160t144.5 -62q71 0 117.5 35t51.5 92h-208v126h378v-65
q0 -145 -94 -234.5t-245 -89.5z" />
    <glyph glyph-name="i.loclTRK" horiz-adv-x="261" 
d="M54 708h155v-141h-155v141zM57 0v504h147v-504h-147z" />
    <glyph glyph-name="r.calt" horiz-adv-x="403" 
d="M363 367q-15 4 -34 4q-55 0 -90 -44.5t-35 -144.5v-182h-147v504h147v-87q15 41 54 68t85 27l30 -3z" />
    <glyph glyph-name="racute.calt" horiz-adv-x="403" 
d="M147 560l58 148h167l-122 -148h-103zM363 367q-15 4 -34 4q-55 0 -90 -44.5t-35 -144.5v-182h-147v504h147v-87q15 41 54 68t85 27l30 -3z" />
    <glyph glyph-name="rcaron.calt" horiz-adv-x="403" 
d="M152 560l-112 148h104l72 -71l72 71h104l-113 -148h-127zM363 367q-15 4 -34 4q-55 0 -90 -44.5t-35 -144.5v-182h-147v504h147v-87q15 41 54 68t85 27l30 -3z" />
    <glyph glyph-name="rcommaaccent.calt" horiz-adv-x="403" 
d="M363 367q-15 4 -34 4q-55 0 -90 -44.5t-35 -144.5v-182h-147v504h147v-87q15 41 54 68t85 27l30 -3zM13 -190l36 148h157l-90 -148h-103z" />
    <glyph glyph-name="germandbls.calt" horiz-adv-x="651" 
d="M332 708q103 0 172.5 -56t76.5 -142l-110 -111q63 -19 105.5 -69t42.5 -112q0 -96 -63.5 -157t-164.5 -61h-110v136h99q42 0 67 23t25 61t-26 59.5t-71 21.5h-73l-11 83l135 139q-9 23 -35 37t-59 14q-48 0 -79.5 -41t-31.5 -105v-428h-158v428q0 126 76 203t193 77z" />
    <glyph glyph-name="a.ss01" 
d="M550 504v-504h-147v50q-42 -58 -134 -58q-110 0 -173.5 70.5t-63.5 189.5t63 189.5t172 70.5q90 0 136 -56v48h147zM293 117q54 0 86.5 37t32.5 98t-32.5 98t-86.5 37q-53 0 -85.5 -37t-32.5 -98t32.5 -98t85.5 -37z" />
    <glyph glyph-name="aacute.ss01" 
d="M235 560l58 148h167l-122 -148h-103zM550 504v-504h-147v50q-42 -58 -134 -58q-110 0 -173.5 70.5t-63.5 189.5t63 189.5t172 70.5q90 0 136 -56v48h147zM293 117q54 0 86.5 37t32.5 98t-32.5 98t-86.5 37q-53 0 -85.5 -37t-32.5 -98t32.5 -98t85.5 -37z" />
    <glyph glyph-name="abreve.ss01" 
d="M304 557q-62 0 -102.5 39.5t-40.5 99.5h105q0 -47 38 -47q19 0 29.5 12.5t10.5 34.5h105q0 -60 -41 -99.5t-104 -39.5zM550 504v-504h-147v50q-42 -58 -134 -58q-110 0 -173.5 70.5t-63.5 189.5t63 189.5t172 70.5q90 0 136 -56v48h147zM293 117q54 0 86.5 37t32.5 98
t-32.5 98t-86.5 37q-53 0 -85.5 -37t-32.5 -98t32.5 -98t85.5 -37z" />
    <glyph glyph-name="acircumflex.ss01" 
d="M239 708h127l113 -148h-104l-72 71l-72 -71h-104zM550 504v-504h-147v50q-42 -58 -134 -58q-110 0 -173.5 70.5t-63.5 189.5t63 189.5t172 70.5q90 0 136 -56v48h147zM293 117q54 0 86.5 37t32.5 98t-32.5 98t-86.5 37q-53 0 -85.5 -37t-32.5 -98t32.5 -98t85.5 -37z" />
    <glyph glyph-name="adieresis.ss01" 
d="M130 708h134v-138h-134v138zM343 708h135v-138h-135v138zM550 504v-504h-147v50q-42 -58 -134 -58q-110 0 -173.5 70.5t-63.5 189.5t63 189.5t172 70.5q90 0 136 -56v48h147zM293 117q54 0 86.5 37t32.5 98t-32.5 98t-86.5 37q-53 0 -85.5 -37t-32.5 -98t32.5 -98
t85.5 -37z" />
    <glyph glyph-name="agrave.ss01" 
d="M359 560h-103l-122 148h167zM550 504v-504h-147v50q-42 -58 -134 -58q-110 0 -173.5 70.5t-63.5 189.5t63 189.5t172 70.5q90 0 136 -56v48h147zM293 117q54 0 86.5 37t32.5 98t-32.5 98t-86.5 37q-53 0 -85.5 -37t-32.5 -98t32.5 -98t85.5 -37z" />
    <glyph glyph-name="amacron.ss01" 
d="M162 581v110h283v-110h-283zM550 504v-504h-147v50q-42 -58 -134 -58q-110 0 -173.5 70.5t-63.5 189.5t63 189.5t172 70.5q90 0 136 -56v48h147zM293 117q54 0 86.5 37t32.5 98t-32.5 98t-86.5 37q-53 0 -85.5 -37t-32.5 -98t32.5 -98t85.5 -37z" />
    <glyph glyph-name="aogonek.ss01" 
d="M578 -87l13 -96q-19 -7 -59 -7q-56 0 -90 28.5t-34 74.5q0 45 35 87h-40v50q-42 -58 -134 -58q-110 0 -173.5 70.5t-63.5 189.5t63 189.5t172 70.5q90 0 136 -56v48h147v-504q-30 -32 -30 -58q0 -32 35 -32q14 0 23 3zM293 117q54 0 86.5 37t32.5 98t-32.5 98t-86.5 37
q-53 0 -85.5 -37t-32.5 -98t32.5 -98t85.5 -37z" />
    <glyph glyph-name="aring.ss01" 
d="M304 539q-52 0 -86 32.5t-34 81.5t34 81t86 32t86 -32t34 -81t-34 -81.5t-86 -32.5zM304 610q20 0 32.5 12t12.5 31t-12.5 31t-32.5 12t-32.5 -12t-12.5 -31t12.5 -31t32.5 -12zM550 504v-504h-147v50q-42 -58 -134 -58q-110 0 -173.5 70.5t-63.5 189.5t63 189.5
t172 70.5q90 0 136 -56v48h147zM293 117q54 0 86.5 37t32.5 98t-32.5 98t-86.5 37q-53 0 -85.5 -37t-32.5 -98t32.5 -98t85.5 -37z" />
    <glyph glyph-name="aringacute.ss01" 
d="M304 539q-52 0 -86 32.5t-34 81.5q0 37 21 66t56 40l54 139h167l-119 -145q61 -30 61 -100q0 -49 -34 -81.5t-86 -32.5zM304 610q20 0 32.5 12t12.5 31t-12.5 31t-32.5 12t-32.5 -12t-12.5 -31t12.5 -31t32.5 -12zM403 504h147v-504h-147v50q-42 -58 -134 -58
q-110 0 -173.5 70.5t-63.5 189.5t63 189.5t172 70.5q90 0 136 -56v48zM293 117q54 0 86.5 37t32.5 98t-32.5 98t-86.5 37q-53 0 -85.5 -37t-32.5 -98t32.5 -98t85.5 -37z" />
    <glyph glyph-name="atilde.ss01" 
d="M196 562l-99 15q2 62 40 101t96 39q46 0 89 -27q4 -3 14 -9.5t13.5 -8t10 -3.5t13.5 -2q30 0 36 52l100 -14q-2 -64 -39.5 -102.5t-96.5 -38.5q-47 0 -88 27q-35 23 -52 23q-30 0 -37 -52zM550 504v-504h-147v50q-42 -58 -134 -58q-110 0 -173.5 70.5t-63.5 189.5
t63 189.5t172 70.5q90 0 136 -56v48h147zM293 117q54 0 86.5 37t32.5 98t-32.5 98t-86.5 37q-53 0 -85.5 -37t-32.5 -98t32.5 -98t85.5 -37z" />
    <glyph glyph-name="ae.ss01" horiz-adv-x="963" 
d="M931 265q0 -33 -2 -55h-362q22 -96 119 -96q79 0 98 65l137 -37q-46 -150 -223 -150q-90 0 -148 61v-53h-147v50q-42 -58 -134 -58q-110 0 -173.5 70.5t-63.5 189.5t63 189.5t172 70.5q90 0 136 -56v48h147v-50q55 58 139 58q65 0 114 -22.5t75.5 -59.5t39.5 -78.5
t13 -86.5zM570 314h204q-3 40 -29 64.5t-72 24.5q-82 0 -103 -89zM293 117q54 0 86.5 37t32.5 98t-32.5 98t-86.5 37q-53 0 -85.5 -37t-32.5 -98t32.5 -98t85.5 -37z" />
    <glyph glyph-name="aeacute.ss01" horiz-adv-x="963" 
d="M654 708l-122 -148h-103l58 148h167zM931 265q0 -33 -2 -55h-362q22 -96 119 -96q79 0 98 65l137 -37q-46 -150 -223 -150q-90 0 -148 61v-53h-147v50q-42 -58 -134 -58q-110 0 -173.5 70.5t-63.5 189.5t63 189.5t172 70.5q90 0 136 -56v48h147v-50q55 58 139 58
q65 0 114 -22.5t75.5 -59.5t39.5 -78.5t13 -86.5zM570 314h204q-3 40 -29 64.5t-72 24.5q-82 0 -103 -89zM293 117q54 0 86.5 37t32.5 98t-32.5 98t-86.5 37q-53 0 -85.5 -37t-32.5 -98t32.5 -98t85.5 -37z" />
    <glyph glyph-name="g.ss02" horiz-adv-x="537" 
d="M330 110q92 0 142.5 -38t50.5 -106q0 -56 -36 -92t-90 -50t-125 -14q-118 0 -185 36t-67 109q0 53 47 94q-30 30 -30 68q0 72 74 105q-46 46 -46 116q0 78 57 126t149 48q51 0 91 -15l72 81l85 -74l-68 -76q26 -38 26 -90q0 -78 -56.5 -125.5t-149.5 -47.5q-36 0 -64 7
q-31 -16 -31 -36q0 -26 44 -26h110zM271 401q-32 0 -51.5 -17.5t-19.5 -45.5t19.5 -45t51.5 -17q30 0 50 17.5t20 44.5q0 28 -20 45.5t-50 17.5zM272 -74q109 0 109 39q0 20 -18.5 26.5t-58.5 6.5h-86q-22 0 -43 3q-13 -17 -13 -36q0 -21 24 -30t86 -9z" />
    <glyph glyph-name="gbreve.ss02" horiz-adv-x="537" 
d="M266 557q-62 0 -102.5 39.5t-40.5 99.5h105q0 -47 38 -47q19 0 29.5 12.5t10.5 34.5h105q0 -60 -41 -99.5t-104 -39.5zM330 110q92 0 142.5 -38t50.5 -106q0 -56 -36 -92t-90 -50t-125 -14q-118 0 -185 36t-67 109q0 53 47 94q-30 30 -30 68q0 72 74 105q-46 46 -46 116
q0 78 57 126t149 48q51 0 91 -15l72 81l85 -74l-68 -76q26 -38 26 -90q0 -78 -56.5 -125.5t-149.5 -47.5q-36 0 -64 7q-31 -16 -31 -36q0 -26 44 -26h110zM271 401q-32 0 -51.5 -17.5t-19.5 -45.5t19.5 -45t51.5 -17q30 0 50 17.5t20 44.5q0 28 -20 45.5t-50 17.5zM272 -74
q109 0 109 39q0 20 -18.5 26.5t-58.5 6.5h-86q-22 0 -43 3q-13 -17 -13 -36q0 -21 24 -30t86 -9z" />
    <glyph glyph-name="gcircumflex.ss02" horiz-adv-x="537" 
d="M330 110q92 0 142.5 -38t50.5 -106q0 -56 -36 -92t-90 -50t-125 -14q-118 0 -185 36t-67 109q0 53 47 94q-30 30 -30 68q0 72 74 105q-46 46 -46 116q0 78 57 126t149 48q51 0 91 -15l56 63h-81l-72 71l-72 -71h-104l112 148h127l102 -134l4 4l85 -74l-68 -76
q26 -38 26 -90q0 -78 -56.5 -125.5t-149.5 -47.5q-36 0 -64 7q-31 -16 -31 -36q0 -26 44 -26h110zM271 401q-32 0 -51.5 -17.5t-19.5 -45.5t19.5 -45t51.5 -17q30 0 50 17.5t20 44.5q0 28 -20 45.5t-50 17.5zM272 -74q109 0 109 39q0 20 -18.5 26.5t-58.5 6.5h-86
q-22 0 -43 3q-13 -17 -13 -36q0 -21 24 -30t86 -9z" />
    <glyph glyph-name="gcommaaccent.ss02" horiz-adv-x="537" 
d="M386 708l-25 -148h-152l64 148h113zM330 110q92 0 142.5 -38t50.5 -106q0 -56 -36 -92t-90 -50t-125 -14q-118 0 -185 36t-67 109q0 53 47 94q-30 30 -30 68q0 72 74 105q-46 46 -46 116q0 78 57 126t149 48q51 0 91 -15l72 81l85 -74l-68 -76q26 -38 26 -90
q0 -78 -56.5 -125.5t-149.5 -47.5q-36 0 -64 7q-31 -16 -31 -36q0 -26 44 -26h110zM271 401q-32 0 -51.5 -17.5t-19.5 -45.5t19.5 -45t51.5 -17q30 0 50 17.5t20 44.5q0 28 -20 45.5t-50 17.5zM272 -74q109 0 109 39q0 20 -18.5 26.5t-58.5 6.5h-86q-22 0 -43 3
q-13 -17 -13 -36q0 -21 24 -30t86 -9z" />
    <glyph glyph-name="gdotaccent.ss02" horiz-adv-x="537" 
d="M345 708v-141h-155v141h155zM330 110q92 0 142.5 -38t50.5 -106q0 -56 -36 -92t-90 -50t-125 -14q-118 0 -185 36t-67 109q0 53 47 94q-30 30 -30 68q0 72 74 105q-46 46 -46 116q0 78 57 126t149 48q51 0 91 -15l72 81l85 -74l-68 -76q26 -38 26 -90q0 -78 -56.5 -125.5
t-149.5 -47.5q-36 0 -64 7q-31 -16 -31 -36q0 -26 44 -26h110zM271 401q-32 0 -51.5 -17.5t-19.5 -45.5t19.5 -45t51.5 -17q30 0 50 17.5t20 44.5q0 28 -20 45.5t-50 17.5zM272 -74q109 0 109 39q0 20 -18.5 26.5t-58.5 6.5h-86q-22 0 -43 3q-13 -17 -13 -36q0 -21 24 -30
t86 -9z" />
    <glyph glyph-name="f_f.dlig" horiz-adv-x="728" 
d="M650 607q-30 0 -47.5 -19t-17.5 -52v-32h115v-122h-115v-382h-147v382h-193v-382h-147v382h-79v122h79v35q0 88 53.5 138t138.5 50q45 0 80 -13l-10 -118q-28 11 -50 11q-30 0 -47.5 -19t-17.5 -52v-32h193v35q0 88 53.5 138t138.5 50q45 0 80 -13l-10 -118
q-28 11 -50 11z" />
    <glyph glyph-name="f_f_i.dlig" horiz-adv-x="957" 
d="M899 504v-504h-147v382h-203v-382h-143v382h-161v-382h-147v382h-79v122h79v35q0 88 53.5 138t138.5 50q45 0 80 -13l-10 -118q-28 11 -50 11q-30 0 -47.5 -19t-17.5 -52v-32h161v35q0 88 54 138t138 50q45 0 80 -13l-10 -118q-27 11 -49 11q-31 0 -50.5 -19.5
t-19.5 -54.5v-29h350zM749 708h155v-141h-155v141z" />
    <glyph glyph-name="f_f_l.dlig" horiz-adv-x="973" 
d="M769 708h147v-708h-147v382h-220v-382h-143v382h-161v-382h-147v382h-79v122h79v35q0 88 53.5 138t138.5 50q45 0 80 -13l-10 -118q-28 11 -50 11q-30 0 -47.5 -19t-17.5 -52v-32h161v35q0 88 54 138t138 50q45 0 80 -13l-10 -118q-27 11 -49 11q-31 0 -50.5 -19.5
t-19.5 -54.5v-29h220v204z" />
    <glyph glyph-name="f_i.dlig" horiz-adv-x="637" 
d="M580 504v-504h-147v382h-195v-382h-143v382h-76v122h76v35q0 88 53.5 138t138.5 50q44 0 79 -13l-10 -118q-27 11 -49 11q-30 0 -49.5 -19.5t-19.5 -54.5v-29h342zM430 708h155v-141h-155v141z" />
    <glyph glyph-name="f_l.dlig" horiz-adv-x="653" 
d="M448 708h147v-708h-147v382h-210v-382h-143v382h-76v122h76v35q0 88 53.5 138t138.5 50q44 0 79 -13l-10 -118q-27 11 -49 11q-30 0 -49.5 -19.5t-19.5 -54.5v-29h210v204z" />
    <glyph glyph-name="three.ss04" horiz-adv-x="586" 
d="M294 -8q-111 0 -186.5 61t-75.5 159l153 7q0 -43 30 -71.5t78 -28.5t77.5 24.5t29.5 62.5q0 42 -30 67t-80 25q-36 0 -51 -1l-2 124h41q46 0 74.5 26t28.5 66q0 34 -27.5 55.5t-68.5 21.5t-70 -28.5t-28 -66.5l-142 9q0 83 69 143.5t171 60.5q101 0 169.5 -55t68.5 -134
q0 -60 -35 -102.5t-92 -54.5q70 -5 114 -50.5t44 -113.5q0 -89 -73.5 -147.5t-186.5 -58.5z" />
    <glyph glyph-name="uni2462.ss04" horiz-adv-x="782" 
d="M391 -8q-155 0 -256.5 102t-101.5 256t101.5 256t256.5 102t257 -102t102 -256t-102 -256t-257 -102zM391 67q121 0 201 80.5t80 202.5t-80 202.5t-201 80.5t-201 -80.5t-80 -202.5t80 -202.5t201 -80.5zM388 169q-59 0 -102 34.5t-43 88.5l97 3q0 -19 13.5 -32t34.5 -13
t34.5 11t13.5 28q0 18 -14 30t-36 12h-27l-1 79h22q21 0 34 12t14 30q0 15 -12.5 24.5t-32.5 9.5q-18 0 -31 -12t-13 -30l-90 5q0 45 38.5 79t94.5 34t95 -30.5t39 -73.5q0 -33 -18 -56t-47 -30q36 -3 59 -27.5t23 -60.5q0 -50 -41 -82.5t-104 -32.5z" />
    <glyph glyph-name="zero.tf" horiz-adv-x="633" 
d="M309 -8q-134 0 -212.5 97.5t-78.5 260.5t78.5 260.5t212.5 97.5t213.5 -97.5t79.5 -260.5t-79.5 -260.5t-213.5 -97.5zM309 128q65 0 100 57.5t35 164.5t-35 165t-100 58t-99 -58t-34 -165t34 -164.5t99 -57.5z" />
    <glyph glyph-name="one.tf" horiz-adv-x="633" 
d="M412 136h159v-136h-496v136h191v396q-74 -55 -158 -72v141q95 23 185 99h119v-564z" />
    <glyph glyph-name="two.tf" horiz-adv-x="633" 
d="M66 0v126l242 201q105 86 105 154q0 41 -27 66.5t-70 25.5q-51 0 -78.5 -39t-22.5 -104l-150 10q-11 111 63.5 189.5t187.5 78.5q114 0 184.5 -63t70.5 -164q0 -66 -41 -127.5t-131 -130.5l-112 -87h283v-136h-504z" />
    <glyph glyph-name="three.tf" horiz-adv-x="633" 
d="M313 -8q-110 0 -183.5 57t-83.5 151l143 24q8 -44 42 -70t83 -26q50 0 81.5 28t31.5 74t-30.5 74t-80.5 28q-44 0 -80 -24l-60 104l177 153h-287v135h473v-126l-170 -143q97 2 156.5 -54t59.5 -152q0 -105 -75 -169t-197 -64z" />
    <glyph glyph-name="four.tf" horiz-adv-x="633" 
d="M368 0v134h-345v135l335 431h168v-431h84v-135h-84v-134h-158zM185 269h183v240z" />
    <glyph glyph-name="five.tf" horiz-adv-x="633" 
d="M326 -8q-104 0 -175.5 53t-86.5 142l142 26q10 -39 40 -62t74 -23q49 0 78 29.5t29 78.5t-31 78t-83 29q-74 0 -119 -63l-115 24l60 396h393v-135h-278l-24 -146q51 46 126 46q101 0 165 -63.5t64 -165.5q0 -110 -70.5 -177t-188.5 -67z" />
    <glyph glyph-name="six.tf" horiz-adv-x="633" 
d="M339 473q107 0 176 -67.5t69 -172.5t-76.5 -173t-194.5 -68q-120 0 -196.5 92.5t-76.5 237.5q0 95 28 170.5t75 121.5t106 70t125 24q124 0 211 -75l-70 -112q-61 52 -136 52q-79 0 -131 -47.5t-60 -124.5q52 72 151 72zM317 128q49 0 80.5 32t32.5 82q1 49 -31 80.5
t-82 31.5t-82 -31.5t-32 -80.5q0 -50 32 -82t82 -32z" />
    <glyph glyph-name="seven.tf" horiz-adv-x="633" 
d="M595 700v-135q-264 -364 -281 -565h-159q33 246 277 565h-238v-109h-146v244h547z" />
    <glyph glyph-name="eight.tf" horiz-adv-x="633" 
d="M318 -8q-112 0 -187 58.5t-75 156.5q0 59 33.5 105t88.5 65q-41 20 -66 58t-25 84q0 80 64.5 134.5t166.5 54.5q100 0 164.5 -54.5t64.5 -134.5q0 -46 -25 -84.5t-67 -57.5q56 -18 89.5 -64.5t33.5 -105.5q0 -98 -75 -156.5t-185 -58.5zM318 435q39 0 63 21.5t24 56.5
t-24 56t-63 21q-41 0 -65 -21t-24 -56t24.5 -56.5t64.5 -21.5zM317 119q49 0 78 25t29 66q0 42 -29 67t-78 25t-78.5 -25t-29.5 -67q0 -41 29.5 -66t78.5 -25z" />
    <glyph glyph-name="nine.tf" horiz-adv-x="633" 
d="M293 228q-107 0 -176 67.5t-69 172.5t76.5 173t194.5 68q120 0 196.5 -92.5t76.5 -237.5q0 -95 -28 -170.5t-75 -121.5t-106 -70t-125 -24q-124 0 -211 75l70 112q61 -52 136 -52q79 0 131 47.5t60 124.5q-52 -72 -151 -72zM315 573q-49 0 -80.5 -32t-32.5 -82
q-1 -49 31 -80.5t82 -31.5t82 31.5t32 80.5q0 50 -32 82t-82 32z" />
    <glyph glyph-name="three.tf.ss04" horiz-adv-x="633" 
d="M320 -8q-111 0 -186.5 61t-75.5 159l153 7q0 -43 30 -71.5t78 -28.5t77.5 24.5t29.5 62.5q0 42 -30 67t-80 25q-36 0 -51 -1l-2 124h41q46 0 74.5 26t28.5 66q0 34 -27.5 55.5t-68.5 21.5t-70 -28.5t-28 -66.5l-142 9q0 83 69 143.5t171 60.5q101 0 169.5 -55t68.5 -134
q0 -60 -35 -102.5t-92 -54.5q70 -5 114 -50.5t44 -113.5q0 -89 -73.5 -147.5t-186.5 -58.5z" />
    <glyph glyph-name="zero.subs" horiz-adv-x="382" 
d="M191 -174q-77 0 -124 53.5t-47 143.5q0 89 47 142.5t124 53.5t123.5 -53.5t46.5 -142.5q0 -90 -46.5 -143.5t-123.5 -53.5zM191 -86q68 0 68 109q0 108 -68 108t-68 -108q0 -109 68 -109z" />
    <glyph glyph-name="one.subs" horiz-adv-x="238" 
d="M108 -170v278q-47 -31 -86 -38v91q48 11 104 54h77v-385h-95z" />
    <glyph glyph-name="two.subs" horiz-adv-x="343" 
d="M29 -170l-1 79l116 95q67 54 67 87q0 18 -12 29t-32 11q-23 0 -35.5 -19t-9.5 -51l-98 6q-7 62 36.5 107t106.5 45q65 0 106 -36t41 -92q0 -76 -97 -143l-44 -30h141v-88h-285z" />
    <glyph glyph-name="three.subs" horiz-adv-x="351" 
d="M173 -174q-62 0 -104 32t-47 84l92 15q6 -19 22.5 -31t37.5 -12q23 0 37 12t14 33q0 20 -14 33t-36 13q-27 0 -45 -15l-39 69l85 68h-143v88h265v-88l-85 -60q52 -1 83 -30.5t31 -80.5q0 -59 -42.5 -94.5t-111.5 -35.5z" />
    <glyph glyph-name="four.subs" horiz-adv-x="373" 
d="M208 -170v64h-186v88l182 233h108v-233h41v-88h-41v-64h-104zM126 -18h82v106z" />
    <glyph glyph-name="five.subs" horiz-adv-x="344" 
d="M172 -174q-58 0 -98 29.5t-48 78.5l92 16q11 -36 51 -36q21 0 34.5 13t13.5 34t-14.5 33.5t-37.5 12.5q-34 0 -57 -29l-74 15l33 222h221v-88h-148l-12 -66q25 24 68 24q54 0 88.5 -34.5t34.5 -89.5q0 -61 -40 -98t-107 -37z" />
    <glyph glyph-name="six.subs" horiz-adv-x="362" 
d="M201 90q58 0 95.5 -37t37.5 -94q0 -58 -43 -95.5t-111 -37.5q-66 0 -109.5 52t-43.5 132q0 101 56 155t131 54q71 0 120 -43l-44 -65q-24 21 -72 21q-38 0 -62.5 -19.5t-30.5 -52.5q26 30 76 30zM184 -86q22 0 36 14t15 37q1 22 -13.5 36t-37.5 14q-22 0 -36.5 -14
t-14.5 -36t14.5 -36.5t36.5 -14.5z" />
    <glyph glyph-name="seven.subs" horiz-adv-x="314" 
d="M57 -170q52 171 147 297h-187v88h288v-88q-111 -157 -149 -297h-99z" />
    <glyph glyph-name="eight.subs" horiz-adv-x="348" 
d="M174 -174q-61 0 -104 32.5t-43 87.5q0 31 18 56t48 35q-22 11 -35 31.5t-13 45.5q0 43 36.5 74t92.5 31t92.5 -31t36.5 -74q0 -55 -48 -77q30 -10 47.5 -34.5t17.5 -56.5q0 -55 -42.5 -87.5t-103.5 -32.5zM174 76q18 0 28.5 9t10.5 24q0 16 -11 25.5t-28 9.5
q-38 0 -38 -35q0 -33 38 -33zM174 -93q21 0 34 11.5t13 29.5t-13 29.5t-34 11.5t-34 -11.5t-13 -29.5t13 -29.5t34 -11.5z" />
    <glyph glyph-name="nine.subs" horiz-adv-x="362" 
d="M162 -45q-58 0 -96 37t-38 94q0 58 43.5 95.5t109.5 37.5q67 0 110 -52t43 -132q0 -102 -55.5 -155.5t-130.5 -53.5q-70 0 -121 43l45 65q27 -21 73 -21q38 0 62.5 19.5t30.5 52.5q-27 -30 -76 -30zM179 131q-22 0 -36 -14t-14 -37q-1 -22 13.5 -36t36.5 -14t36 14t14 36
t-14 36.5t-36 14.5z" />
    <glyph glyph-name="zero.dnom" horiz-adv-x="382" 
d="M191 -4q-77 0 -124 53.5t-47 143.5q0 89 47 142.5t124 53.5t123.5 -53.5t46.5 -142.5q0 -90 -46.5 -143.5t-123.5 -53.5zM191 84q68 0 68 109q0 108 -68 108t-68 -108q0 -109 68 -109z" />
    <glyph glyph-name="one.dnom" horiz-adv-x="238" 
d="M108 0v278q-47 -31 -86 -38v91q48 11 104 54h77v-385h-95z" />
    <glyph glyph-name="two.dnom" horiz-adv-x="343" 
d="M29 0l-1 79l116 95q67 54 67 87q0 18 -12 29t-32 11q-23 0 -35.5 -19t-9.5 -51l-98 6q-7 62 36.5 107t106.5 45q65 0 106 -36t41 -92q0 -76 -97 -143l-44 -30h141v-88h-285z" />
    <glyph glyph-name="three.dnom" horiz-adv-x="351" 
d="M173 -4q-62 0 -104 32t-47 84l92 15q6 -19 22.5 -31t37.5 -12q23 0 37 12t14 33q0 20 -14 33t-36 13q-27 0 -45 -14l-39 68l85 68h-143v88h265v-88l-85 -60q52 -1 83 -30.5t31 -80.5q0 -59 -42.5 -94.5t-111.5 -35.5z" />
    <glyph glyph-name="four.dnom" horiz-adv-x="373" 
d="M208 0v64h-186v88l182 233h108v-233h41v-88h-41v-64h-104zM126 152h82v106z" />
    <glyph glyph-name="five.dnom" horiz-adv-x="344" 
d="M172 -4q-58 0 -98 29.5t-48 78.5l92 16q11 -36 51 -36q21 0 34.5 13t13.5 34t-14.5 33.5t-37.5 12.5q-34 0 -57 -29l-74 15l33 222h221v-88h-148l-12 -66q25 24 68 24q54 0 88.5 -34.5t34.5 -89.5q0 -61 -40 -98t-107 -37z" />
    <glyph glyph-name="six.dnom" horiz-adv-x="362" 
d="M201 260q58 0 95.5 -37t37.5 -94q0 -58 -43 -95.5t-111 -37.5q-66 0 -109.5 52t-43.5 132q0 101 56 155t131 54q71 0 120 -43l-44 -65q-24 21 -72 21q-38 0 -62.5 -19.5t-30.5 -52.5q26 30 76 30zM184 84q22 0 36 14t15 37q1 22 -13.5 36t-37.5 14q-22 0 -36.5 -14
t-14.5 -36t14.5 -36.5t36.5 -14.5z" />
    <glyph glyph-name="seven.dnom" horiz-adv-x="314" 
d="M57 0q52 171 147 297h-187v88h288v-88q-111 -157 -149 -297h-99z" />
    <glyph glyph-name="eight.dnom" horiz-adv-x="348" 
d="M174 -4q-61 0 -104 32.5t-43 87.5q0 31 18 56t48 35q-22 11 -35 31.5t-13 45.5q0 43 36.5 74t92.5 31t92.5 -31t36.5 -74q0 -55 -48 -77q30 -10 47.5 -34.5t17.5 -56.5q0 -55 -42.5 -87.5t-103.5 -32.5zM174 246q18 0 28.5 9t10.5 24q0 16 -11 25.5t-28 9.5
q-38 0 -38 -35q0 -33 38 -33zM174 77q21 0 34 11.5t13 29.5t-13 29.5t-34 11.5t-34 -11.5t-13 -29.5t13 -29.5t34 -11.5z" />
    <glyph glyph-name="nine.dnom" horiz-adv-x="362" 
d="M162 125q-58 0 -96 37t-38 94q0 58 43.5 95.5t109.5 37.5q67 0 110 -52t43 -132q0 -102 -55.5 -155.5t-130.5 -53.5q-70 0 -121 43l45 65q27 -21 73 -21q38 0 62.5 19.5t30.5 52.5q-27 -30 -76 -30zM179 301q-22 0 -36 -14t-14 -37q-1 -22 13.5 -36t36.5 -14t36 14t14 36
t-14 36.5t-36 14.5z" />
    <glyph glyph-name="zero.numr" horiz-adv-x="382" 
d="M191 311q-77 0 -124 53.5t-47 143.5q0 89 47 142.5t124 53.5t123.5 -53.5t46.5 -142.5q0 -90 -46.5 -143.5t-123.5 -53.5zM191 399q68 0 68 109q0 108 -68 108t-68 -108q0 -109 68 -109z" />
    <glyph glyph-name="one.numr" horiz-adv-x="238" 
d="M108 315v278q-47 -31 -86 -38v91q48 11 104 54h77v-385h-95z" />
    <glyph glyph-name="two.numr" horiz-adv-x="343" 
d="M29 315l-1 79l116 95q67 54 67 87q0 18 -12 29t-32 11q-23 0 -35.5 -19t-9.5 -51l-98 6q-7 62 36.5 107t106.5 45q65 0 106 -36t41 -92q0 -76 -97 -143l-44 -30h141v-88h-285z" />
    <glyph glyph-name="three.numr" horiz-adv-x="351" 
d="M173 311q-62 0 -104 32t-47 84l92 15q6 -19 22.5 -31t37.5 -12q23 0 37 12t14 33q0 20 -14 33t-36 13q-27 0 -45 -14l-39 68l85 68h-143v88h265v-88l-85 -60q52 -1 83 -30.5t31 -80.5q0 -59 -42.5 -94.5t-111.5 -35.5z" />
    <glyph glyph-name="four.numr" horiz-adv-x="373" 
d="M208 315v64h-186v88l182 233h108v-233h41v-88h-41v-64h-104zM126 467h82v106z" />
    <glyph glyph-name="five.numr" horiz-adv-x="344" 
d="M172 311q-58 0 -98 29.5t-48 78.5l92 16q11 -36 51 -36q21 0 34.5 13t13.5 34t-14.5 33.5t-37.5 12.5q-34 0 -57 -29l-74 15l33 222h221v-88h-148l-12 -66q25 24 68 24q54 0 88.5 -34.5t34.5 -89.5q0 -61 -40 -98t-107 -37z" />
    <glyph glyph-name="six.numr" horiz-adv-x="362" 
d="M201 575q58 0 95.5 -37t37.5 -94q0 -58 -43 -95.5t-111 -37.5q-66 0 -109.5 52t-43.5 132q0 101 56 155t131 54q71 0 120 -43l-44 -65q-24 21 -72 21q-38 0 -62.5 -19.5t-30.5 -52.5q26 30 76 30zM184 399q22 0 36 14t15 37q1 22 -13.5 36t-37.5 14q-22 0 -36.5 -14
t-14.5 -36t14.5 -36.5t36.5 -14.5z" />
    <glyph glyph-name="seven.numr" horiz-adv-x="314" 
d="M57 315q52 171 147 297h-187v88h288v-88q-111 -157 -149 -297h-99z" />
    <glyph glyph-name="eight.numr" horiz-adv-x="348" 
d="M174 311q-61 0 -104 32.5t-43 87.5q0 31 18 56t48 35q-22 11 -35 31.5t-13 45.5q0 43 36.5 74t92.5 31t92.5 -31t36.5 -74q0 -55 -48 -77q30 -10 47.5 -34.5t17.5 -56.5q0 -55 -42.5 -87.5t-103.5 -32.5zM174 561q18 0 28.5 9t10.5 24q0 16 -11 25.5t-28 9.5
q-38 0 -38 -35q0 -33 38 -33zM174 392q21 0 34 11.5t13 29.5t-13 29.5t-34 11.5t-34 -11.5t-13 -29.5t13 -29.5t34 -11.5z" />
    <glyph glyph-name="nine.numr" horiz-adv-x="362" 
d="M162 440q-58 0 -96 37t-38 94q0 58 43.5 95.5t109.5 37.5q67 0 110 -52t43 -132q0 -102 -55.5 -155.5t-130.5 -53.5q-70 0 -121 43l45 65q27 -21 73 -21q38 0 62.5 19.5t30.5 52.5q-27 -30 -76 -30zM179 616q-22 0 -36 -14t-14 -37q-1 -22 13.5 -36t36.5 -14t36 14t14 36
t-14 36.5t-36 14.5z" />
    <glyph glyph-name="zero.sups" horiz-adv-x="382" 
d="M191 371q-77 0 -124 53.5t-47 143.5q0 89 47 142.5t124 53.5t123.5 -53.5t46.5 -142.5q0 -90 -46.5 -143.5t-123.5 -53.5zM191 459q68 0 68 109q0 108 -68 108t-68 -108q0 -109 68 -109z" />
    <glyph glyph-name="one.sups" horiz-adv-x="238" 
d="M108 375v278q-47 -31 -86 -38v91q48 11 104 54h77v-385h-95z" />
    <glyph glyph-name="two.sups" horiz-adv-x="343" 
d="M29 375l-1 79l116 95q67 54 67 87q0 18 -12 29t-32 11q-23 0 -35.5 -19t-9.5 -51l-98 6q-7 62 36.5 107t106.5 45q65 0 106 -36t41 -92q0 -76 -97 -143l-44 -30h141v-88h-285z" />
    <glyph glyph-name="three.sups" horiz-adv-x="351" 
d="M173 371q-62 0 -104 32t-47 84l92 15q6 -19 22.5 -31t37.5 -12q23 0 37 12t14 33q0 20 -14 33t-36 13q-27 0 -45 -14l-39 68l85 68h-143v88h265v-88l-85 -60q52 -1 83 -30.5t31 -80.5q0 -59 -42.5 -94.5t-111.5 -35.5z" />
    <glyph glyph-name="four.sups" horiz-adv-x="373" 
d="M208 375v64h-186v88l182 233h108v-233h41v-88h-41v-64h-104zM126 527h82v106z" />
    <glyph glyph-name="five.sups" horiz-adv-x="344" 
d="M172 371q-58 0 -98 29.5t-48 78.5l92 16q11 -36 51 -36q21 0 34.5 13t13.5 34t-14.5 33.5t-37.5 12.5q-34 0 -57 -29l-74 15l33 222h221v-88h-148l-12 -66q25 24 68 24q54 0 88.5 -34.5t34.5 -89.5q0 -61 -40 -98t-107 -37z" />
    <glyph glyph-name="six.sups" horiz-adv-x="362" 
d="M201 635q58 0 95.5 -37t37.5 -94q0 -58 -43 -95.5t-111 -37.5q-66 0 -109.5 52t-43.5 132q0 101 56 155t131 54q71 0 120 -43l-44 -65q-24 21 -72 21q-38 0 -62.5 -19.5t-30.5 -52.5q26 30 76 30zM184 459q22 0 36 14t15 37q1 22 -13.5 36t-37.5 14q-22 0 -36.5 -14
t-14.5 -36t14.5 -36.5t36.5 -14.5z" />
    <glyph glyph-name="seven.sups" horiz-adv-x="314" 
d="M57 375q52 171 147 297h-187v88h288v-88q-111 -157 -149 -297h-99z" />
    <glyph glyph-name="eight.sups" horiz-adv-x="348" 
d="M174 371q-61 0 -104 32.5t-43 87.5q0 31 18 56t48 35q-22 11 -35 31.5t-13 45.5q0 43 36.5 74t92.5 31t92.5 -31t36.5 -74q0 -55 -48 -77q30 -10 47.5 -34.5t17.5 -56.5q0 -55 -42.5 -87.5t-103.5 -32.5zM174 621q18 0 28.5 9t10.5 24q0 16 -11 25.5t-28 9.5
q-38 0 -38 -35q0 -33 38 -33zM174 452q21 0 34 11.5t13 29.5t-13 29.5t-34 11.5t-34 -11.5t-13 -29.5t13 -29.5t34 -11.5z" />
    <glyph glyph-name="nine.sups" horiz-adv-x="362" 
d="M162 500q-58 0 -96 37t-38 94q0 58 43.5 95.5t109.5 37.5q67 0 110 -52t43 -132q0 -102 -55.5 -155.5t-130.5 -53.5q-70 0 -121 43l45 65q27 -21 73 -21q38 0 62.5 19.5t30.5 52.5q-27 -30 -76 -30zM179 676q-22 0 -36 -14t-14 -37q-1 -22 13.5 -36t36.5 -14t36 14t14 36
t-14 36.5t-36 14.5z" />
    <glyph glyph-name="three.subs.ss04" horiz-adv-x="338" 
d="M167 -174q-59 0 -102 34.5t-43 88.5l97 3q0 -19 13.5 -32t34.5 -13t34.5 11t13.5 28q0 18 -14 30t-36 12h-27l-1 79h22q21 0 34 12t14 30q0 15 -12.5 24.5t-32.5 9.5q-18 0 -31 -12t-13 -30l-90 5q0 45 38.5 79t94.5 34t95 -30.5t39 -73.5q0 -33 -18 -56t-47 -30
q36 -3 59 -27.5t23 -60.5q0 -50 -41 -82.5t-104 -32.5z" />
    <glyph glyph-name="three.dnom.ss04" horiz-adv-x="340" 
d="M167 -8q-59 0 -102 34.5t-43 88.5l97 3q0 -19 13.5 -32t34.5 -13t34.5 11t13.5 28q0 18 -14 30t-36 12h-27l-1 79h22q21 0 34 12t14 30q0 15 -12.5 24.5t-32.5 9.5q-18 0 -31 -12t-13 -30l-90 5q0 45 38.5 79t94.5 34t95 -30.5t39 -73.5q0 -33 -18 -56t-47 -30
q36 -3 59 -27.5t23 -60.5q0 -50 -41 -82.5t-104 -32.5z" />
    <glyph glyph-name="three.numr.ss04" horiz-adv-x="340" 
d="M167 317q-59 0 -102 34.5t-43 88.5l97 3q0 -19 13.5 -32t34.5 -13t34.5 11t13.5 28q0 18 -14 30t-36 12h-27l-1 79h22q21 0 34 12t14 30q0 15 -12.5 24.5t-32.5 9.5q-18 0 -31 -12t-13 -30l-90 5q0 45 38.5 79t94.5 34t95 -30.5t39 -73.5q0 -33 -18 -56t-47 -30
q36 -3 59 -27.5t23 -60.5q0 -50 -41 -82.5t-104 -32.5z" />
    <glyph glyph-name="uni00B3.ss04" horiz-adv-x="340" 
d="M167 371q-59 0 -102 34.5t-43 88.5l97 3q0 -19 13.5 -32t34.5 -13t34.5 11t13.5 28q0 18 -14 30t-36 12h-27l-1 79h22q21 0 34 12t14 30q0 15 -12.5 24.5t-32.5 9.5q-18 0 -31 -12t-13 -30l-90 5q0 45 38.5 79t94.5 34t95 -30.5t39 -73.5q0 -33 -18 -56t-47 -30
q36 -3 59 -27.5t23 -60.5q0 -50 -41 -82.5t-104 -32.5z" />
    <glyph glyph-name="three.sups.ss04" horiz-adv-x="340" 
d="M167 371q-59 0 -102 34.5t-43 88.5l97 3q0 -19 13.5 -32t34.5 -13t34.5 11t13.5 28q0 18 -14 30t-36 12h-27l-1 79h22q21 0 34 12t14 30q0 15 -12.5 24.5t-32.5 9.5q-18 0 -31 -12t-13 -30l-90 5q0 45 38.5 79t94.5 34t95 -30.5t39 -73.5q0 -33 -18 -56t-47 -30
q36 -3 59 -27.5t23 -60.5q0 -50 -41 -82.5t-104 -32.5z" />
    <glyph glyph-name="bullet.case" horiz-adv-x="465" 
d="M235 142q-85 0 -143.5 58.5t-58.5 141.5t59 141.5t143 58.5q82 0 140 -58.5t58 -141.5t-58 -141.5t-140 -58.5z" />
    <glyph glyph-name="colon.case" horiz-adv-x="266" 
d="M57 594h151v-146h-151v146zM57 236h151v-146h-151v146z" />
    <glyph glyph-name="comma.tf" horiz-adv-x="633" 
d="M198 -134l69 280h169l-143 -280h-95z" />
    <glyph glyph-name="period.tf" horiz-adv-x="633" 
d="M229 146h151v-146h-151v146z" />
    <glyph glyph-name="braceleft.case" horiz-adv-x="348" 
d="M263 -134q-59 0 -97.5 39.5t-38.5 98.5v210q0 43 -21.5 62t-64.5 19v125q43 1 64.5 20t21.5 61v210q0 60 38.5 99t97.5 39h67v-120h-18q-54 0 -54 -57v-203q0 -47 -21.5 -71t-62.5 -40q41 -16 62.5 -40t21.5 -72v-203q0 -56 54 -56h18v-121h-67z" />
    <glyph glyph-name="braceright.case" horiz-adv-x="348" 
d="M85 -134h-67v121h18q54 0 54 56v203q0 48 21.5 72t62.5 40q-41 16 -62.5 40t-21.5 71v203q0 57 -54 57h-18v120h67q59 0 97.5 -39t38.5 -99v-210q0 -42 21.5 -61t64.5 -20v-125q-43 0 -64.5 -19t-21.5 -62v-210q0 -59 -38.5 -98.5t-97.5 -39.5z" />
    <glyph glyph-name="bracketleft.case" horiz-adv-x="325" 
d="M63 -140v984h239v-119h-109v-747h109v-118h-239z" />
    <glyph glyph-name="bracketright.case" horiz-adv-x="325" 
d="M262 -140h-239v118h109v747h-109v119h239v-984z" />
    <glyph glyph-name="parenleft.case" horiz-adv-x="302" 
d="M194 -162q-178 210 -178 496t178 493l99 -74q-140 -191 -140 -419q0 -229 140 -421z" />
    <glyph glyph-name="parenright.case" horiz-adv-x="302" 
d="M108 -162l-99 75q140 192 140 421q0 228 -140 419l99 74q178 -207 178 -493t-178 -496z" />
    <glyph glyph-name="emdash.case" horiz-adv-x="1000" 
d="M21 291v125h958v-125h-958z" />
    <glyph glyph-name="endash.case" horiz-adv-x="500" 
d="M21 291v125h458v-125h-458z" />
    <glyph glyph-name="hyphen.case" horiz-adv-x="388" 
d="M26 291v125h336v-125h-336z" />
    <glyph glyph-name="uni00AD.case" horiz-adv-x="388" 
d="M26 291v125h336v-125h-336z" />
    <glyph glyph-name="quotedblbase.ss05" horiz-adv-x="439" 
d="M32 146h163v-120l-73 -148h-70l48 132h-68v136zM244 146h163v-120l-73 -148h-70l48 132h-68v136z" />
    <glyph glyph-name="quotedblleft.ss05" horiz-adv-x="439" 
d="M194 439h-163v120l73 148h70l-48 -132h68v-136zM407 439h-163v120l73 148h70l-48 -132h68v-136z" />
    <glyph glyph-name="quotedblright.ss05" horiz-adv-x="439" 
d="M32 708h163v-120l-73 -148h-70l48 132h-68v136zM244 708h163v-120l-73 -148h-70l48 132h-68v136z" />
    <glyph glyph-name="quoteleft.ss05" horiz-adv-x="226" 
d="M194 439h-163v120l73 148h70l-48 -132h68v-136z" />
    <glyph glyph-name="quoteright.ss05" horiz-adv-x="226" 
d="M32 708h163v-120l-73 -148h-70l48 132h-68v136z" />
    <glyph glyph-name="quotesinglbase.ss05" horiz-adv-x="226" 
d="M32 146h163v-120l-73 -148h-70l48 132h-68v136z" />
    <glyph glyph-name="space.tf" horiz-adv-x="633" 
 />
    <glyph glyph-name="percent.part" horiz-adv-x="368" 
d="M185 356q-75 0 -119.5 48t-44.5 128t44.5 128t119.5 48q74 0 118.5 -48t44.5 -128t-44.5 -128t-118.5 -48zM185 453q54 0 54 79t-54 79q-56 0 -56 -79t56 -79z" />
    <glyph glyph-name="at.case" horiz-adv-x="915" 
d="M538 486h112v-242q0 -22 12 -33.5t31 -11.5q32 0 52 37.5t20 102.5q0 119 -81 188t-209 69q-142 0 -231.5 -84.5t-89.5 -218.5q0 -140 88.5 -226.5t230.5 -86.5q124 0 254 71l40 -115q-154 -68 -302 -68q-186 0 -307 120t-121 305q0 179 125 297.5t313 118.5
q175 0 291 -105.5t116 -264.5q0 -116 -54.5 -183t-142.5 -67q-90 0 -124 63q-37 -58 -123 -58q-84 0 -134.5 53.5t-50.5 145.5q0 90 49.5 144.5t130.5 54.5q67 0 105 -41v35zM454 190q41 0 65.5 28.5t24.5 74.5q0 47 -24.5 75.5t-65.5 28.5t-66 -28.5t-25 -75.5
q0 -46 25 -74.5t66 -28.5z" />
    <glyph glyph-name="caroncomb.alt" horiz-adv-x="0" 
d="M-218 560l31 192h137l-85 -192h-83z" />
    </font>
</defs>
</svg>
